<svg xmlns="http://www.w3.org/2000/svg" width="725.6" height="245.052" viewBox="0 0 725.6 245.052">
  <g id="Group_1" data-name="Group 1" transform="translate(-693 -454.248)">
    <g id="Discord-Logo_Wordmark-Black" data-name="Discord-Logo+Wordmark-Black" transform="translate(656.1 464.1)">
      <path id="Path_1" data-name="Path 1" d="M142.8,120.1c-5.7,0-10.2,4.9-10.2,11s4.6,11,10.2,11c5.7,0,10.2-4.9,10.2-11s-4.6-11-10.2-11Zm-36.5,0c-5.7,0-10.2,4.9-10.2,11s4.6,11,10.2,11c5.7,0,10.2-4.9,10.2-11,.1-6.1-4.5-11-10.2-11Z"/>
      <path id="Path_2" data-name="Path 2" d="M191.4,36.9H57.4A20.528,20.528,0,0,0,36.9,57.4v134a20.528,20.528,0,0,0,20.5,20.5H170.8l-5.3-18.3,12.8,11.8,12.1,11.1L212,235.2V57.4A20.679,20.679,0,0,0,191.4,36.9ZM152.8,166.4s-3.6-4.3-6.6-8c13.1-3.7,18.1-11.8,18.1-11.8a57.224,57.224,0,0,1-11.5,5.9,71.712,71.712,0,0,1-14.5,4.3,70.052,70.052,0,0,1-25.9-.1,76.134,76.134,0,0,1-14.7-4.3,58.6,58.6,0,0,1-7.3-3.4c-.3-.2-.6-.3-.9-.5-.2-.1-.3-.2-.4-.2-1.8-1-2.8-1.7-2.8-1.7s4.8,7.9,17.5,11.7c-3,3.8-6.7,8.2-6.7,8.2-22.1-.7-30.5-15.1-30.5-15.1C66.6,119.5,81,93.6,81,93.6c14.4-10.7,28-10.4,28-10.4l1,1.2c-18,5.1-26.2,13-26.2,13s2.2-1.2,5.9-2.8a78.353,78.353,0,0,1,22.7-6.3,9.852,9.852,0,0,1,1.7-.2,84.612,84.612,0,0,1,20.2-.2,83.129,83.129,0,0,1,30.1,9.5s-7.9-7.5-24.9-12.6l1.4-1.6s13.7-.3,28,10.4c0,0,14.4,25.9,14.4,57.8,0-.1-8.4,14.3-30.5,15Zm151-86.7H270.6V117l22.1,19.9V100.7h11.8c7.5,0,11.2,3.6,11.2,9.4v27.7c0,5.8-3.5,9.7-11.2,9.7h-34v21.1h33.2c17.8.1,34.5-8.8,34.5-29.2V109.6c.1-20.8-16.6-29.9-34.4-29.9Zm174,59.7V108.8c0-11,19.8-13.5,25.8-2.5l18.3-7.4c-7.2-15.8-20.3-20.4-31.2-20.4-17.8,0-35.4,10.3-35.4,30.3v30.6c0,20.2,17.6,30.3,35,30.3a35.706,35.706,0,0,0,32-19.9l-19.6-9c-4.8,12.3-24.9,9.3-24.9-1.4ZM417.3,113c-6.9-1.5-11.5-4-11.8-8.3.4-10.3,16.3-10.7,25.6-.8l14.7-11.3c-9.2-11.2-19.6-14.2-30.3-14.2-16.3,0-32.1,9.2-32.1,26.6,0,16.9,13,26,27.3,28.2,7.3,1,15.4,3.9,15.2,8.9-.6,9.5-20.2,9-29.1-1.8l-14.2,13.3c8.3,10.7,19.6,16.1,30.2,16.1,16.3,0,34.4-9.4,35.1-26.6,1-21.7-14.8-27.2-30.6-30.1Zm-67,55.5h22.4V79.7H350.3ZM728,79.7H694.8V117l22.1,19.9V100.7h11.8c7.5,0,11.2,3.6,11.2,9.4v27.7c0,5.8-3.5,9.7-11.2,9.7h-34v21.1H728c17.8.1,34.5-8.8,34.5-29.2V109.6c0-20.8-16.7-29.9-34.5-29.9ZM565.1,78.5c-18.4,0-36.7,10-36.7,30.5v30.3c0,20.3,18.4,30.5,36.9,30.5,18.4,0,36.7-10.2,36.7-30.5V109C602,88.6,583.5,78.5,565.1,78.5Zm14.4,60.8c0,6.4-7.2,9.7-14.3,9.7-7.2,0-14.4-3.1-14.4-9.7V109c0-6.5,7-10,14-10,7.3,0,14.7,3.1,14.7,10ZM682.4,109c-.5-20.8-14.7-29.2-33-29.2H613.9v88.8h22.7V140.4h4l20.6,28.2h28L665,138.1c10.7-3.4,17.4-12.7,17.4-29.1Zm-32.6,12H636.6V100.7h13.2C663.9,100.7,663.9,121,649.8,121Z"/>
    </g>
    <path id="Path_3" data-name="Path 3" d="M19.32-10.164a18.281,18.281,0,0,1-.4,3.7,10.044,10.044,0,0,1-1.47,3.549A8.259,8.259,0,0,1,14.469-.252,10.2,10.2,0,0,1,9.534.8a9.976,9.976,0,0,1-6.3-1.953A9.3,9.3,0,0,1-.126-6.174L6.216-8.316a3.717,3.717,0,0,0,1.071,1.89A2.72,2.72,0,0,0,9.2-5.712,2.305,2.305,0,0,0,11.529-6.93a7.624,7.624,0,0,0,.567-3.192V-29.736H19.32Zm27.762-.378A11.3,11.3,0,0,1,46.158-5.9a10.406,10.406,0,0,1-2.52,3.528,11.536,11.536,0,0,1-3.7,2.247,12.545,12.545,0,0,1-4.494.8,12.6,12.6,0,0,1-4.473-.8,11.24,11.24,0,0,1-3.7-2.247A10.547,10.547,0,0,1,24.78-5.9a11.305,11.305,0,0,1-.924-4.641,11.159,11.159,0,0,1,.924-4.62,10.374,10.374,0,0,1,2.5-3.486,10.866,10.866,0,0,1,3.7-2.184,13.222,13.222,0,0,1,4.473-.756,13.168,13.168,0,0,1,4.494.756,11.14,11.14,0,0,1,3.7,2.184,10.238,10.238,0,0,1,2.52,3.486A11.159,11.159,0,0,1,47.082-10.542Zm-6.636,0a5.969,5.969,0,0,0-.336-1.974,5.22,5.22,0,0,0-.966-1.7,4.91,4.91,0,0,0-1.554-1.2,4.73,4.73,0,0,0-2.142-.462,4.73,4.73,0,0,0-2.142.462,4.673,4.673,0,0,0-1.533,1.2,5.128,5.128,0,0,0-.924,1.7,6.329,6.329,0,0,0-.315,1.974,6.329,6.329,0,0,0,.315,1.974,5.4,5.4,0,0,0,.945,1.743,4.651,4.651,0,0,0,1.554,1.239,4.73,4.73,0,0,0,2.142.462,4.73,4.73,0,0,0,2.142-.462,4.651,4.651,0,0,0,1.554-1.239,5.4,5.4,0,0,0,.945-1.743A6.329,6.329,0,0,0,40.446-10.542Zm18.48-17.052a3.56,3.56,0,0,1-.315,1.491,3.847,3.847,0,0,1-.84,1.2,3.873,3.873,0,0,1-1.26.8,4.09,4.09,0,0,1-1.533.294,3.859,3.859,0,0,1-2.814-1.113,3.6,3.6,0,0,1-1.134-2.667,3.673,3.673,0,0,1,.294-1.449,3.435,3.435,0,0,1,.84-1.2,4.547,4.547,0,0,1,1.26-.819,3.807,3.807,0,0,1,1.554-.315,4.09,4.09,0,0,1,1.533.294,3.873,3.873,0,0,1,1.26.8,3.847,3.847,0,0,1,.84,1.2A3.56,3.56,0,0,1,58.926-27.594ZM51.534,0V-20.916h6.888V0ZM77.616,0V-11.424a9.263,9.263,0,0,0-.147-1.68,4.631,4.631,0,0,0-.483-1.407,2.505,2.505,0,0,0-.945-.966,2.993,2.993,0,0,0-1.533-.357,3.484,3.484,0,0,0-1.617.357,3.272,3.272,0,0,0-1.155.987,4.483,4.483,0,0,0-.693,1.449,6.236,6.236,0,0,0-.231,1.7V0h-6.93V-20.916H70.56v2.9h.084a6.906,6.906,0,0,1,.987-1.323,5.926,5.926,0,0,1,1.428-1.113,8.885,8.885,0,0,1,1.785-.756A7.032,7.032,0,0,1,76.9-21.5a7.731,7.731,0,0,1,3.57.756A6.822,6.822,0,0,1,82.845-18.8a7.688,7.688,0,0,1,1.3,2.751,12.454,12.454,0,0,1,.4,3.108V0ZM107.73-15.75v7.98a3.579,3.579,0,0,0,.567,2.205,2.434,2.434,0,0,0,2.037.735,7.324,7.324,0,0,0,1.071-.084,3.675,3.675,0,0,0,.945-.252l.084,5.04a11.371,11.371,0,0,1-1.806.441A12.784,12.784,0,0,1,108.444.5a10.3,10.3,0,0,1-3.528-.525,5.47,5.47,0,0,1-2.289-1.512,5.928,5.928,0,0,1-1.239-2.352,11.4,11.4,0,0,1-.378-3.045v-8.82H97.65v-5.166h3.318v-5.5h6.762v5.5h4.914v5.166ZM129.654,0V-11.34a10.768,10.768,0,0,0-.126-1.68,3.984,3.984,0,0,0-.483-1.407,2.717,2.717,0,0,0-.945-.966,2.878,2.878,0,0,0-1.512-.357,3.263,3.263,0,0,0-2.772,1.281,5.116,5.116,0,0,0-.966,3.171V0h-6.888V-31.752h6.888V-18.27h.084a6.564,6.564,0,0,1,2.268-2.247,6.827,6.827,0,0,1,3.738-.987,7.7,7.7,0,0,1,3.591.756,6.874,6.874,0,0,1,2.352,1.953,7.688,7.688,0,0,1,1.3,2.751,12.454,12.454,0,0,1,.4,3.108V0ZM156.2-12.852a4.13,4.13,0,0,0-1.029-2.814,3.884,3.884,0,0,0-3.087-1.176,5.225,5.225,0,0,0-1.848.315,4.787,4.787,0,0,0-1.47.861,4.258,4.258,0,0,0-1.008,1.281,3.75,3.75,0,0,0-.42,1.533Zm6.342,2.646v.84a7.233,7.233,0,0,1-.042.8H147.336a3.652,3.652,0,0,0,.525,1.6A4.538,4.538,0,0,0,149-5.733a5.492,5.492,0,0,0,1.554.819,5.486,5.486,0,0,0,1.785.294,5.8,5.8,0,0,0,2.772-.609A5.484,5.484,0,0,0,156.954-6.8l4.788,3.024a9.687,9.687,0,0,1-3.885,3.3A12.857,12.857,0,0,1,152.25.672,13.379,13.379,0,0,1,147.8-.063,10.811,10.811,0,0,1,144.123-2.2a9.919,9.919,0,0,1-2.478-3.465,11.6,11.6,0,0,1-.9-4.7,11.771,11.771,0,0,1,.882-4.641,10.492,10.492,0,0,1,2.394-3.528,10.672,10.672,0,0,1,3.57-2.247,12.209,12.209,0,0,1,4.452-.8,11.268,11.268,0,0,1,4.242.777,9.234,9.234,0,0,1,3.318,2.247,10.38,10.38,0,0,1,2.163,3.57A13.739,13.739,0,0,1,162.54-10.206ZM177.408,0V-31.752h6.972V0Zm19.908-27.594A3.56,3.56,0,0,1,197-26.1a3.847,3.847,0,0,1-.84,1.2,3.873,3.873,0,0,1-1.26.8,4.09,4.09,0,0,1-1.533.294,3.859,3.859,0,0,1-2.814-1.113,3.6,3.6,0,0,1-1.134-2.667,3.673,3.673,0,0,1,.294-1.449,3.435,3.435,0,0,1,.84-1.2,4.547,4.547,0,0,1,1.26-.819,3.807,3.807,0,0,1,1.554-.315,4.09,4.09,0,0,1,1.533.294,3.873,3.873,0,0,1,1.26.8,3.847,3.847,0,0,1,.84,1.2A3.56,3.56,0,0,1,197.316-27.594ZM189.924,0V-20.916h6.888V0Zm12.432,0V-31.752h6.972V0Zm16.758-18.354h-5.292l3.024-11.382h6.09Zm34.86-3.654a6.483,6.483,0,0,0-2.415-1.869,6.813,6.813,0,0,0-2.877-.693,8.565,8.565,0,0,0-1.449.126,3.741,3.741,0,0,0-1.323.483,3.271,3.271,0,0,0-.987.924,2.46,2.46,0,0,0-.4,1.449,2.337,2.337,0,0,0,.315,1.26,2.8,2.8,0,0,0,.924.882,8.235,8.235,0,0,0,1.449.693q.84.315,1.89.651,1.512.5,3.15,1.113a11.781,11.781,0,0,1,2.982,1.617,8.488,8.488,0,0,1,2.226,2.5,7.2,7.2,0,0,1,.882,3.717,9.71,9.71,0,0,1-.945,4.431,8.836,8.836,0,0,1-2.541,3.087A10.889,10.889,0,0,1,251.2.168a15.365,15.365,0,0,1-4.242.588,17.516,17.516,0,0,1-6.174-1.113,13.081,13.081,0,0,1-4.956-3.171l4.7-4.788a8.692,8.692,0,0,0,2.877,2.247,7.808,7.808,0,0,0,3.549.9,7.142,7.142,0,0,0,1.554-.168,3.876,3.876,0,0,0,1.323-.546,2.734,2.734,0,0,0,.9-1.008,3.173,3.173,0,0,0,.336-1.512,2.392,2.392,0,0,0-.42-1.428,4.1,4.1,0,0,0-1.2-1.071,9.641,9.641,0,0,0-1.932-.882q-1.155-.4-2.625-.861a25.087,25.087,0,0,1-2.793-1.092,9.349,9.349,0,0,1-2.436-1.617,7.489,7.489,0,0,1-1.722-2.394,8.115,8.115,0,0,1-.651-3.423,8.417,8.417,0,0,1,1.008-4.242,8.762,8.762,0,0,1,2.646-2.9,11.367,11.367,0,0,1,3.7-1.659,16.758,16.758,0,0,1,4.158-.525,15.437,15.437,0,0,1,5.145.924,13.247,13.247,0,0,1,4.6,2.73ZM276.486,0V-11.34a10.77,10.77,0,0,0-.126-1.68,3.984,3.984,0,0,0-.483-1.407,2.718,2.718,0,0,0-.945-.966,2.878,2.878,0,0,0-1.512-.357,3.263,3.263,0,0,0-2.772,1.281,5.116,5.116,0,0,0-.966,3.171V0h-6.888V-31.752h6.888V-18.27h.084a6.564,6.564,0,0,1,2.268-2.247,6.828,6.828,0,0,1,3.738-.987,7.7,7.7,0,0,1,3.591.756,6.874,6.874,0,0,1,2.352,1.953,7.688,7.688,0,0,1,1.3,2.751,12.453,12.453,0,0,1,.4,3.108V0ZM303.03-12.852A4.13,4.13,0,0,0,302-15.666a3.884,3.884,0,0,0-3.087-1.176,5.225,5.225,0,0,0-1.848.315,4.787,4.787,0,0,0-1.47.861,4.257,4.257,0,0,0-1.008,1.281,3.75,3.75,0,0,0-.42,1.533Zm6.342,2.646v.84a7.237,7.237,0,0,1-.042.8H294.168a3.653,3.653,0,0,0,.525,1.6,4.538,4.538,0,0,0,1.134,1.239,5.493,5.493,0,0,0,1.554.819,5.486,5.486,0,0,0,1.785.294,5.8,5.8,0,0,0,2.772-.609A5.484,5.484,0,0,0,303.786-6.8l4.788,3.024a9.687,9.687,0,0,1-3.885,3.3A12.857,12.857,0,0,1,299.082.672a13.379,13.379,0,0,1-4.452-.735A10.811,10.811,0,0,1,290.955-2.2a9.919,9.919,0,0,1-2.478-3.465,11.6,11.6,0,0,1-.9-4.7,11.771,11.771,0,0,1,.882-4.641,10.493,10.493,0,0,1,2.394-3.528,10.672,10.672,0,0,1,3.57-2.247,12.208,12.208,0,0,1,4.452-.8,11.268,11.268,0,0,1,4.242.777,9.234,9.234,0,0,1,3.318,2.247,10.381,10.381,0,0,1,2.163,3.57A13.739,13.739,0,0,1,309.372-10.206Zm17.85-5.082a5.365,5.365,0,0,0-.9-.168q-.441-.042-.861-.042a4.906,4.906,0,0,0-2.331.5,4.746,4.746,0,0,0-1.512,1.218,4.614,4.614,0,0,0-.819,1.554,5.215,5.215,0,0,0-.252,1.47V0h-6.888V-20.916h6.636v3.024h.084a6.789,6.789,0,0,1,2.268-2.6,5.869,5.869,0,0,1,3.4-1.008,7.821,7.821,0,0,1,.819.042,3.154,3.154,0,0,1,.651.126ZM357,0V-11.424a11.179,11.179,0,0,0-.126-1.7,4.061,4.061,0,0,0-.462-1.407,2.657,2.657,0,0,0-.9-.945,2.765,2.765,0,0,0-1.491-.357,3,3,0,0,0-1.533.378,3.412,3.412,0,0,0-1.092,1.008A4.411,4.411,0,0,0,350.742-13a6.822,6.822,0,0,0-.21,1.7V0h-6.888V-11.928a5.013,5.013,0,0,0-.714-2.856,2.546,2.546,0,0,0-2.268-1.05,2.915,2.915,0,0,0-2.541,1.3,5.464,5.464,0,0,0-.9,3.192V0h-6.93V-20.916h6.678v2.9h.084a7.3,7.3,0,0,1,.945-1.3,6,6,0,0,1,1.365-1.113,7.645,7.645,0,0,1,1.785-.777,7.552,7.552,0,0,1,2.163-.294,7.475,7.475,0,0,1,3.843.924,6.333,6.333,0,0,1,2.457,2.646,7.964,7.964,0,0,1,2.688-2.6,7.728,7.728,0,0,1,3.99-.966,7.528,7.528,0,0,1,3.591.777,6.68,6.68,0,0,1,2.331,2.016,8.37,8.37,0,0,1,1.281,2.772,11.894,11.894,0,0,1,.4,3V0Zm24.444-9.114h-.882q-1.134,0-2.289.1a9.415,9.415,0,0,0-2.058.4,3.806,3.806,0,0,0-1.491.861,1.977,1.977,0,0,0-.588,1.491,1.809,1.809,0,0,0,.273,1.008,2.117,2.117,0,0,0,.693.672,2.941,2.941,0,0,0,.966.357,5.56,5.56,0,0,0,1.05.105,4.257,4.257,0,0,0,3.213-1.155A4.319,4.319,0,0,0,381.444-8.4ZM368.8-18.06a12.062,12.062,0,0,1,4.3-2.646,14.751,14.751,0,0,1,5.019-.882,13.416,13.416,0,0,1,4.473.651,6.665,6.665,0,0,1,2.961,2.016,8.6,8.6,0,0,1,1.659,3.444,20.35,20.35,0,0,1,.525,4.935V0h-6.3V-2.226h-.126A5.183,5.183,0,0,1,378.9-.21,8.584,8.584,0,0,1,375.4.5a10.723,10.723,0,0,1-2.6-.336,7.627,7.627,0,0,1-2.457-1.092,5.914,5.914,0,0,1-1.827-2.016,6.223,6.223,0,0,1-.714-3.108A5.277,5.277,0,0,1,369.033-9.7a8.13,8.13,0,0,1,3.192-2.142,16.911,16.911,0,0,1,4.347-1.008,44.536,44.536,0,0,1,4.662-.252v-.336a2.565,2.565,0,0,0-1.092-2.289,4.705,4.705,0,0,0-2.688-.735,6.692,6.692,0,0,0-2.835.63,9.049,9.049,0,0,0-2.331,1.512ZM406.6,0V-11.424a9.264,9.264,0,0,0-.147-1.68,4.631,4.631,0,0,0-.483-1.407,2.505,2.505,0,0,0-.945-.966,2.993,2.993,0,0,0-1.533-.357,3.484,3.484,0,0,0-1.617.357,3.272,3.272,0,0,0-1.155.987,4.483,4.483,0,0,0-.693,1.449,6.236,6.236,0,0,0-.231,1.7V0h-6.93V-20.916h6.678v2.9h.084a6.9,6.9,0,0,1,.987-1.323,5.925,5.925,0,0,1,1.428-1.113,8.885,8.885,0,0,1,1.785-.756,7.032,7.032,0,0,1,2.058-.294,7.731,7.731,0,0,1,3.57.756,6.822,6.822,0,0,1,2.373,1.953,7.688,7.688,0,0,1,1.3,2.751,12.454,12.454,0,0,1,.4,3.108V0Zm49.182-4.116a14.154,14.154,0,0,1-4.872,3.591A15.926,15.926,0,0,1,444.234.8a17.424,17.424,0,0,1-6.363-1.134,14.948,14.948,0,0,1-5.061-3.213,14.879,14.879,0,0,1-3.36-4.977,16.315,16.315,0,0,1-1.218-6.384,16.294,16.294,0,0,1,1.239-6.468,14.388,14.388,0,0,1,3.423-4.935,15.16,15.16,0,0,1,5.124-3.129,18.071,18.071,0,0,1,6.342-1.092,17.919,17.919,0,0,1,6.195,1.113,11.863,11.863,0,0,1,4.935,3.255l-4.872,4.872a6.03,6.03,0,0,0-2.646-2.058,8.776,8.776,0,0,0-3.36-.672,8.51,8.51,0,0,0-3.465.693,8.128,8.128,0,0,0-2.709,1.911,8.706,8.706,0,0,0-1.764,2.877,10.154,10.154,0,0,0-.63,3.633,10.45,10.45,0,0,0,.63,3.7,8.607,8.607,0,0,0,1.743,2.877,7.849,7.849,0,0,0,2.667,1.869,8.48,8.48,0,0,0,3.4.672,7.915,7.915,0,0,0,3.738-.84,7.248,7.248,0,0,0,2.562-2.184Zm24.36-6.426A11.305,11.305,0,0,1,479.22-5.9a10.406,10.406,0,0,1-2.52,3.528A11.536,11.536,0,0,1,473-.126a12.545,12.545,0,0,1-4.494.8,12.6,12.6,0,0,1-4.473-.8,11.24,11.24,0,0,1-3.7-2.247,10.547,10.547,0,0,1-2.5-3.528,11.305,11.305,0,0,1-.924-4.641,11.159,11.159,0,0,1,.924-4.62,10.374,10.374,0,0,1,2.5-3.486,10.866,10.866,0,0,1,3.7-2.184,13.222,13.222,0,0,1,4.473-.756,13.168,13.168,0,0,1,4.494.756,11.14,11.14,0,0,1,3.7,2.184,10.238,10.238,0,0,1,2.52,3.486A11.159,11.159,0,0,1,480.144-10.542Zm-6.636,0a5.969,5.969,0,0,0-.336-1.974,5.22,5.22,0,0,0-.966-1.7,4.91,4.91,0,0,0-1.554-1.2,4.73,4.73,0,0,0-2.142-.462,4.73,4.73,0,0,0-2.142.462,4.674,4.674,0,0,0-1.533,1.2,5.128,5.128,0,0,0-.924,1.7,6.329,6.329,0,0,0-.315,1.974,6.329,6.329,0,0,0,.315,1.974,5.4,5.4,0,0,0,.945,1.743,4.651,4.651,0,0,0,1.554,1.239,4.73,4.73,0,0,0,2.142.462,4.73,4.73,0,0,0,2.142-.462,4.651,4.651,0,0,0,1.554-1.239,5.4,5.4,0,0,0,.945-1.743A6.329,6.329,0,0,0,473.508-10.542ZM511.224,0V-11.424a11.179,11.179,0,0,0-.126-1.7,4.061,4.061,0,0,0-.462-1.407,2.657,2.657,0,0,0-.9-.945,2.765,2.765,0,0,0-1.491-.357,3,3,0,0,0-1.533.378,3.412,3.412,0,0,0-1.092,1.008A4.411,4.411,0,0,0,504.966-13a6.822,6.822,0,0,0-.21,1.7V0h-6.888V-11.928a5.013,5.013,0,0,0-.714-2.856,2.546,2.546,0,0,0-2.268-1.05,2.915,2.915,0,0,0-2.541,1.3,5.464,5.464,0,0,0-.9,3.192V0h-6.93V-20.916h6.678v2.9h.084a7.3,7.3,0,0,1,.945-1.3,6,6,0,0,1,1.365-1.113,7.645,7.645,0,0,1,1.785-.777,7.552,7.552,0,0,1,2.163-.294,7.475,7.475,0,0,1,3.843.924,6.333,6.333,0,0,1,2.457,2.646,7.964,7.964,0,0,1,2.688-2.6,7.728,7.728,0,0,1,3.99-.966,7.528,7.528,0,0,1,3.591.777,6.68,6.68,0,0,1,2.331,2.016,8.368,8.368,0,0,1,1.281,2.772,11.894,11.894,0,0,1,.4,3V0Zm38.808,0V-11.424a11.171,11.171,0,0,0-.126-1.7,4.061,4.061,0,0,0-.462-1.407,2.656,2.656,0,0,0-.9-.945,2.765,2.765,0,0,0-1.491-.357,3,3,0,0,0-1.533.378,3.411,3.411,0,0,0-1.092,1.008A4.411,4.411,0,0,0,543.774-13a6.821,6.821,0,0,0-.21,1.7V0h-6.888V-11.928a5.013,5.013,0,0,0-.714-2.856,2.546,2.546,0,0,0-2.268-1.05,2.915,2.915,0,0,0-2.541,1.3,5.464,5.464,0,0,0-.9,3.192V0h-6.93V-20.916H530v2.9h.084a7.3,7.3,0,0,1,.945-1.3,6,6,0,0,1,1.365-1.113,7.644,7.644,0,0,1,1.785-.777,7.552,7.552,0,0,1,2.163-.294,7.475,7.475,0,0,1,3.843.924,6.334,6.334,0,0,1,2.457,2.646,7.964,7.964,0,0,1,2.688-2.6,7.727,7.727,0,0,1,3.99-.966,7.528,7.528,0,0,1,3.591.777,6.679,6.679,0,0,1,2.331,2.016,8.368,8.368,0,0,1,1.281,2.772,11.892,11.892,0,0,1,.4,3V0ZM575.9,0V-2.9h-.084a5.92,5.92,0,0,1-.987,1.344,6.222,6.222,0,0,1-1.428,1.092A8.741,8.741,0,0,1,571.6.294a7.245,7.245,0,0,1-2.079.294,7.6,7.6,0,0,1-3.549-.756,6.874,6.874,0,0,1-2.352-1.953,7.7,7.7,0,0,1-1.3-2.73,12.372,12.372,0,0,1-.4-3.129V-20.916h6.93v11.34a10.77,10.77,0,0,0,.126,1.68,4.2,4.2,0,0,0,.483,1.428,2.669,2.669,0,0,0,.945.987,2.97,2.97,0,0,0,1.554.357,3.152,3.152,0,0,0,2.751-1.344,5.337,5.337,0,0,0,.945-3.15v-11.3h6.888V0ZM601.65,0V-11.424a9.267,9.267,0,0,0-.147-1.68,4.631,4.631,0,0,0-.483-1.407,2.505,2.505,0,0,0-.945-.966,2.993,2.993,0,0,0-1.533-.357,3.484,3.484,0,0,0-1.617.357,3.273,3.273,0,0,0-1.155.987,4.483,4.483,0,0,0-.693,1.449,6.236,6.236,0,0,0-.231,1.7V0h-6.93V-20.916h6.678v2.9h.084a6.906,6.906,0,0,1,.987-1.323,5.927,5.927,0,0,1,1.428-1.113,8.886,8.886,0,0,1,1.785-.756,7.032,7.032,0,0,1,2.058-.294,7.732,7.732,0,0,1,3.57.756,6.822,6.822,0,0,1,2.373,1.953,7.688,7.688,0,0,1,1.3,2.751,12.454,12.454,0,0,1,.4,3.108V0Zm19.614-27.594a3.56,3.56,0,0,1-.315,1.491,3.847,3.847,0,0,1-.84,1.2,3.872,3.872,0,0,1-1.26.8,4.091,4.091,0,0,1-1.533.294,3.859,3.859,0,0,1-2.814-1.113,3.6,3.6,0,0,1-1.134-2.667,3.673,3.673,0,0,1,.294-1.449,3.436,3.436,0,0,1,.84-1.2,4.547,4.547,0,0,1,1.26-.819,3.807,3.807,0,0,1,1.554-.315,4.091,4.091,0,0,1,1.533.294,3.872,3.872,0,0,1,1.26.8,3.847,3.847,0,0,1,.84,1.2A3.56,3.56,0,0,1,621.264-27.594ZM613.872,0V-20.916h6.888V0ZM633.7-15.75v7.98a3.579,3.579,0,0,0,.567,2.205,2.434,2.434,0,0,0,2.037.735,7.323,7.323,0,0,0,1.071-.084,3.675,3.675,0,0,0,.945-.252l.084,5.04a11.371,11.371,0,0,1-1.806.441A12.785,12.785,0,0,1,634.41.5a10.3,10.3,0,0,1-3.528-.525,5.47,5.47,0,0,1-2.289-1.512,5.928,5.928,0,0,1-1.239-2.352,11.4,11.4,0,0,1-.378-3.045v-8.82h-3.36v-5.166h3.318v-5.5H633.7v5.5h4.914v5.166Zm19.95,18.9a18.271,18.271,0,0,1-1.407,2.919,8.789,8.789,0,0,1-1.848,2.184,7.3,7.3,0,0,1-2.52,1.365,11.313,11.313,0,0,1-3.423.462,16.416,16.416,0,0,1-1.995-.126,12.354,12.354,0,0,1-1.785-.336l.756-5.8a7.617,7.617,0,0,0,1.113.273,6.6,6.6,0,0,0,1.113.105,3.111,3.111,0,0,0,2.31-.735,5.953,5.953,0,0,0,1.218-2.079l.672-1.722-8.736-20.58h7.644l4.662,13.44h.126l4.158-13.44h7.308Z" transform="translate(724 486)"/>
  </g>
</svg>
