<?xml version="1.0" encoding="utf-8"?>
<!-- Generator: Adobe Illustrator 23.0.4, SVG Export Plug-In . SVG Version: 6.00 Build 0)  -->
<svg version="1.1" id="Layer_1" xmlns="http://www.w3.org/2000/svg" xmlns:xlink="http://www.w3.org/1999/xlink" x="0px" y="0px"
	 viewBox="0 0 1240.7 746.5" style="enable-background:new 0 0 1240.7 746.5;" xml:space="preserve">
<style type="text/css">
	.st0{fill:#FFFFFF;}
	.st1{fill:#0F0F0F;}
	.st2{fill:#DBE6E6;}
	.st3{fill:#E0EDED;}
	.st4{fill:#E4F4F4;}
	.st5{fill:#EBF9F9;}
	.st6{fill:#BBBBBB;}
	.st7{fill:#404040;}
	.st8{fill:#818181;}
	.st9{fill:#8B8B8B;}
	.st10{fill:#969696;}
	.st11{fill:#D3D3D3;}
	.st12{fill:#808080;}
	.st13{fill:#BDBDBD;}
	.st14{fill:#CCCCCC;}
	.st15{fill:#4E4E4E;}
	.st16{fill:#343434;}
	.st17{fill:#EEB9B9;}
	.st18{fill:#383838;}
	.st19{fill:#9BB1B1;}
	.st20{fill:#A2A2A2;}
	.st21{fill:#627171;}
	.st22{fill:#ADC3C3;}
	.st23{fill:#756161;}
	.st24{fill:#4F4F4F;}
	.st25{fill:#3E3232;}
	.st26{fill:#3C3C3C;}
	.st27{fill:#484848;}
	.st28{fill:#828282;}
	.st29{fill:#686868;}
	.st30{fill:#6B6B6B;}
	.st31{fill:#636363;}
	.st32{fill:#424242;}
	.st33{fill:#CACACA;}
	.st34{fill:#ADADAD;}
	.st35{fill:#C8C8C8;}
	.st36{fill:#C7C7C7;}
	.st37{fill:#B8B8B8;}
	.st38{fill:#C2C2C2;}
	.st39{fill:#414141;}
	.st40{fill:#B5B5B5;}
	.st41{fill:#4D4D4D;}
	.st42{fill:#363636;}
	.st43{fill:#525252;}
	.st44{fill:#333333;}
	.st45{fill:#303030;}
	.st46{fill:#202020;}
	.st47{fill:#3D3D3D;}
	.st48{fill:#4A4A4A;}
	.st49{fill:#929292;}
	.st50{fill:#6E6E6E;}
	.st51{fill:#313131;}
	.st52{fill:#ACACAC;}
	.st53{fill:#FCFCFC;}
	.st54{fill:#FEFEFE;}
	.st55{fill:#FDFDFD;}
	.st56{fill:#F8F8F8;}
	.st57{fill:#F7F7F7;}
	.st58{fill:#D9D9D9;}
	.st59{fill:#EDEDED;}
	.st60{fill:#ECECEC;}
	.st61{fill:#757575;}
	.st62{fill:#B4B4B4;}
	.st63{fill:#B9B9B9;}
	.st64{fill:#B7B7B7;}
	.st65{fill:#B2B2B2;}
	.st66{fill:#020202;}
	.st67{fill:#999999;}
	.st68{fill:#3A3A3A;}
	.st69{fill:#3B3B3B;}
	.st70{fill:#C4C4C4;}
	.st71{fill:#919191;}
	.st72{fill:#9B9B9B;}
	.st73{fill:#C6C6C6;}
	.st74{fill:#C3C3C3;}
	.st75{fill:#AFAFAF;}
	.st76{fill:#6C6C6C;}
	.st77{fill:#B6B6B6;}
</style>
<title>LogoNew</title>
<path class="st0" d="M1240.7,543.2v203.3H434.3c0-0.2-0.1-0.3-0.1-0.5c0.2-0.3,0.5-0.5,0.8-0.6c3.4-0.5,6.9-0.1,10.3-0.2
	c1.1,0.1,2.3,0,3.4-0.3c3.3-1.7,7-2,10.5-3c19.7-5.7,37.3-15.4,54-27.1c3.8-2.6,7.5-5.3,11.1-8.2c0.7-0.6,1.5-1.4,2.5-1
	c1.2,0.5,1,1.7,1,2.8c0,2.8,0,5.6,0,8.3c0,1.8-0.7,3-2.7,3c-5.2,0.2-7.9,2.7-8.2,7.3c-0.3,5.5,2.4,9.2,7.4,9.9
	c3.6,0.5,7.3-0.4,10.9-0.6c6.5-0.5,13-0.5,19.5,0.1c2.2,0.2,4.4,0.2,6.6,0.2c3.1,0,6.1,0.1,9.2,0.5c3.7,0.5,7.3,0.1,10.2-2.6
	c1.2-1.1,2.2-0.9,3.3,0.1c2.7,2.3,5.7,2.7,9.1,2.3c4-0.5,8.1-0.5,12.1,0.1c2,0.4,4.1,0.1,5.9-0.7c1.7-1,3.8-1,5.5,0
	c1.8,0.8,3.7,1.1,5.6,0.7c4.4-0.6,8.8-0.6,13.2,0c7.4,0.9,11.9-5.1,9.2-12c-0.6-1.8-2.1-3.1-3.9-3.5c-2.7-0.6-3.4-2.3-3.4-4.8
	c0.1-4.5-0.3-9-0.4-13.5c-0.5-15-14-20.6-25.9-15.3c-2.6,1.1-4.7,2-7-0.1c-0.3-0.3-0.7-0.4-1.1-0.4c-5,0.3-9.9-0.2-14.9,0.2
	c-2,0.1-3.4,1.6-4.5,3.3c-0.5,0.8-1.1,2-2.1,1.7c-1.2-0.3-1-1.7-1-2.8c-0.2-2.7-0.1-5.3,0.1-8c1-7.5-3.5-9.5-9.3-9.5
	c-1.1,0-2.3,0.4-3.4,0.4c-1.4-0.2-3.4,0.6-4-1.2c-0.5-1.5,1.2-2.5,2.2-3.5c4.2-4.4,7.9-9.1,11.7-13.7c0.8-0.9,1.4-2.1,2.8-2.2
	c3.2,0.9,6.2,2.5,9.4,3.5c12.6,3.8,24.8,2.6,36.8-2.2c1.1-0.4,2.1-0.9,3.2-1.2c1.5-0.5,2.7-0.2,3.2,1.4c1.1,3.1,3.6,4.2,6.6,4.2
	c9.8,0.3,19.5,0.2,29.3,0c3.2,0,4.9-2.2,6.2-4.9c0.4-0.6,1.1-0.9,1.8-0.7c2.7,2,5.8,2.8,9.1,3.3c9.5,1.5,18.9,3.2,28.4,4.9
	c0.8,0.1,1.5,0.3,2.3,0.3c4.9,0.5,7.7-2.3,7.3-7.2c-0.2-1.5-0.3-3.1-0.3-4.6c0.2-2.6,1-3.2,3.5-2.7c2.2,0.5,4.3,1.1,6.4,1.6
	c28.8,6.8,62.7-5.5,77.9-36.2c6-12.3,8.5-26,7.3-39.7c-0.8-10-2.5-19.8-6.8-29c-9.6-20.3-25.9-31.5-48-34.5
	c-12.5-1.7-24.7,0-36.8,3.2c-4.9,1.3-5.8,0.8-5.8-4.4c-0.2-14.6-0.4-29.2,0.1-43.8c0.3-10.1,0.4-20.3,1.1-30.5
	c0.3-5,0.3-10,0.9-14.9c0.6-5.4-2.4-8.6-7.8-8c-10.7,1.1-21.4,2-32,3.3c-5.7,0.7-7.4,2.5-7.2,8.3c0.5,14.9,1,29.7,1.3,44.6
	c0.1,5.8,0.3,11.5,0.4,17.2c0.8,28.9,0.8,57.7,0.5,86.6c-0.2,17.7-0.7,35.5-1.2,53.2c-0.2,5.9,0,11.9-0.7,17.8
	c-0.3,1.1-0.4,2.2-0.5,3.3c-0.1,0.9,0,2-1.4,2c-1.8-3.8-1.5-8.1-1.8-12.1c-0.8-13.7-1.6-27.4-1.1-41.1c0.6-18.3,0.3-36.6,0.3-54.9
	c0.1-13.8-2-27.6-6.2-40.8c-3.5-11-9.5-20.5-18.9-27.5c-7.5-5.6-16.3-7.4-25.3-8.4c-3.9-0.1-5.3-2.5-6.5-5.9
	c-6.7-19.5-17.5-37.3-31.6-52.3c-2.2-2.4-4.2-5-6.9-7c-1.2-1.1-2.1-2.5-2.6-4.1c-2.1-5.5-4.8-10.7-7.2-16
	c-2.9-6.3-7.8-10.5-13.5-14.1c-6.8-4-13.8-7.7-20.9-10.9c-5.5-2.7-11.1-5.3-16.7-7.8c-5.5-2.5-11.2-4.6-17-6.2
	c-2.4-0.6-3.7-1.9-4-4.5c-0.8-7.4-2.6-14.6-5.4-21.4c-2.3-6.2-7.6-10.7-14.1-12c-2.6-0.6-4-1.7-4.3-4.5c-1.3-14.6,1-28.2,10.9-39.6
	c4.9-5.6,11.5-8.4,19-9.3c10-1.2,19.2,1.1,28.1,5.4c11,5.3,21.3,11.9,31.7,18.2c13.4,8.1,26.9,16,41.5,21.7
	c12.1,4.8,24.6,8.1,37.8,7.6c17.8-0.7,31.8-8.6,41.5-23.3c10-15.2-2.3-26.2-14.9-27.1c-3.8-0.3-7.5,0.4-11.2,0.6
	c-8.4,0.6-16.3-1.3-24.1-4.4c-5.8-2.3-9.8-6.7-13.5-11.4c-7.8-9.8-12.5-21.6-13.7-34c-0.7-7.2-0.2-14.4-0.4-21.6c0-0.2,0-0.4,0-0.6
	c0.1-0.8,0-1.7,0.9-2s1.2,0.7,1.6,1.3c0.8,1.2,1.3,2.6,2.1,3.8c11.2,18.8,28,30.4,48.4,37.3c10.9,3.8,22.5,5.3,34,4.5
	c14.1-1,26.5-5.8,36.3-16.5c6.8-7.5,7.6-18.3,2.6-25.2c-3-4.1-7.2-6.5-12-7.9c-5.6-1.5-11.5-1.7-17.1-0.4c-5,1-9.9,2.5-14.8,3.6
	c-19,4.2-36.6,0.8-52.7-10.1c-0.5-0.3-0.9-0.7-1.4-1.1c-1.1-1.1-0.8-1.9,0.7-2.1c1.8-0.3,3.6-0.5,5.4-0.8c4.5-0.8,8.7-2.3,12.3-5.2
	c6.8-5.6,8.5-13.1,6.8-21.3c-1.7-8.6-6.3-16.1-11.5-23c-9.6-12.7-18.2-26.1-26.6-39.7c-12.7-20.6-29.1-37.6-50.1-49.9
	c-2.7-1.6-5.6-3-8.5-4.3c-2-1-2.8-2.2-2.3-4.5c0.8-4.1-1.4-6.9-4.4-9.3c-2.8-2.2-6.3-2.1-9.4-3.5c-0.2-0.2-0.3-0.6-0.1-0.8h696.4
	v531.1c-0.3,0.2-0.7,0.1-0.9-0.2c0,0,0,0,0,0c-1.2-3.9-1.6-8.1-2.8-12c-3.6-13-10.2-24-21.8-31.4c-10.2-6.5-21.3-8.2-33.2-5.8
	c-1.3,0.3-2.6,0.6-3.9,1c-4,0.9-4.5,0.5-4.5-3.7c0-1.2,0-2.5-0.1-3.7c-0.7-5.2-3.5-7.2-8.6-6c-9.7,2.5-19.3,5-28.9,7.7
	c-3.8,1.1-5.3,3-5.1,6.9c0.5,10,1.5,19.9,2.2,29.8c0.5,7.5,0.9,14.9,1.3,22.4c0.8,12.7,0.9,25.5,1.7,38.2c0,0.6,0,1.2,0.1,1.7
	c0.4,24.2,0.8,48.3,0.6,72.5c-0.1,8.2,1.9,9.9,10,8.9c9.3-1.2,18.7-2.3,28-3.4c7.8-0.9,9.3-3,8.1-10.8c-2.7-17.7-4.8-35.5-6.4-53.4
	c-1.6-18.6-3-37.3-2.8-56c0-3.6,1.2-6,4.4-7.6c3-1.4,5.8-2.9,9.2-2.9c4,0,6.7,1.7,8.7,5.1c3.3,5.4,3.7,11.4,4.2,17.4
	c0.1,1,0,1.9,0,2.9c0.3,5.3,3.2,7.7,8.4,6.5c5.6-1.2,11.1-3.1,16.6-4.8c2.8-0.9,5.6-2,8.5-2.8c2.5-0.6,4.7-2.2,6.2-4.4
	C1240.2,543.1,1240.5,543.1,1240.7,543.2z"/>
<path class="st0" d="M31.7,746.5H0V0h531.6c0.2,0.2,0.2,0.6-0.1,0.8c-1.1,0.7-2.2,1.1-3.5,1.3c-2.7,0.8-5.3,1.8-6.7,4.6
	c-0.5,1.1-1.5,1.3-2.7,1.2c-13.6-1-27,0.6-40.3,3.4c-18.4,3.8-36.5,9.4-53.8,16.7c-11.1,4.8-21,11.3-27.5,21.9
	c-5.3,8.6-6.3,17.8-3.8,27.7c5,19.6,17.6,32.3,36,39.7c1.1,0.4,2.1,0.8,3.2,1.3c0.9,0.4,2.1,0.5,2.2,1.6s-1,1.6-1.8,2
	c-5.8,3.4-11.4,7-17.3,10.4c-7.7,4.7-16,8.4-24.7,10.9c-5.1,1.4-9.3-0.1-12.9-3.5c-6.8-6.5-9.4-14.9-10.5-24
	c-1.4,2.1-2.6,4.3-3.6,6.6c-0.6,0.9-1,2-1.4,3c-1,2.3-1.8,4.8-2.2,7.3c-3.3,15.2-2.5,30.5-0.1,45.8c2.8,17.5,7.8,34.4,12.3,51.5
	c3.3,12.5,5.5,25.3,6.6,38.2c1.8,20.8,1.8,41.6,1.4,62.4c-0.2,13.2-1.3,26.4-2.6,39.6c-1.7,17.9-4,35.7-7,53.3
	c-5.4,30.5-13.5,60.6-24,89.7c-7.5,21.1-16.4,41.6-26.4,61.6c-10,20.1-21.3,39.6-33.7,58.3c-4.8,7.2-10.2,13.9-17.2,19.2
	c-1.1,0.8-2.2,1.6-3.4,2.1c-4.7,2.2-7.9,1.7-11.5-2c-6.2-6.3-8.8-14.3-10.3-22.7c-3.9-21.6-0.9-42.6,5.2-63.3
	c0.6-1.6,1.3-3.2,1.9-4.8c0.4-1,0.7-2,1.2-3c0.2-0.5,0.5-0.9,0.7-1.3s0.4-0.9,0.6-1.4c0.5-1.3,1-2.6,1.7-3.9
	c0.6-1.1,1.2-2.3,1.8-3.4c0.2-0.3,0.1,0.1,0.1-0.2c-0.1-0.5-0.3,0.1-0.5,0.1l-0.8,0.9c-0.5,0.5-1,1.1-1.5,1.6
	c-5.8,5.4-11.6,10.7-16.3,17c-15.1,20.3-26.4,43.2-33.2,67.5c-3.6,12.9-5.8,26.2-6.6,39.7c-0.8,12,0.7,23.5,5.4,34.6
	c1,2.5,2.6,4.7,3.8,7.1c1.1,2.2,0.7,2.9-1.7,3.2c-1,0.1-1.9,0.1-2.9,0.1c-11.8,0-23.6,0.1-35.4,0c-13.3-0.2-26.7,0.5-40,0.8
	c-16.6,0.3-33.2,0.9-49.8,1.1c-6.8,0.1-13.6,0.8-20.4,0.8h-4.2c-1.6,0.2-3.3-0.4-4.6,0.3c0.7-0.6,1.9-0.1,2.9-0.2h5.5
	c50.5,1.7,101.1,0.4,151.6,0.8c2.6-0.2,5.1,0.9,6.9,2.8c2.3,2.6,5.2,4.5,8,6.6c0.7,0.5,1.6,1.1,1.4,2c-0.2,1.2-1.4,1.2-2.3,1.3
	c-0.6,0.1-1.2,0.1-1.7,0.1c-19.9-0.4-39.7,0.5-59.5,0.7c-15.8,0.2-31.6,0.7-47.4,1.2c-10.1,0.3-20.3,0.6-30.4,1.1
	c-14.7,0.7-29.5,1.5-44.2,2.6c-7.6,0.6-15.3,1.4-22.9,1.3c-2.8-0.3-5.7,0.1-8.4-0.5c1,0.3,2.1,0.2,3.1,0.5c0.7,0.1,1.5,0.1,2.2,0.2
	c2.2,0.7,4.5,0,6.6,1c2.8,1,5.7,0.2,8.5,0.5C29.8,745.2,31.3,744.7,31.7,746.5z"/>
<path class="st1" d="M250.7,566.4c-0.9,3.3-1.9,6.7-2.7,10c-2,8.4-3.3,16.9-3.9,25.6c-0.5,6.6-0.4,13.2,0.2,19.8
	c0.7,7.8,2.3,15.4,5.8,22.5c1.2,2.6,2.8,5.1,4.7,7.2c3.8,4.2,7.3,4.8,12.3,2c2.1-1.2,4-2.6,5.8-4.3c3.2-3,6.2-6.3,8.9-9.8
	c4.2-5.4,8-11,11.5-16.9c15.4-24.9,29-50.8,40.7-77.6c11.1-25.7,20.2-52.2,27.3-79.3c3.6-13.5,6.6-27.2,9.1-41
	c0.9-5,1.6-10,2.3-15.1c1.2-8.4,2.3-16.7,3.4-25.1c0.7-5.8,1.3-11.6,1.8-17.5c1.3-14.5,2.3-29.1,2.5-43.7
	c0.1-11.8,0.1-23.6-0.4-35.4c-0.4-9.8-1.3-19.5-2.1-29.3c-0.6-5.9-1.6-11.8-3.1-17.5c-2.5-11-5.7-21.9-8.6-32.8
	c-2.6-9.8-4.9-19.7-6.5-29.8c-1.7-10.3-2.3-20.8-1.9-31.3c0.3-4.7,1-9.4,2-13.9c0.1-0.3,0.2-0.5,0.3-0.8c1.6,0.4,1.1,1.7,1.3,2.7
	c-0.8,15.8,3.2,30.6,8.2,45.3c5.5,16.3,11.9,32.2,17.8,48.4c5.4,14.9,8.3,30.3,10.3,46c0.6,4.6,0.9,9.2,1.5,13.7
	c0.2,1.7,1.1,3.3,2.5,4.4c12.1,9.3,25.7,14.4,41.1,14.4c3.7,0,7.1-0.5,9.8-3.6c1.9-2.2,4.6-3.4,7.3-4.5c3.6-1.5,3.6-1.5,2.7-5.5
	c-2.4-11.3-2.2-22.6,1.8-33.5c6.2-16.9,18.3-26.8,36.2-29.4c2.7-0.4,5.5-0.6,8.2-0.6c-4.5-4-8.1-9-10.6-14.6c-1.7-3.9-2-8-2.5-12.1
	c-0.1-0.8-0.1-1.9,0.8-2.3c0.9-0.4,1.5,0.5,2,1.2c5.3,8.5,13.5,12.4,22.9,13.8c15.3,2.3,29.8-0.7,43.7-7
	c17.5-7.9,26.2-21.9,28.8-40.4c0.5-3.5,0-6.6-3-9c-5.3-4.3-10.2-9.1-15.5-13.4c-17.5-14.2-37.5-22.2-59.7-25.3
	c-6.1-1-12.4-1.5-18.6-1.6c-5.8,0.1-11.5,0.7-17.2,1.6c-13.3,2-26.5,4.8-38.9,10.2c-8.6,3.8-16.9,8.3-25.7,11.6
	c-6.4,2.4-12.9,4.5-19.7,5.1c-0.2,0-0.3,0-0.5,0l0.5,0.1c3.7,1.1,7.4,2.1,11,3.4c0.9,0.3,2.4,0.2,2.4,1.6c0,1-1.2,1.3-2.1,1.8
	c-6.9,3.7-14.1,3.3-20.8,0c-10.6-5.3-17.5-13.8-19.7-25.7c0.1-1.5-0.4-2.9-0.3-4.3c-0.2-0.4,0.3-0.8-0.2-1.1
	c0.4,0.4,0.1,0.9,0.2,1.3c0.2,2.2,0.1,4.5,0.7,6.7c1.3,9,4.7,17.3,9.3,25.1c4,6.6,7.4,13.6,10.2,20.8c0.5,1,0.8,2.2,0.7,3.3
	c-0.1,0.4-0.5,0.8-0.9,0.9c-3.3-0.6-5.7-2.9-7.8-5.1c-4.6-4.7-8.2-10.2-10.6-16.3c-2.7-7.4-5.5-14.8-6.1-22.7c0-5-0.4-10,1.2-14.9
	c1.5-4,3.1-6.7,5.3-8.8c0.1,5.9,1.4,11.6,4.1,16.9c1,2.1,2.2,4.1,3.6,5.9c1,1.4,2.3,2.6,3.6,3.7c3,2.5,7,3.4,10.8,2.3
	c4.6-1.2,9.1-2.8,13.5-4.8c5.4-2.6,10.7-5.5,15.9-8.7l13.8-8.3c0.4-0.2,0.7-0.5,0.7-0.9c-2.2-0.9-4.4-1.7-6.6-2.6
	c-5.2-2.2-10.2-4.9-14.7-8.3c-9-6.7-15.6-16.1-19.1-26.8c-1.3-3.6-2.2-7.4-2.6-11.2c-0.7-6.9,0.7-13.9,4-20c2.8-5.1,6.5-9.5,11-13.2
	c6.3-5.1,13.3-9.2,20.8-12.2c6.7-2.8,13.6-5,20.6-7.2c9-2.9,17.9-5.5,27.1-7.5c13-3,26.3-4.4,39.7-4.2c1,0,1.9,0,2.9,0.1
	s1.9,0.1,3,0.2c0.9-3.3,3.4-4.7,6.4-5.6c1.5-0.5,3.2-0.8,4.7-1.2c0.5-0.3,1-0.2,1.6-0.2s1.3,0.2,1.9-0.3h5.2
	c0.8,0.6,1.6,0.2,2.4,0.3c0.6-0.1,1.1,0,1.7,0.2c2,0.2,4,0.7,5.9,1.2c2.2,0.7,4.2,1.9,5.8,3.5c2.6,2.8,3.8,5.9,2.7,9.8
	c-0.4,1.3-0.3,1.3,0.9,1.9c21.5,10,38.6,25.2,52.6,44.1c4.6,6.2,8.6,12.7,12.6,19.2c1.3,2.1,2.7,4.2,3.9,6.4
	c3.1,5.2,6.5,10.2,10.2,15c3.4,4.5,6.8,9.1,9.9,13.8c2.7,4,5,8.2,6.9,12.6c2,4.4,2.9,9.2,2.6,14c-0.2,6.4-3.5,12.2-8.7,15.9
	c-3.6,2.5-7.7,4.1-11.9,4.6c-1,0.2-2.1,0.3-3.1,0.4c-1,0.1-2,0.1-3,0.2c0,0.3-0.1,0.4,0,0.4c5,3.8,10.3,7.1,16.2,9.1
	c7.2,2.4,14.7,3.8,22.3,4.1c6.4,0.3,12.6-0.9,18.7-2.5c4-1,8-2,12-2.9c6.2-1.4,12.7-1.1,18.8,0.9c4.2,1.3,7.8,3.8,10.5,7.2
	c4.3,5.7,5,11.9,2.6,18.5c-1.6,4.2-4.2,8-7.6,11c-5.4,5.1-11.9,8.8-19,11c-7.2,2.3-14.8,3.3-22.4,3c-18.3-0.5-35-6.1-50.3-16
	c-10.1-6.5-18.7-15.2-24.9-25.5c-0.9-1.5-1.7-3-2.5-4.5c-0.3-0.5-0.4-1-0.9-1.3c-0.4,0.1-0.3,0.4-0.3,0.7c0,5.9-0.1,11.7,0.1,17.6
	c0.1,6.3,1.1,12.6,3,18.7c2.6,8.4,7.2,15.6,12.7,22.4c4.7,5.8,11.2,9.8,18.5,11.5c4.1,1,8.3,1.7,12.5,2c2.8,0,5.6-0.1,8.3-0.6
	c3.7-0.5,7.5-0.5,11.2,0.3c4.1,0.9,7.8,2.9,10.7,5.9c4.6,4.7,5.5,10.4,3.5,16.5c-1,3-2.6,5.8-4.6,8.3c-4.9,6.1-10.9,11.1-17.7,14.9
	c-5.2,2.8-10.8,4.6-16.6,5.2c-12,1.6-23.5-0.3-34.9-3.9c-10.1-3.3-19.9-7.5-29.2-12.7c-8.7-4.6-17.1-9.8-25.6-14.9
	c-7.1-4.2-14.2-8.5-21.3-12.6c-5.1-3-10.6-5.3-16.3-7c-7.4-2.2-15.2-2.4-22.7-0.5c-5.6,1.5-10.6,4.6-14.3,9.1
	c-3.9,4.7-6.7,10.3-8.2,16.3c-2.1,7.7-2.5,15.8-1.3,23.7c0,0.7,0.5,1.3,1.2,1.3c1.3,0.2,2.6,0.5,3.9,0.9c5.9,1.6,10.6,5.9,12.8,11.6
	c3.1,7.4,5.1,15.3,5.7,23.4c0.1,1.3,0.1,1.7,1.8,2.1c8.7,2.4,17.1,5.6,25.2,9.7c7.6,3.7,15.3,7.1,22.8,11c3,1.6,6,3.3,9,5.1
	c2,1.2,3.8,2.6,5.6,4c2.7,2.1,4.9,4.7,6.4,7.6c2.8,5.2,5.4,10.6,7.5,16.1c1.2,3.1,3.1,5.9,5.5,8.2c16.1,15.8,28.5,35,36.1,56.2
	c0.7,1.8,1.3,3.6,1.9,5.4c0.2,0.7,0.8,1.1,1.5,1.1c0.9-0.1,1.7,0,2.5,0.4c-0.6,0.6-1.5,1-2.3,0.9c-5-0.1-10.1,0.4-15,1.4
	c-0.5,0.1-1,0.1-1.4-0.1c-1.1-0.4-1.4-1.5-1.7-2.5c-3-9.5-6.9-18.7-11.6-27.4c-0.2-0.3-0.4,0.3-0.2,0c0.1-0.1,0.2-0.1,0.3,0.1
	c1.7,3.9,2.2,8.1,2.6,12.3c0.7,6.6,0.6,13.2,0.7,19.8c-0.3,1.3-1.4,1.5-2.4,1.8c-2.3,0.7-4.2,2.3-6.7,2.4c-0.6-0.9-0.8-2-0.6-3
	c1.5-21.7-5-41.7-12.5-61.5c-3.2-8.4-6.6-16.6-10.5-24.6c-1.9-3.9-4.8-7.2-8.4-9.6c-8.4-5.7-17.6-9.7-26.7-14.1
	c-8-3.9-16.3-7.3-23.5-12.8c-0.5-0.3-0.9-0.7-1.3-1.2c3.4,7.8,4,16.1,4.9,24.4c1,9.4,1.8,18.9,3.3,28.3c0.9,5.9,4.2,11.2,9.2,14.5
	c16,11.1,31.1,23.4,45.3,36.7c7.3,7,14.1,14.6,20.2,22.6c0.2,0.4,0.2,0.8-0.2,1.1c-0.1,0-0.1,0.1-0.2,0.1c-3.2,1.4-5.9,3.8-9.2,5
	c-1.8-0.5-2.7-2.3-4.1-3.3c-2.5-1.7-4.2-4.2-6.2-6.3c-13.6-14.9-29.5-27.4-45.4-39.6c-1.2-1.1-2.4-2.3-4.2-2.5
	c-3.7-2.8-7.3-5.5-10.8-8.5c-0.8-1.8-2.5-3.1-3.4-4.9c-3.8-6.7-4.8-14.1-5.7-21.6c-1.4-10.7-2.3-21.5-3.4-32.3
	c-0.4-5.2-0.4-10.4-0.1-15.6c-0.1,7.2-3.1,13.3-7.3,18.8c-5.6,7.3-13.2,11.6-21.9,14c-21.9,6.1-41.3,0.9-58.4-13.6
	c-0.4-0.4-0.8-0.8-1.3-1.1c-0.2,0-0.3,0-0.5,0c-1.2,17.4-2.5,34.9-4.9,52.9c1.9-1.4,3.2-2.6,4.6-3.6c1.1-0.8,2-1.9,3.5-1.6
	c0.9,1.5,1.1,3.3,0.8,5c-1.9,1.9-4.5,2.8-6.8,4.2c-2,1.1-3.4,3.2-3.6,5.5c-2.4,16.8-5.8,33.5-10.2,49.9c-6.9,26.7-16,52.7-27.3,77.8
	c-11,24.7-24.1,48.4-39,71c-6.5,10.2-13.6,20-21.2,29.4c-0.5,0.5-1.1,1.1-1.6,1.7c-5.8,7.2-13,13.1-21.1,17.5
	c0.6,1.3,1.8,1.3,2.7,1.7c10.1,3.8,20.7,5.2,31.4,5.2c27.9,0.3,55.6-3.9,82.1-12.5c4.8-1.6,9.5-3.6,14.2-5.6c1.5-0.7,3-1.9,4.8-1.1
	c0.9,1.5,0.5,3.2,0.6,4.8c0.4,4.7,2.3,6.6,7,7c2.3,0,4.6-0.1,6.8-0.4c1.8-0.2,3.6-0.5,5.3,0.5c0.4,1.6-1,1.8-1.9,2.3
	c-18.4,8.9-38.3,14.5-58.6,16.6c-11.3,1.4-22.7,1.9-34.1,1.7c-18.3-0.6-36-3.6-52.8-11.2c-3.6-1.6-6.9-3.8-10.3-5.8
	c-1.4-0.9-3-1.2-4.6-0.9c-9.8,1.9-17.5-1.9-23.4-9.5c-6.5-8.3-9.1-18.1-10-28.3c-1.9-23.1,5.1-44.3,14.1-65c0.5-1.1,1-2.3,2.2-2.9
	C251,565.1,250.8,565.7,250.7,566.4z"/>
<path d="M1240.2,543.2c-0.3,2.6-2,3.8-4.2,4.5c-5.6,1.8-11.1,3.6-16.7,5.3c-3.7,1.2-7.3,2.2-11.1,3c-1.1,0.3-2.3,0.4-3.4,0.2
	c-2.7-0.3-4.8-2.4-5.3-5c-0.2-1.1-0.3-2.3-0.3-3.4c-0.1-3.7-0.4-7.5-1-11.2c-0.5-2.8-1.5-5.5-3-8c-2.8-4.7-5.8-5.5-11-4.3
	c-3.1,0.9-6.1,2.3-8.7,4.3c-0.6,0.4-0.9,1-0.9,1.7c0,1.9-0.1,3.8-0.1,5.8c-0.2,10,0.2,20,1,29.9c0.5,6.5,0.8,13,1.4,19.5
	c0.6,7,1.3,13.9,2.1,20.9c0.6,5.3,1.2,10.7,1.9,16c0.9,7.7,2,15.4,3.3,23.1c0.2,0.8,0.3,1.7,0.2,2.6c-0.3,2.6-1.4,5.2-5.3,6
	c-3.2,0.6-6.4,1-9.7,1.4c-5.6,0.7-11.2,1.4-16.8,2.1c-3,0.4-6.1,0.9-9.1,1.1c-3.4,0.2-6.4-1.3-7.2-5.1c-0.2-1.2-0.3-2.5-0.3-3.7
	c0.1-16,0.2-32.1-0.1-48.1c-0.3-14.1-0.6-28.2-1.1-42.3c-0.4-11.8-1-23.6-1.7-35.4c-0.6-10.8-1.5-21.6-2.3-32.5
	c-0.2-2.6-0.4-5.2-0.7-7.7c-0.1-1.2,0-2.3,0.4-3.4c0.6-2.1,2.3-3.6,4.4-4.1c6.5-1.7,13-3.4,19.4-5.1c4-1,8-2.1,12-3.1
	c3.7-0.9,6.8,1.1,7.8,4.9c0.4,1.7,0.5,3.4,0.5,5.1c0,1.4,0,2.9,0,4.1c0.8,0.6,1.3,0.1,1.8,0c2.9-0.7,5.8-1.5,8.7-2
	c5.3-0.9,10.8-0.7,16,0.6c3.1,0.6,6.1,1.5,9.1,2.7c6.3,2.8,11.9,7.1,16.3,12.5c5.8,7.1,9.9,15.4,12,24.3c1,3.5,1.6,7.1,1.9,10.8
	c0.2,0.9,0.3,1.8,0.2,2.7v2.2c0.1,0.8-0.3,1.8,0.3,2.5v2.9C1240.1,541.9,1240.6,542.7,1240.2,543.2z"/>
<path class="st2" d="M288.6,746.5H54.1c-0.2-0.4,0-0.8,0.3-0.9c0,0,0,0,0,0c1.3-0.5,2.8-0.7,4.2-0.5H284c1.4-0.2,2.9,0,4.2,0.5
	C288.6,745.7,288.7,746.1,288.6,746.5C288.6,746.5,288.6,746.5,288.6,746.5z"/>
<path class="st3" d="M288.6,746.5v-0.6c1.1-1,2.5-0.9,3.8-0.9c29.3,0,58.7,0,88.1,0c1.2-0.1,2.3,0.1,3.4,0.5c0.4,0.2,0.5,0.6,0.4,1
	c0,0,0,0,0,0L288.6,746.5z"/>
<path class="st4" d="M384.2,746.5v-0.6c1.1-1,2.5-0.9,3.8-0.9c14.1,0,28.3,0,42.4,0c1.3,0,2.7-0.1,3.8,0.8c0,0.2,0,0.4,0.1,0.7
	H384.2z"/>
<path class="st5" d="M54.1,745.9v0.6H31.7c-0.6-0.7-1.4-0.5-2.1-0.5c-2.7,0-5.5,0-8.2,0c-0.7,0-1.3,0-1.8-0.7
	c3.5-1.6,7.2-1,10.7-0.7c6.6,0.5,13.2,0.3,19.8,0.5C51.5,745,53,744.8,54.1,745.9z"/>
<path class="st6" d="M1240.2,533.9V531c0.2-0.1,0.3-0.1,0.5,0v2.9C1240.5,534.2,1240.3,534.2,1240.2,533.9z"/>
<path class="st7" d="M1240.7,538.6c-0.8-0.7-0.5-1.5-0.5-2.4c0.2-0.2,0.4-0.2,0.5,0.1V538.6z"/>
<path class="st8" d="M1240.7,536.2c-0.2,0-0.3,0-0.5-0.1c0-0.8,0-1.5,0-2.3c0.2,0,0.3,0,0.5,0L1240.7,536.2z"/>
<path class="st9" d="M542.6,0.5c-0.8,0.3-1.7,0.1-2.3-0.5h2.3c0.2,0.1,0.2,0.2,0.2,0.3S542.7,0.5,542.6,0.5z"/>
<path class="st10" d="M1240.2,543.2c-0.3-0.6-0.1-1.4,0.5-1.8v1.7l-0.2,0.1L1240.2,543.2z"/>
<path class="st11" d="M542.6,0.5c0-0.2,0-0.3,0-0.5h1.7c0,0.2,0,0.3,0,0.5L542.6,0.5z"/>
<path class="st12" d="M535.1,0c-0.4,0.5-1.1,0.7-1.8,0.5c-0.2-0.1-0.2-0.2-0.1-0.3s0.1-0.1,0.2-0.1L535.1,0z"/>
<path class="st13" d="M533.4,0c0,0.2,0,0.3,0,0.5h-1.7c0-0.2,0-0.3,0-0.5L533.4,0z"/>
<path class="st1" d="M54.1,745.9c-0.4-0.1-0.8-0.1-1.1-0.2c-11.2,0.1-22.3-0.2-33.4-0.5c-1-0.5-2.2-0.3-3.3-0.4c-1,0-2.1-0.2-3-0.7
	c-0.4-0.3-0.4-0.9-0.1-1.2c1-0.4,2.1,0.1,3.1-0.4c5.2-0.3,10.3-0.5,15.5-0.8c3.6-0.2,7.3-0.6,10.9-0.8c11.6-0.8,23.2-1.5,34.8-2
	c16.2-0.7,32.4-1.2,48.6-1.7c21.3-0.7,42.6-1,63.9-1.4c10.7-0.2,21.5-0.3,32.2-0.4c0.8,0,1.5,0,2.3-0.1c0.1,0,0.2-0.1,0.2-0.2
	s0-0.4,0-0.5c-0.4-0.3-0.8-0.5-1.2-0.8c-3.4-2.1-6.5-4.7-9.3-7.7c-0.9-1.1-2.3-1.7-3.8-1.6c-17.1,0-34.2-0.1-51.2-0.1l-81.2,0
	c-5.3,0-10.6-0.2-15.8-0.7c-1.7-0.2-3.4-0.2-5.2-0.3c-0.3-0.5,0-0.7,0.3-0.9c10.4-0.8,20.9-1.2,31.3-1.4s21.1-0.2,31.7-0.6
	c11.2-0.5,22.4-0.5,33.7-0.8c4.6-0.1,9.2-0.1,13.8-0.1h37.4c0.9,0.1,1.9,0.1,2.8-0.2c0.2-0.6-0.2-0.9-0.4-1.3
	c-6-9.1-8.9-19.2-9.7-30c-0.5-8.6-0.1-17.3,1.1-25.8c1.6-12.8,4.5-25.3,8.7-37.5c6.3-18.3,15.1-35.7,26-51.7
	c5.9-8.6,13.1-16.4,21.2-23c0.7-0.1,0.8,0.4,0.8,0.9c-5.4,8.8-10.3,18-14.6,27.4c-11.2,22.9-18.3,47.6-21.1,72.9
	c-1.6,14-0.3,28.1,3.8,41.5c4.6,15,13.4,26.3,26.8,34.6c7.3,4.7,15.8,7.1,24.5,6.9c51.9-0.3,103.8-0.2,155.7-0.1
	c6.5,0,13-1.5,18.8-4.3c20.8-9.8,39.5-22.7,56.9-37.8c3.3-2.9,6.5-5.9,9.6-9.1c0.5,0.1,0.9,0.5,1,1c1.2,4.1,4.2,5.7,8.2,5.8
	c1.1-0.2,2.1,0.6,2.3,1.6c0,0.2,0,0.4,0,0.7c-0.2,8.4,1.1,16.8,0.6,25.2c0,1-0.2,2-1.2,2.4c-0.8,0.3-1.7,0.4-2-0.8
	c0.3,0,0.6,0,0.9,0c0.5,0,0.9-0.1,1-0.7c0-0.2,0-0.4,0-0.6c0-3.7,0-7.5,0-11.2c0-0.2,0-0.6-0.3-0.7c-0.3-0.1-0.6,0-0.8,0.2
	c-5.2,4.4-10.8,8.2-16.4,12.1c-5.8,4-11.7,7.6-17.9,10.9c-6.2,3.4-12.6,6.4-19.2,9c-5.2,2-10.4,3.7-15.8,5.1
	c-2.5,0.6-5.1,0.9-7.4,2.2c-3.8,0.7-7.6,0.1-11.4,0.3c-1.2,0.1-2.5-0.3-3.7,0.2l0,0c-0.8-0.2-1.7-0.3-2.6-0.2c-15,0-29.9,0-44.9,0.1
	c-0.9,0-1.7,0.1-2.6,0.2s-1.9-0.2-2.9-0.2c-30.1,0-60.1,0-90.2,0c-0.9,0-1.7,0.1-2.6,0.2c-1,0-2.1-0.1-3.1-0.1H62.5
	C59.7,745.7,56.9,745.7,54.1,745.9z"/>
<path d="M907.1,498.1c0.1-0.1,0.2-0.1,0.2-0.1c-0.1-1.6-0.1-3.3-0.3-4.9c-0.6-6.3-1.4-12.6-1.9-18.9c-0.3-4,1.5-6.8,5.5-7.5
	c1.6-0.3,3.2-0.5,4.9-0.6c4.1-0.3,8.2-0.5,12.3-0.8l1.2-0.1c3-0.3,2.7-0.1,3-3c0.7-7.1,1.4-14.1,2.1-21.2c0.3-3.1,0.5-6.3,0.8-9.5
	c0.1-1,0.2-1.9,0.4-2.8c1-4,3.4-5.8,7.5-5.5c3,0.2,5.9,0.6,8.9,0.9c5.9,0.7,11.8,1.4,17.7,2.1c1.2,0.1,2.5,0.3,3.7,0.6
	c2.3,0.5,4.1,2.3,4.5,4.6c0.3,1.2,0.4,2.5,0.3,3.7c-0.5,5.1-1,10.3-1.5,15.5c-0.3,3.4-0.7,6.9-1,10.3c-0.1,1.2,0.1,1.3,1.3,1.3
	c5.7-0.4,11.3-0.8,17-1.2c2-0.3,4-0.2,6,0.2c2.2,0.6,3.9,2.3,4.4,4.5c0.3,1,0.3,2.1,0.3,3.1c-0.4,8.5-0.8,17.1-1.2,25.6
	c0,1.2-0.2,2.3-0.5,3.4c-0.5,2.2-2.3,3.9-4.5,4.4c-1.3,0.3-2.7,0.5-4,0.5c-6,0-11.9,0.1-17.8,0.2c-0.7,0-1.3,0-2,0
	c-1,0.1-1.2,0.3-1.3,1.2c-0.2,2.3-0.4,4.6-0.5,6.9c-0.4,6.5-0.9,13-1.1,19.5c-0.4,10.8-0.8,21.7-0.6,32.5c0.1,8.6,0.6,17.3,1.7,25.8
	c0.5,5,1.7,9.8,3.4,14.5c0.5,1.5,1.2,3,2.1,4.4c1.3,1.9,2.6,2.3,4.7,1.4c1.6-0.7,3-1.6,4.3-2.9c2.1-2.1,4-4.4,5.7-6.9
	c1-1.6,2.6-2.6,4.4-2.9c2.4-0.5,4.9,0.5,6.4,2.4c0.6,0.8,1.1,1.6,1.6,2.4c5.1,8.1,10.3,16.2,15.4,24.3c0.5,0.6,0.8,1.3,1.2,2
	c1.1,2.4,0.7,5.2-1,7.3c-0.7,0.8-1.4,1.6-2.1,2.3c-9.8,9.8-22.5,16-36.3,17.8c-3,0.4-6,0.3-8.9-0.3c-4.4-0.7-8.8-1.9-13-3.5
	c-7.4-3-13.9-8-18.6-14.5c-4-5.4-7-11.5-9-17.9c-3.2-10.4-5.4-21-6.3-31.8c-0.8-8.7-0.9-17.4-0.8-26.2c0-9.1,0.4-18.2,0.9-27.3
	c0.4-7.2,1-14.4,1.5-21.5c0.1-1.8,0.2-3.6,0.3-5.5c-5,0.2-9.7,1-14.6,1.6c0.1,0.5,0.2,1,0.3,1.5c0.7,2.1,0,4-1.1,5.7
	c-0.4,0.6-0.8,1.1-1.2,1.6c-5.2,6.3-10.5,12.5-15.7,18.8c-1.1,1.5-2.7,2.5-4.5,2.8c-2.4,0.5-4.9-0.4-6.4-2.2
	c-0.6-0.8-1.2-1.7-1.8-2.6c-2.2-3.4-4.8-6.5-7.7-9.3c-2-1.9-4.3-3.5-6.8-4.7c-0.9-0.5-2-0.8-3-0.8c-2.2-0.2-4.1,1.4-4.3,3.6
	c-0.1,0.7,0.1,1.4,0.3,2c1.6,3.7,3.7,7.2,6.2,10.4c4,5,8.2,9.7,12.6,14.2c1.7,1.8,3.4,3.6,5.1,5.5c3,3.3,6.1,6.3,9.3,9.4
	c5,4.7,9.6,10,13.6,15.6c2.2,3,4.1,6.3,5.6,9.7c4.6,9.9,5.9,21.1,3.6,31.7c-1.4,6.9-4.3,13.4-8.6,19c-6.2,8.2-15,14-24.9,16.5
	c-6.5,1.8-13.3,2.4-20,1.7c-17.3-1.7-32.4-8.1-44.3-21.2c-0.7-0.8-1.4-1.6-2-2.4c-1.9-2.3-2.2-5.5-0.8-8.1c0.2-0.5,0.5-1,0.8-1.5
	c4-7.1,8-14.2,12-21.3c0.4-0.8,0.9-1.5,1.3-2.2c2-3.2,6.2-4.1,9.4-2.1c0.6,0.4,1.2,0.9,1.6,1.5c1.6,2,3.6,3.8,5.8,5.2
	c4.7,3.2,9.8,5.7,15.1,7.6c2.3,0.8,4.7,1.1,7.1,0.9c2.4-0.1,3.2-0.9,3.7-3.3c0.6-2.8,0.2-5.8-1.2-8.4c-1.6-3-3.7-5.9-6-8.4
	c-4.1-4.4-8.4-8.5-13-12.4c-4.4-3.9-8.7-7.8-12.8-12c-4.8-5.1-9.2-10.6-13-16.4c-7.3-11.4-10.7-24.9-9.7-38.4
	c0.9-9.8,4.2-18.7,10.8-26.1c3.9-4.4,8.7-7.9,14.2-10c6.4-2.7,13.3-3.9,20.2-3.6c10.1,0.4,19.9,3.5,28.5,9
	c5.6,3.4,10.5,7.8,14.6,12.9C906.5,497.8,906.6,498.3,907.1,498.1z"/>
<path d="M758.5,704.5c-1.8,4.1-2.5,10.4-1.9,15.9c1.6-0.4,3.2-0.3,4.8,0.1c3.7,1,6.1,4.5,5.7,8.3c-0.5,6-4.8,9-10.1,8.9
	c-1.2,0-2.3-0.2-3.4-0.4c-5.1-0.5-10.2-0.4-15.2,0.2c-1.5,0.2-3.1,0.1-4.6-0.2c-2.9-0.5-5.3-2.6-6-5.5c-0.1-0.5-0.3-0.9-0.4-1.4
	c-0.6-0.1-0.8,0.4-1.1,0.7c-2.5,2.8-5.7,4.9-9.3,6c-6.1,2.1-12.8,2.2-19,0.4c-5.1-1.4-9.6-4.5-12.8-8.8c-0.6-0.8-1.2-1.7-1.8-2.7
	c-0.2,0.3-0.5,0.4-0.6,0.7c-2.2,6.9-7,10.4-13.9,11.7c-3.7,0.7-7.5,0.5-11.1-0.6c-4.6-1.2-8.4-4.7-9.8-9.3c-1-3-1.5-6.2-1.3-9.3
	c0.1-4.5,0.2-9,0.4-13.5c0-1,0-1.9,0-3c-2.5-0.5-4.8-1.3-6.1-3.5c-1-1.6-1.4-3.4-1.3-5.2c0.1-2.1,0.9-4.2,2.3-5.8
	c1.5-1.6,3.4-2,5.5-2.3c0.3-1,0.4-2.1,0.2-3.1c0-1.4,0.2-2.9,0.5-4.3c0.5-2.3,2.2-4.2,4.5-4.8c3.3-1.1,6.8-1.2,10.2-0.3
	c2.1,0.5,3.7,2.2,4.2,4.3c0.4,1.3,0.6,2.6,0.5,4c0,1,0,2.1,0,3.2c0,1.2,0,1.2,1.4,1.3s2.5,0.1,3.7,0c1.4,0,2.9,0.2,4.2,0.7
	c2.3,0.7,4,2.4,4.6,4.7c0.6,1.9,0.6,4,0,5.9c-0.6,2.4-2.5,4.2-4.9,4.8c-1.5,0.4-3,0.6-4.6,0.5c-1.4-0.2-2.9-0.1-4.2,0.2
	c-0.7,1.4-0.2,2.8-0.3,4.2s0,2.7,0,4c0.3,0.1,0.5,0.2,0.8-0.1c3-3.1,6.5-3.3,10.3-1.9c0.3,0.1,0.5,0.3,0.8,0.4
	c0.3,0.1,0.5,0.2,0.8,0.3c0.5-2.2,0.8-4.4,1.3-6.5c2.3-8.1,7.2-13.9,15.2-16.8c6.1-2.2,12.8-2.2,18.9-0.1c3.9,1.3,7.2,3.6,9.8,6.8
	c0.5,0.6,1,1.2,1.5,1.8c0,0,0.2,0,0.4,0c0.2-0.9,0.4-1.8,0.6-2.7c1.1-4.3,5.4-6.9,9.7-6c2.3,0.6,4.8,0.6,7.1,0.1
	c3-0.7,5.7-0.2,7.9,2c7.5-4.6,14.8-5.2,22.1,0.6c1.8-1.7,3.8-3,6.5-3c0-1.2,0.1-2.3,0.1-3.3c0-1.4,0.2-2.9,0.6-4.3
	c0.5-2.3,2.2-4.2,4.5-4.8c3.3-1.1,6.9-1.2,10.2-0.3c2,0.5,3.5,2,4,4c0.4,1.3,0.6,2.6,0.6,4c0,1.2,0,2.5,0,3.7
	c-0.1,0.4,0.2,0.8,0.7,0.9c0.1,0,0.1,0,0.2,0h4c1.1,0,2.1,0.1,3.1,0.3c3.7,0.7,5.7,2.9,6.3,6.5c0.6,3.8-0.9,8.8-6.4,9.5
	c-1,0.1-1.9,0.2-2.9,0.2c-1.3,0-2.7,0-4,0c-0.7,0-1,0.3-1,1v7.8c1-0.8,1.9-1.5,2.8-2.1c1-0.6,2.1-0.9,3.3-1c1.1-0.1,2.3-0.1,3.4,0.2
	c1.1,0.3,2.2,0.8,3.1,1.5c0.9,0.8,1.6,1.7,2.3,2.7c1.1-0.6,1.5-1.9,2.5-2.6s2-1.5,2.9-2.3c-0.1-0.6-0.6-0.8-1-1.1
	c-5.2-4-5.1-12.6,0.2-16.9c1.9-1.5,4-2.7,6.3-3.3c7.6-2.2,15.7-2.3,23.3-0.2c6.4,1.7,9.9,5.9,10.9,12.3c0.3,1.8,0.5,3.6,0.5,5.5
	c0,4.5,0,9,0,13.5c0,0.7,0,1.3,0,2c0,0.5,0.3,0.9,0.8,0.9c0,0,0,0,0,0c0.3,0,0.6,0.1,0.8,0.2c0.9,0.5,1.9,0.8,2.9,1.1
	c1.1,0.2,1.7-1.1,2.8-1.3c1.1-0.4,2.3-0.5,3.5-0.5c0.5-0.3,0.7-0.8,0.6-1.4c0-4.3,0-8.6,0-13c0-1.5,0-1.5-1.8-1.8
	c-0.7-0.1-1.3-0.3-2-0.5c-1.8-0.4-3.3-1.7-4-3.4c-1.4-3-1.3-6.5,0.2-9.4c1-2.1,3-3.6,5.3-4.1c0.9-0.2,1.9-0.4,2.9-0.7
	c-2.1-3.1-3.4-6.4-2.4-10.3c1.4-6.2,7.6-10,13.7-8.6c2.1,0.5,4.1,1.6,5.6,3.1c4.4,4.5,4.4,11.7,0,16.2c-0.1,0.9,0.6,1.1,1,1.5
	c1,1.2,1.6,2.6,1.7,4.2c0.1,0.9,0.1,1.7,0.1,2.6v25.2c0.2,0.1,0.5,0.2,0.7,0.2c1.8-0.1,3.5,1.5,5.2,1c1.7-0.6,3.4-1,5.2-1.2
	c0.4-5.3,0.4-10.6,0.1-15.9c-1.1-0.1-2.2-0.3-3.3-0.5c-1.8-0.4-3.3-1.7-4.1-3.4c-1.7-3.4-1.3-7.6,1-10.6c1.7-2.6,4.8-3.8,7.8-3.2
	c3.1,0.5,6.3,0.5,9.4,0c2.4-0.5,4.9,0.5,6.3,2.5c0.7,0.1,1.1-0.4,1.5-0.7c5.6-3.5,12.4-4.1,18.5-1.9c4.7,1.6,8.4,5.5,9.7,10.4
	c0.9,2.9,1.3,6,1.3,9.1c0,3.9,0,7.9,0,11.8v2.5c0.3,0.1,0.4,0.2,0.5,0.2c1.9,0,3.7,1.5,5.5,1.1s3.4-1.2,5.2-1.1
	c0.4-5.3,0.4-10.7,0.1-16c-1.1-0.1-2.3-0.3-3.3-0.5c-1.8-0.5-3.3-1.7-4-3.4c-1.8-3.5-1.3-7.8,1.2-10.8c1.8-2.4,4.8-3.5,7.7-2.9
	c2.9,0.6,5.9,0.6,8.9,0c2.6-0.7,5.3,0.3,6.9,2.5c9-5.7,17.2-4.9,23.6,1.1c0.8-0.3,1.5-0.7,2.1-1.3c6-4.1,13.6-4.9,20.3-2.2
	c4.8,1.7,8.4,5.7,9.6,10.7c0.8,2.9,1.1,5.8,1.1,8.8c0,3.8,0,7.7,0,11.5v2.4c0.8,0.2,1.6,0.3,2.3,0.4s1.4,0.3,2.1,0.5
	c0.5-0.7,0.2-1.3,0.1-1.8c-1.4-5.9-1-12.1,1.2-17.8c3.2-8.4,9.2-13.7,18.1-15.6c5-1.1,10.2-0.8,15.1,0.8c4.1,1.3,7.6,3.8,10.2,7.1
	c0.5,0.6,0.7,1.4,1.6,1.7c0.2-0.9,0.5-1.8,0.7-2.7c1.1-4.3,5.3-7,9.7-6.1c2.6,0.6,5.4,0.6,8,0.1c3-0.6,5.5-0.1,7.5,2.6
	c2.8-2,5.9-3.2,9.3-3.8c4.2-0.8,8.5-0.2,12.3,1.7c4,1.9,6.9,5.4,8,9.7c0.7,2.4,1.1,4.9,1.2,7.4c0,4.3,0,8.7,0,13v2.9
	c1.1,0.2,2.1,0.5,3.2,0.7c1.9,0.3,3.6,1.7,4.3,3.5c1.5,3.2,1.2,7-0.6,10c-1.8,3.1-4.9,3.8-8.2,3.8c-1.4-0.1-2.9-0.2-4.3-0.4
	c-2.9-0.4-5.8-0.3-8.6,0.2c-3.6,0.6-6.9,0.3-9.8-2c-2.4,2-5.6,2.8-8.7,2.1c-4-0.6-8-0.6-12,0c-1.8,0.3-3.6,0.2-5.4-0.2
	c-2.8-0.6-5-2.7-5.8-5.4c-0.1-0.5-0.1-1-0.5-1.3c-0.1-0.1-0.2-0.1-0.2-0.2c-6.3,7-14.5,8.9-23.5,8.2c-1.6-0.2-3.2-0.4-4.8-0.8
	c-4.8-1.1-9.1-3.7-12.3-7.5c-0.4-0.5-0.7-1.2-1.6-1.4c-0.2,1-0.5,2-0.8,2.9c-1.1,3.9-4.9,6.3-8.9,5.7c-4.9-0.7-10-0.7-14.9,0
	c-2.4,0.4-4.9-0.3-6.7-1.9l-1.2-1c-1.3,1.4-3.1,2.4-5,2.7c-1.2,0.2-2.5,0.2-3.7,0c-2.8-0.6-5.7-0.6-8.6,0c-2.8,0.7-5.7-0.1-7.8-2
	c-0.2-0.1-0.4-0.2-0.6-0.3c-2.6,2.5-5.8,2.8-9.3,2.3c-4.1-0.6-8.2-0.6-12.3,0c-2.8,0.5-5.6-0.1-7.9-1.8c-0.8-0.1-1.2,0.6-1.8,0.9
	c-2.1,1-4.4,1.3-6.7,1c-4.3-0.7-8.6-0.7-12.9,0c-3,0.5-6.1-0.2-8.5-2.1c-1.3,0.7-2.5,1.7-4.1,1.9c-1.3,0.3-2.7,0.3-4,0.2
	c-4.2-0.7-8.4-0.7-12.6-0.1c-3.2,0.6-6.5-0.1-9.2-1.8c-2.6,1.9-5.5,2.2-8.7,1.8c-4.9-0.7-9.8-0.6-14.6,0.1c-2.8,0.6-5.6-0.1-7.9-1.7
	c-0.5-0.4-1.1-0.3-1.5,0.1c-3.7,2.7-8.4,3.7-12.9,2.6c-2.3-0.4-4.4-1.5-6.1-3c-0.4-0.5-1.2-0.6-1.8-0.1c0,0,0,0,0,0
	c-2.2,1.4-4.6,2.3-7.2,2.9c-4.4,1.1-9,0.9-13.3-0.6c-3.2-1-6-3.1-8-5.8c-0.5-0.6-0.7-1.4-1.4-1.8c-0.5,0-0.6,0.4-0.7,0.7
	c-2.8,4.5-7.1,6.8-12.2,7.8c-3.7,0.7-7.5,0.5-11.1-0.6c-4.7-1.2-8.4-4.7-9.9-9.2c-1.1-3.3-1.6-6.7-1.4-10.2
	c0.1-3.7,0.2-7.3,0.3-10.9c0-1.2,0-2.3,0-3.5s-0.3-1.5-1.5-1.7c-0.4-0.1-0.8,0-0.9,0.4s-0.4,1.1-0.6,1.6c-2.3,5.3-8.3,7.8-13.7,5.8
	c-1.6-0.6-3-1.7-4-3.2C759.5,706.3,759.1,705.5,758.5,704.5z"/>
<path d="M676.1,641c0.5-22.5,1.2-45.1,1.6-67.6c0.4-26.6,0.4-53.2-0.2-79.7c-0.3-13.8-0.5-27.6-0.8-41.5c-0.3-10.4-0.7-20.7-1-31.1
	c-0.1-1.3,0-2.7,0.4-4c0.6-2.1,2.2-3.7,4.3-4.2c2-0.5,4-0.8,6-0.9c4.6-0.5,9.2-0.9,13.7-1.4l14.6-1.5c1.8-0.3,3.6-0.2,5.4,0.3
	c2,0.6,3.5,2.2,4,4.1c0.4,1.3,0.5,2.7,0.4,4c-0.8,10.6-1.2,21.3-1.5,31.9c-0.6,17.8-0.8,35.7-0.5,53.5c0,2.3,0.1,4.6,0.2,6.9
	c-0.1,0.6,0,1.2,0.3,1.7c0.7,0.1,1.3,0,1.9-0.2c5.4-1.6,11-2.8,16.5-3.6c10-1.5,20.2-1.1,30,1.2c3.4,0.8,6.7,1.8,9.9,3
	c9.7,4,18.2,10.5,24.5,18.9c6,8,10.1,17.3,12,27.1c2.1,9.6,2.7,19.4,1.7,29.2c-2,17.9-9.3,33.1-22.6,45.3c-9,8.2-20,13.8-31.9,16.3
	c-6.8,1.5-13.9,2.1-20.9,1.7c-5.5-0.5-11-1.5-16.3-3.2l-3.2-0.9c-0.2,2.1-0.1,4.3,0.2,6.4c0.2,1.2,0.1,2.5-0.2,3.7
	c-0.9,3.7-3.7,5.7-7.4,5.2c-4-0.6-8-1.3-11.9-2c-7.5-1.3-14.9-2.6-22.4-3.9c-0.5-0.1-0.9-0.2-1.4-0.3c-2-0.2-3.8-1.4-4.8-3.2
	c-1.2-0.9-1.8-2.4-1.3-3.8C676,645.8,675.7,643.4,676.1,641z"/>
<path d="M602.5,462.5c0.5,0,1-0.1,1.4-0.2c4.5-1.2,9.1-1.7,13.8-1.6c1.3,0,2.7,0,4,0c1.9,0,3.8,0.1,5.7,0.5c3,0.5,6,1.2,9,2.1
	c8.2,2.5,14.8,7.5,20.2,14.1c5.4,6.7,9.3,14.4,11.4,22.7c2.7,9.6,4.3,19.5,4.9,29.5c0.7,12.2,0.7,24.4,0.5,36.5
	c-0.2,10.2-0.4,20.3-0.4,30.5s0.1,20.3,0.8,30.5c0.2,3.8,0.5,7.7,0.7,11.5c0.2,2.5,0.5,5,0.7,7.5c0.8,2.1,1,4.3,0.6,6.5
	c-0.2,3.2-2.8,5.7-6.7,5.8c-2.5,0-5,0-7.5,0l-20.7-0.1c-1.1,0-2.3-0.2-3.4-0.4c-2.5-0.3-4.6-2.3-5-4.8l-0.1-0.3
	c-0.3-0.8-0.6-1-1.5-0.6c-5,2.4-10.3,4.1-15.8,5.1c-7,1.4-14.2,1.3-21.1-0.3c-4.6-0.9-9.1-2.5-13.2-4.7c-0.3-0.1-0.5-0.2-0.8-0.2
	c-4.1-0.9-6.8-4-9.8-6.5c-3.6-3-6.2-6.9-8.7-10.8c-6.4-9.1-9.1-19.6-10.7-30.4c-2-12.9-0.8-26,3.4-38.3
	c7.2-21.3,21.8-34.9,43.5-40.9c3.4-1.1,6.9-1.7,10.5-1.9c6-0.9,12-0.9,18,0c1.4,0.1,2.7,0.6,4.3,0.8c-0.6-4.3-1.9-8.4-3.8-12.3
	c-0.7-1.3-1.4-2.5-2.2-3.7c-2.5-3.9-5.9-6.2-10.7-5.7c-1.3,0.1-2.7,0-4,0c-10.1,1.8-19.2,7.2-25.6,15.3c-3.7,4.6-9.4,4.4-13.1,0.2
	c-4.5-5.2-9.4-9.9-14-14.9c-4.4-4.8-4.9-8.3-0.8-13.4c4.1-5.2,9-9.7,14.5-13.4c0.9-0.6,1.7-1.3,2.9-1.1l3.8-2.3
	c1.9-1.2,4-2.3,6.1-3.3l0.1-0.2l0.3,0.1c2.4-1.3,5-2.4,7.6-3.3c0.5-0.1,0.9-0.3,1.2-0.6C595.5,463.3,599,462.3,602.5,462.5z"/>
<path d="M1006.2,569.1c-0.2-11.1,1.3-22.1,4.7-32.7c2.3-7.6,6.1-14.8,11-21c6.2-7.9,14.4-14,23.8-17.6c10-3.9,20.7-5.8,31.5-5.8
	c5.7,0.1,11.3,1.2,16.6,3.2c5.6,2.1,10.2,5.7,14.4,9.8c6,6,10.8,13.1,14,20.9c2.4,5.7,4.2,11.5,5.4,17.5c1.7,7.4,2.8,14.9,3.3,22.5
	c0.1,1.2,0,2.5-0.4,3.7c-0.6,2.1-2.2,3.7-4.3,4.2c-0.9,0.3-1.9,0.4-2.8,0.5c-5.8,0.4-11.7,0.8-17.5,1.3c-4.7,0.4-9.4,0.9-14,1.3
	c-5.8,0.5-11.7,1-17.5,1.5c-6.1,0.5-12.2,1-18.4,1.5c-2.1,0.2-4.2,0.3-6.3,0.4c-0.6,0-0.9,0.4-0.8,0.9c0.3,1.7,0.5,3.4,0.9,5.1
	c1.2,4.7,2.9,9.3,5,13.8c1.6,3.3,3.7,6.3,6.3,8.9c2,2.1,4.8,3.2,7.7,3.2c5.6,0,11-2.1,15.3-5.7c5.3-4.4,9.1-10.3,10.8-16.9
	c0.1-0.5,0.3-0.9,0.3-1.4c0.7-4.4,5.7-6.5,9.9-4.2c0.5,0.3,1,0.6,1.4,0.9l22.9,15c0.6,0.4,1.3,0.8,1.9,1.3c2.3,1.6,3.3,4.5,2.5,7.1
	c-1,4.2-2.6,8.2-4.8,11.9c-8.1,13.8-20.6,24.4-35.4,30.3c-10.3,4.2-21,4.6-31.9,2.2c-16.4-3.7-29.2-12.7-39-26.1
	c-6.5-9-11.1-19.1-13.6-29.9C1007,587.5,1006,578.3,1006.2,569.1z"/>
<path d="M525.2,718.9c0.3,0.4,0.8,0.6,1.3,0.6c0.5,0,0.9-0.3,1-0.8c0.1-0.4,0.1-0.8,0.1-1.1v-10.4c0-0.2,0-0.4,0-0.6
	c-1.1-4.5-0.4-9.2-0.6-13.7c0-0.8-0.1-1.5-0.1-2.3c-1.8,0-3.5,0.3-5.2-0.4c-2.9-1.1-5-2.8-5.1-6.2c0-0.2-0.3-0.5-0.4-0.7
	c-2.4-4.4,0.3-10.2,5.6-12c2.6-0.7,5.3-0.9,7.9-0.4c8.3,0.8,16.6,0.3,24.8,0.6c3.5,0.1,7-1,10.4,0.5c0.8,0.3,1.7,0.2,2.5-0.2
	c2.5-0.4,5-0.4,7.4-0.1c4.2,0.6,6.5,3.1,6.7,7.9c0,0.9-0.1,1.7-0.2,2.6c-0.3,4-0.6,6.4,0.2,9.7c0.7,0.1,0.7-0.5,0.9-0.9
	c1.2-2.4,3.6-4.1,6.3-4.6c0.9-0.2,1.9-0.2,2.8,0c2.7,0.7,5.5,0.7,8.3,0.1c2.9-0.6,5.3,0,7.1,2.4c0.8,0,1.3-0.6,1.8-0.9
	c5.6-3.3,12.5-3.9,18.6-1.5c4.4,1.6,7.8,5.2,9.2,9.7c1,3.3,1.5,6.8,1.4,10.2c0,4.1,0,8.2,0,12.4c0,1.3,0,1.3,1.4,1.6
	c0.7,0.1,1.3,0.3,2,0.5c1.9,0.4,3.5,1.8,4.1,3.7c1.2,3,1.1,6.3-0.4,9.2c-0.9,2-2.7,3.4-4.8,3.8c-1.6,0.4-3.2,0.6-4.8,0.3
	c-4.4-0.7-8.8-0.7-13.2,0c-3,0.5-6.1-0.3-8.4-2.2c-2.7,2.2-5.7,2.6-9,2c-3.9-0.5-7.9-0.5-11.8,0.1c-1.1,0.2-2.3,0.2-3.4,0.2
	c-3.2-0.3-4.8-1.2-7.1-3.9c-0.2,0.1-0.6,0.2-0.7,0.4c-1.6,2.7-4.3,3.4-7.1,3.6c-1.3,0.1-2.7,0-4-0.1c-7.9-0.6-15.9-0.7-23.9-0.8
	c-5.1-0.2-10.2,0-15.2,0.4c-1.9,0.2-3.8,0.5-5.7,0.5c-3.7,0.1-6.8-1.3-8.6-4.7c-1.8-3.1-1.9-6.8-0.3-10
	C518.5,719.9,521.4,718.4,525.2,718.9z"/>
<path class="st1" d="M567.5,671.6c-1.1,0.8-2.6,0.9-3.8,0.4c-1-0.3-2.1-0.3-3.1,0c-0.7,0.2-1.5,0.2-2.3,0.2h-22
	c-1,0.1-2.1,0-3.1-0.3c-1.3-0.5-2.7-0.1-4-0.3c1.7-2.6,3.8-5,6.1-7.1c8.9-9,17.3-18.4,25.3-28.2c0.4-0.7,1-1.2,1.7-1.5
	c2.2,3.8,5,7.3,8.3,10.4c2.9,2.6,6,4.9,9.3,6.9c-5,6.6-10.4,12.9-16,19c0.6,0.8,1.3,0.3,1.9,0.4S566.9,671.6,567.5,671.6z"/>
<path d="M1154.3,702.8c-0.5-0.2-1-0.4-1.5-0.5c-3.9-0.5-6.1-4.5-5.9-8.3c0.1-1.6,0.6-3.2,1.4-4.6c1.3-2,3.4-3.2,5.7-3.3
	c0.4,0,0.8-0.3,0.8-0.7c0-0.1,0-0.1,0-0.2c0-1,0-1.9,0-2.9c0-1.1,0.1-2.1,0.4-3.1c0.4-2.9,2.7-5.3,5.7-5.8c3-0.8,6.1-0.8,9.1,0
	c2.1,0.5,3.7,2.1,4.2,4.2c0.4,1.4,0.5,2.8,0.5,4.3c0,1.3,0,2.6,0,4.1c1.6,0.1,3.2,0.2,4.7,0.1c1.4,0,2.9,0.2,4.3,0.5
	c2.6,0.6,4.6,2.7,5.1,5.3c0.5,1.8,0.4,3.6-0.1,5.4c-0.6,2.4-2.5,4.2-4.8,4.9c-1.8,0.4-3.6,0.6-5.4,0.5c-1.2,0-2.7-0.5-3.6,0.4
	s-0.2,2.2-0.3,3.3c0,1.6,0,3.3,0,4.9c0.5,0.2,0.7-0.3,1.1-0.6c3.4-3.3,8.8-3.3,12.2,0c1.1,1.1,1.9,2.5,2.2,4
	c1.4,4.5,1.1,9.4-0.7,13.8c-1.7,4.5-5.4,7.9-10,9.2c-4.6,1.5-9.5,1.6-14.2,0.3c-5-1.3-9-5.2-10.3-10.2c-0.9-3-1.3-6.2-1.1-9.4
	c0.2-4,0.3-8,0.4-12.1C1154.3,705.1,1154.3,704,1154.3,702.8z"/>
<path class="st4" d="M434.3,745.9c0.9-0.3,1.9-0.4,2.8-0.3c4.1-0.1,8.2-0.2,12.2-0.3c-0.4,0.5-0.9,0.7-1.5,0.6L434.3,745.9z"/>
<path class="st8" d="M675.8,652.7c-0.1-1.8-0.3-3.6-0.7-5.4c0-0.4,0-0.8,0.1-1.1c0.6-0.8,0.5-1.8,0.6-2.7s-0.1-1.7,0.4-2.5
	c0.3,1.4,0.3,2.8,0.1,4.2c-0.2,2.3,0,4.5,0.6,6.7C676.3,651.9,676.2,652.5,675.8,652.7z"/>
<path class="st14" d="M562.3,634.8c-0.3,0.9-0.9,1.7-1.6,2.4c-5.6,6.9-11.5,13.6-17.5,20c-3.7,4-7.5,7.9-11.3,11.8
	c-0.9,0.9-1.8,1.7-2.7,2.5c-2.1-0.4-4.2-0.4-6.2,0c-3.4,0.5-6.1,3.1-6.7,6.5c-0.5,1.6-0.5,3.4-0.1,5.1c0.1,0.8-0.3,1.5-0.8,2
	c-3.4,3-6.7,6.1-10.1,9c-6.5,5.6-13.1,10.9-20.1,15.9c-5.5,3.9-11.1,7.6-16.9,10.9c-8,4.6-16.2,8.8-24.6,12.5
	c-1.5,0.7-3.1,1.1-4.7,1.2c-1.4,0-2.9,0.1-4.3,0.1c-50.9,0.3-101.7,0.3-152.6,0.3c-5.6,0-11.1,0-16.7,0.1c-1.6,0.1-3.2-0.3-4.7-1.1
	c-2.6-1.5-5.2-2.9-7.7-4.4c-2.8-1.7-5.5-3.5-8.2-5.3c-7.3-4.8-13.2-11.6-17-19.5c-7.3-15.7-10.4-33.1-8.8-50.4
	c0.8-8.8,2.2-17.5,4.2-26.1c4.4-19.5,11.2-38.3,20.3-56.1c1.2-2.3,2.4-4.6,3.5-6.9c2.5-5.1,5.4-9.9,8.7-14.6
	c0.4-0.4,0.3-1.1,0.8-1.4c0.2-0.2,0.5-0.4,0.4-0.8c0.4-0.8,1.1-1.3,2-1.3c0,0.2,0.1,0.5,0.1,0.6c-0.9,1.6-1.4,3.3-2.5,4.8
	c-0.9,1-1.5,2.2-1.9,3.5c-0.2,0.4-0.4,0.9-0.6,1.3c-0.2,0.3-0.2,0.7-0.4,1c-0.6,1-1,2-1.5,3.1c-0.6,1.3-0.9,2.8-2.1,3.7
	c-2.4,5-4.6,10.1-6.5,15.4c-3.3,8.5-5.8,17.3-7.5,26.2c-1.8,8.9-2.3,18.1-1.5,27.2c0.7,7.2,2.7,14.1,5.9,20.6
	c1.5,3.2,3.6,6.1,6.1,8.7c5.6,5.7,12.3,8.3,20.4,6.8c0.6-0.1,1.1-0.2,1.7-0.3c0.7-0.3,1.6-0.1,2.2,0.3c0.9,0.5,1.8,1.1,2.7,1.7
	c0.4,0.2,0.8,0.5,1.2,0.8c3.6,1.9,7.1,4,10.9,5.6c7.3,2.9,14.8,5.1,22.5,6.8c6.3,1.3,12.7,2.1,19.1,2.5c5.5,0.4,10.9,0.6,16.4,0.5
	c8.3-0.1,16.5-0.7,24.7-1.6c9-1,17.8-2.5,26.6-4.7c11.5-2.9,22.7-7,33.4-12.3c0.5-0.2,1-0.6,1.4-0.9c1.9-1.3,4.2-1.4,6.3-1.4
	c5,0.1,10-0.3,14.9-0.7c3-0.2,5.5-1,6.7-4.1c0.8-2.2,2.6-2.3,4.5-2.2c8.7,0,17.4-1.4,25.7-4.2c20.3-6.4,34.8-19.7,44.8-38.2
	c8.5-15.8,12.4-33,15-50.5c1.5-10,2-20,2.5-30.1c1-20.8-1.2-41.6-6.5-61.8c-1.1-4.2-2.8-8.2-3.7-12.4c0.2-2.5,1.8-1.7,3.1-1.1
	c3.9,1.5,7.7,3.4,11.6,4.9s8,2.5,12,3.7c1.3,0.3,2.5,0.9,3.7,1.5c1.2,1,2.6,1.9,3.3,3.4c-7,4.4-13.2,9.6-17.9,16.4
	c-0.8,1.1-1.3,2.3-1.5,3.7c-0.3,1.6,0.1,3.3,1.1,4.6c0.6,0.8,1.3,1.7,2,2.4c4.8,5.1,9.6,10.2,14.4,15.3c0.5,0.6,1.1,1.1,1.7,1.6
	c2.9,2.3,7.1,1.9,9.5-1c0.8-1,1.5-2,2.4-2.9c6.2-6.8,14-10.9,22.8-13.2c0.5-0.1,0.9-0.1,1.4-0.1c0.7,0.7,1,1.6,0.9,2.6
	c0.1,5.3,0.1,10.7,0,16c0,2-0.8,3.3-2.9,3.6c-1.4,0-2.9,0.2-4.2,0.6c-3.9,0.8-7.8,1.9-11.6,3.3c-20,7.8-32.6,22.2-38.1,43
	c-2.2,8.2-3.1,16.6-2.7,25.1c0.5,11.4,2.7,22.4,7.9,32.7C559.7,630.8,560.9,632.9,562.3,634.8z"/>
<path class="st15" d="M363.3,122.8c0.1,0.5,0.1,1.1,0.1,1.7c-0.8,3.9-0.6,7.9-0.5,11.8c0,0.7,0,1.3,0,2c-1.5-0.4-1.2-1.7-1.3-2.7
	c-0.1-2,0.1-4.1-0.2-6.1c0-0.5,0-1,0.2-1.4c0.4-0.9,0.5-1.8,0.8-2.7C362.3,124.3,362.7,123.5,363.3,122.8z"/>
<path class="st16" d="M361.8,127.9v1.2c-0.2,2.1,0.9,4.5-1.1,6.3c0-0.6-0.1-1.1-0.1-1.7c0-0.5-0.2-0.9-0.5-1.2
	c0-1.6,0.4-3.2,1.1-4.6C361.3,127.7,361.5,127.7,361.8,127.9C361.7,127.8,361.7,127.8,361.8,127.9z"/>
<path class="st17" d="M16.3,742.5c-1,0.5-2.1,0.2-3.1,0.6c-0.7,0.5-1.6,0.6-2.4,0.5c-1.4-0.5-3,0.2-4.4-0.5c-0.2-0.2-0.2-0.4,0-0.4
	C9.8,742.3,13.1,742.3,16.3,742.5z"/>
<path class="st18" d="M250,565.1c0.4-1.4,1-2.8,1.8-4c0.5-0.1,0.9,0,0.6,0.7c-0.3,1.6-0.9,3.2-1.7,4.7
	C250.5,565.9,250.6,565.3,250,565.1z"/>
<path class="st19" d="M51.9,723.4c-1.2,0.2-2.4,0.2-3.6-0.1c0-0.7,0.5-0.8,0.9-0.8c1.4-0.2,2.8-0.2,4.2,0
	C53.5,723.7,52.3,722.8,51.9,723.4z"/>
<path class="st20" d="M254,555.8c0.4-0.8,0.8-1.6,1.2-2.4c0.2-0.5,0.7-0.9,1.2-1l-1.8,4.1C254.3,556.4,254.2,556.1,254,555.8z"/>
<path class="st21" d="M51.9,723.4c0.3-0.7,1.2-0.3,1.6-0.9c0.7-0.2,1.5-0.2,2.2,0c0.5,1.1-0.8,0.5-0.9,1L51.9,723.4z"/>
<path class="st22" d="M6.5,743h4.4c0.3,0.2,0.4,0.7,0.1,1c0,0,0,0-0.1,0.1c-0.9-0.4-2-0.6-3-0.5C7.4,743.5,6.8,743.6,6.5,743z"/>
<path class="st23" d="M11,744.1l-0.1-1.1h2.3c0,0.3,0,0.7,0,1L11,744.1z"/>
<path class="st24" d="M252.4,561.7l-0.6-0.7c0.3-1.1,0.9-2.2,1.6-3.1c0.3,0.2,0.4,0.6,0.2,0.9c0,0,0,0,0,0
	C253.3,559.9,252.9,560.9,252.4,561.7z"/>
<path class="st25" d="M54.8,723.4l0.9-1h1.8l-0.4,0.9L54.8,723.4z"/>
<path class="st26" d="M361.8,127.9h-0.6c0.1-1,0.5-1.9,1.1-2.6C362.2,126.1,362.5,127.1,361.8,127.9z"/>
<path class="st27" d="M256.8,548.9c0,0.7-0.4,1.3-1,1.6l-0.5-0.5c0.2-0.6,0.7-0.9,1.2-1.1L256.8,548.9z"/>
<path class="st28" d="M254,555.8l0.6,0.6c0,0.4-0.3,0.9-0.6,1.2c-0.3-0.1-0.4-0.4-0.5-0.6L254,555.8z"/>
<path class="st29" d="M253.5,557l0.5,0.6c0,0.5-0.2,0.9-0.6,1.2l-0.1-0.9C253.4,557.6,253.5,557.3,253.5,557z"/>
<path class="st30" d="M256.8,548.9h-0.2h-0.2l0.5-0.6c0.1,0.1,0.3,0.2,0.3,0.3C257.2,548.9,257,548.9,256.8,548.9z"/>
<path class="st31" d="M360.6,135.4c0.3-0.4,0.5-0.8,0.5-1.3c0.1-1.7,0.3-3.4,0.7-5c0.5,0.4,0.5,1,0.5,1.6c0,1.9,0,3.8,0,5.7
	c-0.1,0.7,0.1,1.3,0.5,1.9c0.5,4.2,1.5,8.3,2.7,12.3c1.1,3.4,2.2,6.9,3.6,10.3c1.8,4.2,4.2,8.2,7,11.8c2.8,3.6,6.3,6.7,10.3,9
	c0.6,0.1,1,0,0.7-0.7c-2.6-8.6-6.9-16.4-11.4-24.1c-3.9-6.6-6.8-13.8-8.5-21.3c-0.2-1.1-0.4-2.3-0.4-3.4c-0.1-1-0.9-2.2,0.6-3
	c0.8,3.4,1.9,6.6,3.5,9.7c3.5,6.6,8.9,11.9,15.6,15.3c4.9,2.5,10.6,3.2,16,2c2.4-0.6,4.7-1.6,6.8-3.1l-14.1-4.3
	c-0.3-0.2-0.3-0.6-0.1-0.9c0-0.1,0.1-0.1,0.1-0.1c6.8-0.9,13.6-2.7,20-5.2c6.9-2.6,13.6-5.8,20.2-9c10.1-4.9,20.8-8.4,31.8-10.7
	c5.2-1.1,10.5-1.9,15.9-2.7c2.8-0.4,5.7-0.5,8.6-0.8c1.1-0.1,2.3-0.2,3.4-0.3c1-0.1,2.1-0.2,3.2-0.2c3.5,0.2,7.1,0.5,10.6,0.8
	s6.8,0.8,10.3,1.3c12.4,1.9,24.5,5.7,35.8,11.2c9.8,5,19,11.3,27.2,18.7c3.6,3.2,7.1,6.4,10.8,9.6c1.5,1.2,2.3,3.1,2.2,5
	c0,4.5-0.7,9-2.1,13.3c-1.9,6.1-4.8,11.9-8.7,17.1c-2.4,3.2-5.2,5.9-8.4,8.2c-7.1,5-15,8.6-23.4,10.8c-8.4,2.4-17.2,3.4-25.9,2.9
	c-7.5-0.5-14.5-2.4-20.8-6.7c-3.1-2.1-5.8-4.8-7.7-8.1c-0.3-0.5-0.4-1.1-1-1.4c-0.6,0.1-0.4,0.6-0.4,0.9c0,10.9,4.4,19.6,12.5,26.7
	c0.5,0.4,1.1,0.7,1.4,1.4c-0.3,0.6-0.8,0.3-1.2,0.4c-0.4,0-1,0-1.4,0c-6.5,0-13,1.3-19,3.8c-7.1,2.9-13.2,7.7-17.6,14
	c-4.6,6.6-7.6,14.2-8.8,22.2c-0.6,4.9-0.8,9.8-0.4,14.6c0.3,3.3,0.9,6.7,1.7,9.9c0.1,0.4,0.2,0.7,0.3,1.1c0.3,1.4,0.1,1.7-1.1,2.2
	c-0.4,0.2-0.9,0.3-1.4,0.5c-3.9,1.3-7.5,3.6-10.2,6.7c-0.8,0.9-2,1.5-3.2,1.6c-7.2,1.2-14.3,0.3-21.4-1.5c-7.2-1.8-14-4.8-20.3-8.7
	c-2.3-1.5-4.4-3.1-6.4-4.8c-1-0.8-1.6-1.9-1.6-3.2c-0.3-3.6-0.6-7.2-1.1-10.9c-0.5-4.3-1.2-8.5-1.9-12.8c-0.4-2.8-1-5.7-1.4-8.5
	c-0.8-5.3-2.1-10.5-3.7-15.7c-2.6-9-5.9-17.8-9.1-26.6c-4.4-11.8-8.9-23.5-13-35.4c-2.7-7.8-4.9-15.8-6.4-23.9
	C360.7,149,360.3,142.2,360.6,135.4z"/>
<path class="st14" d="M296.6,649.1c0.5-0.6,0.9-1.2,1.4-1.8c3.7-4.4,7.2-9,10.5-13.7c8.5-12.4,16.8-25,24.4-38
	c11.4-19.6,21.5-40.1,30.1-61.1c8.6-20.9,15.7-42.4,21.3-64.4c3.2-12.2,5.9-24.6,8.1-37c0.8-4.6,1.5-9.3,2.1-13.9
	c0.1-1,0.5-1.8,1.3-2.4c2.5-1.7,5.2-3.3,7.9-4.7c0.4-0.1,0.7-0.1,1.1-0.1c0.8,0.7,1.2,1.8,1,2.9c0,3.6,0.5,7.3,0.5,10.9
	c0.2,12.9,1,25.7,1.3,38.5c0.5,18.8,1.3,37.6,1.7,56.3c0.4,14.2,0.7,28.4,1.1,42.6c0.7,19.7,0.3,39.3,0.5,59c0.1,1.6,0,3.3-0.2,4.9
	c-0.2,1-0.5,2-0.6,3.1c0,1.3-0.9,2.4-2.1,2.8c-4.1,1-8.1,2.7-11.8,4.9c-0.5,0.2-1.1,0.4-1.6,0.5c-2.3,0-4.5,0.6-6.5,1.9
	c-1.3,1-2.9,1.5-4.5,1.6c-2.3,0.1-4.5,0.8-6.4,2.1c-3.4,1.2-7.2,0.6-10.3,2.8c-0.4,0.1-0.9,0.2-1.3,0.3c-3.3-0.1-6.6,0.1-9.6,1.7
	c-0.3,0.1-0.5,0.2-0.8,0.3l-2,0.6c-0.4,0.1-0.8,0.2-1.3,0.2c-2.7-1-5.1,0.3-7.6,1.1c-1.6,0.2-3.2,0.3-4.8,0.2
	c-2.7,0.1-5.4-0.3-8,0.4c-1.2,0.2-2.4,0.3-3.7,0.2c-10.2,0.3-20.5-0.2-30.6-1.4C296.9,650.1,296.5,649.8,296.6,649.1z"/>
<path class="st32" d="M527.2,18.4c4-0.2,8,0.1,11.8,1.1c1.3,0.3,2.6,0.7,3.8,1.3c8.2,3.9,15.9,8.6,23,14.1c1.6,1.2,3.2,2.4,4.8,3.7
	c2.3,2,4.3,4.3,6.1,6.9c5.3,7.6,9.9,15.7,13.7,24.2c3.5,7.6,6.4,15.4,8.8,23.4c0.6,2,1.1,4.1,1.7,6.1c1.3,4.2,2.7,8.4,4.4,12.4
	c1.6,4.3,3.3,8.6,4.7,12.9c1.1,3.1,1.7,6.3,1.7,9.6c-0.1,3.6-1.9,6.1-4.7,8.1c-0.9,0.6-1.2,0.5-2-0.1c-4.7-3.8-9.4-7.6-14.2-11.2
	c-4.7-3.5-9.6-6.6-14.8-9.4c-4.3-2.4-8.7-4.5-13.2-6.2c-7.1-2.9-14.5-5.1-22-6.4c-0.5-0.1-0.9-0.2-1.4-0.3
	c-3.8-0.8-7.6-1.8-11.5-2.4c-2.2-0.3-4.4-0.6-6.5-0.8c-3.1-0.4-6.1-0.2-9.2-0.6c-2.5-0.3-5-0.4-7.4-0.4c-1.4-0.1-2.9,0.1-4.3,0.3
	c-1.1,0.2-2.3,0.2-3.4,0.2c-4.1,0.1-8.2,0.4-12.3,1.1c-1.6,0.2-3.2,0.3-4.8,0.6c-6.2,0.9-12.2,2.2-18.2,3.7c-1,0.2-2,0.6-3,0.9
	c-0.9,0.3-2,0-2.6-0.7c-3.3-3.1-6.3-6.5-8.8-10.2c-1.9-2.8-3.1-6-3.7-9.3c-0.2-2.1,0.2-4.2,1.1-6.2c1-2.3,2.4-4.4,4.2-6.2
	c4-4.1,8-8.3,12.3-12.2c3.1-2.7,5.8-5.9,9.2-8.2l0.2-0.2c6-5.5,12-11.1,17.5-17c2-2.1,3.8-4.3,5.4-6.7c4.7-6.9,11.2-11.2,18.9-13.8
	C517.2,18.8,522.2,18.1,527.2,18.4z"/>
<path d="M410.1,627.8c0-0.8,0.1-1.5,0.1-2.3c-0.1-16.3,0-32.6-0.3-48.9c-0.2-17-0.7-33.9-1.2-50.9c-0.3-12.2-0.7-24.3-1.1-36.5
	c-0.6-16.6-1.1-33.1-1.8-49.7c-0.3-9.2-0.7-18.4-1.1-27.6c0.1-1.8-0.7-3.5-0.5-5.3c-1.4-3.4-1.3-7.2,0.3-10.5
	c1.2-2.4,3.5-3.4,6.1-3.6c5.6-0.5,11.2-0.7,16.9-0.6c5.3,0.2,10.5,0,15.8,0c4.3,0,8.1,0.7,9.8,5.4c0.5,1.4,1.8,1.5,3.1,1.6
	c11.3,0.8,22.4,3.3,33,7.4c4,1.6,7.9,3.6,11.5,5.8c1,0.6,1.9,1.5,2.6,2.5c0.6,0.5,1.2,1,1.8,1.4c2.9,1.8,5.6,4,8,6.4
	c0.4,0.3,0.7,0.6,1.1,0.8c1.8,0.2,2.6,1.8,3.8,2.8c6.5,6.2,11.4,13.5,15.8,21.3c1.6,2.8,2.9,5.8,4.4,8.7c1.1,2,1.7,4.2,1.9,6.5
	c2.4,6.4,4.3,12.9,5.8,19.5c2.1,8.9,3.5,17.9,4.2,27c0.7,9.2,1,18.4,0.7,27.6c-0.3,7.1-0.6,14.2-1.4,21.2
	c-1.8,17-5.1,33.7-11.5,49.7c-4.1,10.5-10.1,20.1-17.7,28.4c-10,10.9-23,18.5-37.4,21.9c-7.4,1.8-14.9,2.8-22.5,2.9h-1.2
	c-0.9,0.5-0.8,1.3-1,1.9c-0.7,1.9-2.3,3.4-4.3,3.9c-0.9,0.3-1.9,0.4-2.8,0.5c-4.5,0.2-9,0.3-13.5,0.6c-2.7,0.1-5.4,0.4-8,0.6
	c-2.6-0.1-5.1,0-7.7,0.4c-2.5,0.5-5.2,0.3-7.6-0.4c-2.1-0.5-3.7-2.1-4.2-4.2c-0.4-1.6-0.6-3.2-0.5-4.8c0-1,0-2.1,0-3.1
	c-0.5-0.5-0.7-1.2-0.6-1.8c0.6-7,0-14.1,0.4-21.1C409.8,631.4,409.7,629.6,410.1,627.8z"/>
<path class="st24" d="M583.9,469.3c-0.2,0-0.3,0.1-0.4,0.2c-0.9-0.1-1.6-0.6-2-1.4c-3.9-6.1-8.9-11.3-14-16.4
	c-6.4-6.5-13.2-12.5-20.2-18.4c-10.8-9.1-22.1-17.5-33.5-25.7c-1.3-0.9-2.4-2.2-3.2-3.6c-1.1-2.2-1.9-4.6-2.4-7.1
	c-0.9-4.4-1.5-8.9-1.9-13.4c-0.5-4.9-1-9.7-1.5-14.6c-0.3-2.4-0.5-4.8-0.7-7.1c-0.4-4.6-1.2-9.1-2.4-13.6c-0.7-2.3-1.6-4.5-2.4-6.8
	c0.5-0.5,0.8,0.1,1.1,0.4c3.5,2.9,7.3,5.4,11.3,7.4c5.8,2.9,11.7,5.7,17.6,8.5c6.1,3,12.3,5.9,18.2,9.3c1.9,1.1,3.7,2.4,5.6,3.6
	c3.1,2.1,5.7,4.9,7.4,8.3c3.2,6.3,6,12.8,8.7,19.4c3.5,8.8,6.7,17.8,9.5,26.8c2.1,6.3,3.6,12.7,4.7,19.2c0,0.3,0.1,0.6,0.1,0.9
	c0.6,7.7,0.8,15.5,0.6,23.3C584,468.8,584,469.1,583.9,469.3z"/>
<path class="st32" d="M524.1,15h-3.2c-5.4,0.1-10.7,1.3-15.6,3.5c-4.6,2-8.8,4.7-12.4,8.2c-1.3,1.3-2.5,2.6-3.5,4.1
	c-0.8,1.1-1.7,2.1-2.6,3c-1.2,1.1-2.2,2.3-3.2,3.7c-0.5,0.7-1.1,1.3-1.8,1.8c-1.4,1-2.7,2.2-3.9,3.4c-2.9,2.8-6.1,5.2-9.2,7.8
	s-6.6,5.2-9.9,7.8c-5.4,4.3-10.5,8.9-15.2,14c-3,3-5.2,6.7-6.5,10.7c-1.4,4.5-1,9.4,1,13.7c2.1,4.7,5.4,8.9,9.5,12
	c1.6,1.2,3.2,2.4,4.8,3.5c0,0.8-0.6,0.8-1,1c-4.5,1.5-9,3.4-13.3,5.5c-0.8,0.5-1.9,0.5-2.7-0.1c-3.7-2.3-7.1-4.9-10.3-7.7
	c-3.3-3-6.2-6.3-8.8-9.8c-2.3-3.2-4.2-6.6-5.8-10.2c-1.6-3.5-2.9-7.1-3.9-10.8c-1.1-3.7-1.7-7.5-1.7-11.3c0.1-3.9,1.2-7.8,3.3-11.1
	c1.4-2.3,3.1-4.4,5-6.3c3.5-3.5,7.2-6.6,11.3-9.2c6.3-4.3,13-8.2,19.8-11.7c3.5-1.8,7-3.7,10.5-5.4c6.3-3.3,12.9-6,19.7-8.1
	c10.6-3.2,21.7-4.8,32.8-4.7c3.1,0.1,6.3,0.5,9.4,1c1.5,0.3,3,0.5,4.5,0.7C522.2,14,523.2,14.4,524.1,15z"/>
<path class="st32" d="M410,632.9c0,7.7,0.4,15.5-0.5,23.2c-7.4,3.5-15.1,6.5-22.9,9.1c-7,2.2-14.2,3.9-21.4,5.3
	c-3.7,0.7-7.3,1.5-11,2.1c-3.2,0.5-6.5,0.7-9.6,1.4c-2.5,0.5-5,0.2-7.4,1c-0.1,0-0.2,0-0.3,0c-3.6-0.2-7.2,0.8-10.9,0.7
	c-1.6-0.1-3.3,0-4.8,0.4c-0.8,0.1-1.5,0.2-2.3,0.1c-3.7,0-7.5,0-11.2,0c-2.1,0.2-4.2,0-6.3-0.5c-0.5-0.1-1-0.1-1.4-0.1
	c-6.4-0.3-12.7-1.4-18.8-3.3c-1.9-0.6-3.8-1.2-5.7-1.9c-0.9-0.4-1.8-0.8-2.6-1.2c-0.3-0.2-0.3-0.5-0.1-0.8c0.1-0.1,0.1-0.1,0.2-0.2
	c0.6-0.3,1.2-0.6,1.8-0.9c4.1-2,7.9-4.7,11.3-7.8c1.6-1.4,3.2-2.7,4.7-4.2c1.3-1.2,2.5-2.6,3.6-4.1c0.3-0.4,0.7-0.7,1.1-0.9
	c10.1,1.6,20.4,2.1,30.6,1.5c11.1-0.5,22.2-0.5,33-3.4c0.3-0.1,0.6-0.2,0.9-0.3c0.7-0.1,1.5-0.2,2.2-0.4c0.3-0.1,0.5-0.2,0.8-0.2
	c2.8-0.4,5.5-1.1,8.1-2.2c2.6-0.7,5.3-0.9,7.7-2.1c0.3-0.1,0.5-0.2,0.8-0.3c0.7-0.1,1.4-0.3,2-0.5c3.7-0.7,7.1-2.2,10.7-3.4
	c5.3-1.1,10-4,15.1-5.5C408.2,633,409,632.3,410,632.9z"/>
<path class="st33" d="M605.3,221.2c0.1,0.1,0.2,0.2,0.1,0.4c0,0,0,0,0,0c0.2,0.4,0.1,1,0.6,1.3c0.3,0.5,0.6,1,0.8,1.5
	c3.2,6.9,7.4,13.3,12.3,19c3.1,3.5,6.9,6.4,11.2,8.4c5.5,2.6,11.2,4.5,17.1,5.7c3.6,0.7,7.2,1,10.9,0.8c2.7-0.1,5.3,0,8,0.3
	c2.3,0.4,4.4,1.5,6,3.1c1.3,1,1.7,2.7,1,4.2c-0.6,1.4-1.4,2.8-2.3,4c-1.9,2.4-4.2,4.5-6.6,6.4c-2.2,1.7-4.6,3.2-7,4.5
	c-4.2,2.3-8.9,3.6-13.7,3.9c-9.5,0.7-18.5-1.2-27.4-4.4c-8.5-3.1-16.7-6.9-24.5-11.3c-7.1-3.9-14-8-20.9-12.2
	c-0.3-0.2-0.6-0.5-0.9-0.7c-0.2-0.6-0.8-0.5-1.1-0.7l0,0c-0.2-0.4-0.8-0.3-1.1-0.6h-0.1c-0.2-0.2-0.3-0.4-0.7-0.5l0,0
	c-0.2-0.5-0.8-0.4-1.1-0.6l0,0c-0.2-0.4-0.8-0.3-1.1-0.6h-0.1c-0.2-0.2-0.3-0.4-0.7-0.5l0,0c-0.5-1.2,0.2-1.6,1.2-1.8
	c0.6-0.1,1.1,0,1.7,0.2c6.2,2.1,12.5,1.5,18.9,1c4.3-0.4,6.9-2.8,9.7-5.3c0.5-0.7,1-1.4,1.7-2c5.1-4.1,5-9.9,4.4-15.5
	c-0.4-3.7-0.2-7.4-0.5-11.1c-0.2-2.1,0.6-2.4,2.3-1.4c0.1,0,0.2,0.1,0.1,0.2c0,0,0,0.1-0.1,0.1c0.2,0.5,0.1,1,0.5,1.4l0,0
	c0.5,0.5,0,1.3,0.6,1.7l0,0C605.1,220.3,605,220.8,605.3,221.2z"/>
<path class="st32" d="M427.9,392.8c-1.7,0-3.5,0.1-5.2,0c-4-0.2-8,0.4-12,0.5s-6.3,2.8-6.4,6.6c0,2.2,0,4.4,0,6.6
	c-2.5,1.7-4.9,3.6-7.1,5.7c-0.3,0.3-0.7,0.6-1.1,0.9c-0.2,0.1-0.4,0.1-0.5,0c-0.1-0.1-0.2-0.3-0.2-0.5c0.6-1.6,0.1-3.5,0.8-5.1
	c0-0.2,0.1-0.4,0.1-0.6c0.1-2.6,0.3-5.2,0.7-7.7c0.6-2.6,0.4-5.3,0.9-8c0.4-2.7,0.7-5.5,0.7-8.3c0-1.1,0.1-2.3,0.4-3.4
	c0.1-0.3,0.1-0.6,0.1-0.9c-0.2-3.9,0.6-7.8,0.6-11.7c0-1.4,0.1-2.9,0.4-4.3c0.2-1.9,0.3-3.8,0.2-5.7c0.8-0.5,1.1,0.2,1.4,0.6
	c2.8,2.8,5.8,5.3,9.1,7.4c6,4,12.6,6.9,19.6,8.6c2.7,0.7,5.4,1.1,8.2,1.3c2,0.3,4,0.4,6,0.4c9.1-0.5,17.9-2,26-6.4
	c3.8-2,7.3-4.6,10.2-7.8c4.2-4.5,7.1-10.1,8.4-16.1c0.1-0.8,0.2-1.5,0.2-2.3c0-1,0-2.1,0.1-3.2c0-0.5,0.2-1,0.8-1
	c0.5,0,0.9,0.2,1.2,0.7c0.3,0.4,0.3,0.9,0.2,1.4c-0.5,1.8-0.6,3.6-0.5,5.4c0,2.5,0,5,0,7.5c0.1,3.2,0.5,6.3,1,9.4
	c0,0.4,0.1,0.8,0.2,1.1c0.2,3.5,0.8,7,1,10.5c0.2,2.9,0.8,5.7,0.8,8.6c0.1,1.9,0.3,3.8,0.7,5.7c0.5,4.6,1.4,9.3,2.7,13.8
	c0.4,1.7,1,3.3,1.8,4.8c0.5,1,0.8,1.9,1.3,2.9c0.1,0.6-0.2,0.8-0.8,0.9c-2.3-1.3-3.9-3.3-5.9-5c-10.8-9.4-23-15.8-37.5-17.4
	c-7.5-0.8-15-0.1-22.2,2.1C432.2,391.9,430,392.2,427.9,392.8z"/>
<path class="st0" d="M480.5,337.6c-0.3,2.7-1.2,5.2-2.7,7.4c-2.6,4.2-6.3,7.5-10.7,9.8c-5.2,2.6-10.8,4.2-16.6,4.6
	c-2.8,0.3-5.5,0.4-8.3,0.3c-8.7-0.3-16.8-2.9-24.5-6.8c-5.6-2.8-10.7-6.5-15.2-10.8c-1.2-1.1-1.9-2.6-1.8-4.3
	c0-7.6-0.2-15.2-0.4-22.7c0-2-0.2-4-0.3-6c0.6-0.2,1,0.2,1.3,0.5c7.3,6.5,16.2,10.9,25.8,12.6c6.2,1.3,12.6,1.3,18.9-0.1
	c0.5-0.1,0.9-0.2,1.4-0.3c0.4-0.1,0.8,0.1,1,0.4c0.1,0.2,0.2,0.3,0.3,0.5c1.9,3.1,4.6,5.7,7.9,7.4c4.8,2.6,10,4.5,15.3,5.6
	C474.6,336.4,477.4,337,480.5,337.6z"/>
<path class="st32" d="M593.3,64.5c0-0.2-0.1-0.4-0.1-0.6c-0.2-0.6,0.1-0.7,0.6-0.6l0,0c0.2,0.2,0.4,0.4,0.5,0.6l0,0
	c0.2,0.2,0.4,0.4,0.5,0.6c3.8,5.4,7.3,11,10.7,16.7c2.6,4.3,5.2,8.5,7.8,12.7c1.5,2.4,3.1,4.8,4.6,7.2c2.3,3.4,4.8,6.7,7.5,9.8
	c4.2,5.2,8.5,10.3,12.6,15.6c2.1,2.6,3.9,5.5,5.3,8.5c0.7,1.5,1.2,3,1.7,4.6c1.4,4.9-0.5,8.6-4.3,11.6c-2.7,2-5.7,3.5-9,4.3
	c-2.4,0.6-4.8,1.1-7.3,1.6c-1,0.1-1.9-0.2-2.6-0.9c-0.9-0.7-1.8-1.4-2.7-2.1c-2.6-2.1-5.1-4.3-7.7-6.5c-0.3-0.3-0.6-0.6-0.8-0.9
	c0.9-0.7,1.6-1.4,2.5-2c2.9-2.1,4.9-5.2,5.5-8.8c1-4.8,0.2-9.3-1-13.9c-1.5-5.5-3.6-10.9-6.3-16c-2-3.9-3.7-8-5-12.2
	c-1.8-5.2-3.9-10.4-6.1-15.4c-1.8-4.1-3.9-8.1-5.8-12.2c-0.3-0.3-0.2-0.9-0.6-1.1l0,0C593.7,64.9,593.5,64.7,593.3,64.5z"/>
<path class="st34" d="M535.7,224.7c2.8-0.2,5.5-0.3,8.3-0.6c13-1.5,25-5.6,35.7-13.3c3.7-2.6,6.9-5.8,9.6-9.5c0.3-0.4,0.6-0.7,1-1
	c0.8,0.5,1.3,1.4,1.3,2.3c0.4,3.3,1.4,6.4,1.8,9.7c0,0.6,0.1,1.1,0.2,1.7c0.1,0.4,0.2,0.8,0.3,1.1c0.1,0.4,0.2,0.8,0.3,1.2
	c0.1,0.4,0,0.8-0.1,1.2c-2.7,3.1-4.6,6.7-6.5,10.3c-2.3,4.3-6.4,6.9-10.4,9.2c-4.6,2.6-9.2,5.4-14.5,6.5c-2.6-0.2-4.5-1.9-6.7-3
	c-7-3.6-13-8.6-19.1-13.5C536.3,226.5,535.4,225.9,535.7,224.7z"/>
<path class="st32" d="M540.3,462.5c-1-0.8-0.7-2.1-1.2-3.2c-3.6-8.7-8.3-16.8-13.9-24.3c-2.3-3-4.8-5.9-7.4-8.8
	c-0.1-0.6,0.1-0.8,0.7-0.7c1.6,0.9,3.1,1.9,4.4,3.1c3.5,2.7,6.9,5.4,10.3,8.1c2.9,2.3,5.7,4.8,8.5,7.2l6.5,5.5
	c0.2,0.2,0.4,0.4,0.6,0.6c3.7,3.5,7.6,7,11.2,10.7c2.6,2.6,5,5.5,7.4,8.3c0.8,1,2.1,1.3,2.7,2.5c-8.4-1.7-16.6-4.4-24.4-8
	c-1.5-0.7-3-1.4-4.4-2C540.6,461.3,540.5,461.4,540.3,462.5z"/>
<path class="st35" d="M596.1,247.1c-0.1,0.3-0.3,0.5-0.5,0.7c-1.7,1.3-3.5,2.7-5.2,4c-0.7,0.6-1.6,0.8-2.4,0.5
	c-1.2-0.3-2.5-0.1-3.6,0.5c-0.9,0.3-1.8,0.5-2.7,0.3c-2.3,0.1-4.7-0.8-7,0c-0.8,0.3-1.7,0.2-2.5-0.2c-1.9-0.8-4.1-0.7-6-1.8
	c-0.4-0.2-1-0.2-1.3,0.1c-0.2,0.3-0.4,0.6-0.5,1c-0.4-0.2-0.9-0.4-1.3-0.6c-6-3.4-12.1-6.7-17.9-10.3c-6.8-4.2-14-7.9-21.1-11.7
	c-3.8-2-7.5-4.3-10.9-6.9c-2.1-1.6-4-3.3-5.7-5.3c-0.1-0.5,0.1-0.8,0.7-0.6c6.3,4.2,13.3,6.2,20.7,7.2c0.7,0.2,1.5-0.1,2.2,0.3
	l1.1,0.1c3.7,3.4,7.9,6.2,12,9.1c3.3,2.5,6.8,4.8,10.4,6.9c2.6,1.5,5.1,3.3,8.2,3.8c1.2,0.1,2.4,0.6,3.4,1.3
	c1.5,1.3,3.4,1.1,5.2,1.2c2,0.5,3.9,1.2,5.8,2c3.9,1.2,7.7,2.9,11.7,0.5c1.5-0.4,3-1,4.3-1.9C594.2,247,595.1,246.4,596.1,247.1z"/>
<path class="st24" d="M492.2,333.7c-0.2,0.3-0.6,0.3-0.9,0.1c-5.8-2.4-11.7-4.8-17.5-7.2c-3.2-1.3-6.3-2.8-9.3-4.5
	c-1.6-0.9-3.1-2-4.4-3.2c-1.3-1.3-1.4-2.3-0.3-3.8c0.3-0.4,0.6-0.8,0.9-1.1c4.6-4,9.8-5.5,15.7-3.7c2.6,0.9,4.7,2.7,5.9,5.2
	c1.9,3.3,3.8,6.7,5.6,10c1.2,2.1,2.3,4.2,3.4,6.3C491.6,332.4,491.9,333.1,492.2,333.7z"/>
<path class="st36" d="M596.1,247.1c-1,0.2-2,0.6-2.8,1.3c-1.3,0.8-2.5,1.7-4.1,1.6c-0.1-0.3-0.1-0.6,0.1-0.8
	c3.1-2.3,5.1-5.6,7.8-8.3c2.3-2.4,3.4-4.4,1.8-7.5c-0.2-0.4-0.3-0.9-0.5-1.4c-0.7-1.3-0.6-2.8-1.2-4.1c-1.3-3.3-2.1-6.8-2.5-10.3
	c-0.2-2.6-1.3-5.1-1.8-7.7c-0.6-3.3-1.1-6.6-2-9.8c-0.2-0.3-0.2-0.6,0-0.9c0.4-0.8,0.9-1.7,1.3-2.5c3.2-5.5,5.4-11.6,6.6-17.9
	c0.2-0.8,0.2-1.7,0.3-2.6c1.2,0.1,0.7,1.1,0.8,1.6c0.2,2.9-0.2,5.8,0.2,8.7c-0.2,7.6,0.4,15.2,1.8,22.6c0.5,2.4,1.1,4.8,1.7,7.2
	l-0.3-0.1c-0.3-0.1-0.7-0.4-1-0.1c-0.2,0.2-0.3,0.4-0.4,0.7c-0.1,0.8-0.1,1.5,0.2,2.3c0.4,1,0.4,2.1,0,3.1c-0.3,0.9-0.3,1.9,0,2.8
	c0.6,1.7,0.2,3.6,0.8,5.3c0.1,0.5,0,0.9-0.2,1.4c-0.1,0.4-0.4,0.8-0.3,1.1c0.7,2-0.4,3.9-0.5,5.8c-0.1,1.9-1.2,3.3-2.5,4.6
	S597.3,245.9,596.1,247.1z"/>
<path class="st32" d="M635.3,193c2,0.7,4,1.4,5.9,2.1c5.2,1.6,10.5,2.9,15.9,3.8c7.1,1.4,14.3,1.2,21.5,1c2.9-0.2,5.7-0.7,8.5-1.4
	c5.3-0.9,10.3-2.9,15.5-4c2-0.4,3.9-0.9,5.9-1.3c0.6-0.1,1.1-0.1,1.7,0.1c0.2,0.1,0.4,0.3,0.3,0.5c0,0,0,0.1-0.1,0.1
	c-0.5,0.9-1.3,1.7-2.1,2.3c-4.4,3.6-9.6,6.1-15.2,7.3c-4.4,1.1-9,1.7-13.6,1.7c-1.2,0-2.5,0-3.7,0c-3.6,0-7.3-0.4-10.8-1.1
	c-5.6-0.8-11.1-2.1-16.4-4c-5-1.8-9.8-3.9-14.4-6.4C634.2,192.5,634.7,192.6,635.3,193z"/>
<path class="st32" d="M602.5,462.5l-9.8,2.9c-0.7-0.5-0.6-1.4-0.6-2.1c0-3.4,0-6.7,0-10.1c0.1-1.1,0-2.1-0.3-3.1
	c-0.2-0.6-0.2-1.1-0.2-1.7c0.1-4.9-1-9.7-2.1-14.4c-0.2-0.9-0.4-1.8-0.6-2.7c0.3-0.1,0.6,0,0.8,0.3
	C595.2,441.4,599.5,451.8,602.5,462.5z"/>
<path class="st37" d="M591,199.9c0.9,0.9,1.3,2.1,1.1,3.4c-0.2,1.5,0.2,3.1,1,4.4c0.6,1,0.9,2.2,0.7,3.3c-0.1,1.4,0.2,2.9,1,4.1
	c0.4,0.6,0.7,1.4,0.7,2.1c0,3.5,1.1,6.7,2.2,10c0.1,0.3,0.1,0.6,0.2,0.8c1.3,3.5-1.4,5.3-3.3,7.3c-4.7,5-10.5,8.5-16.5,11.7
	c-2.2,1.2-4.5,0.6-6.7,0.3c-1.1-0.2-2.5,0.2-3-1.3c2.4-1.5,4.9-2.8,7.6-3.9c6.4-2.1,11.2-6.6,15.8-11.2c2.8-2.6,3.8-6.6,2.7-10.2
	c-0.3-1.2-0.5-2.4-0.5-3.6V216c-0.2-0.2-0.3-0.4-0.6-0.6v-1.1c-0.3-0.3-0.2-0.9-0.6-1.1c0.2-1.6-0.5-3-0.7-4.5
	c-0.3-2.1-0.9-4.1-1.1-6.2c-0.1-0.7-0.3-1.5-0.6-2.2c0-0.2,0.1-0.3,0.2-0.4C590.7,199.7,590.8,199.6,591,199.9z"/>
<path class="st38" d="M568.5,245.9c0.8,0.6,1.8,1,2.9,1.1c0.2,0.1,0.3,0.3,0.2,0.4s-0.1,0.2-0.2,0.2c-0.6,0-1.2,0-1.7,0
	c-1.4,0.2-2.9-0.3-3.9-1.4c-0.6-0.6-1.4-1-2.3-1c-0.9-0.1-1.8-0.4-2.8-0.5c-0.8,0-1.5-0.4-2-0.9c-0.7-0.9-1.8-1.5-3-1.4
	c-0.7,0-1.3-0.4-1.6-1.1c-0.2-0.6-0.8-1.1-1.5-1.1c-1-0.1-1.8-0.6-2.4-1.4c-0.2-0.1-0.3-0.2-0.4-0.4c-0.8-1.5-2.9-0.6-3.6-2.1
	c-0.6-1.2-1.8-2-3.1-2.3c-1.3-0.3-1.5-1.7-2.5-2.3s-2.2-0.7-3-1.5c-0.2-0.2-0.4-0.4-0.5-0.6c-0.4-0.9-1.2-1.5-2.1-1.7
	c-1.5-0.4-2.7-1.7-2.7-3.3c1.2-0.2,2.4-0.1,3.5,0.1c0.5,0.8,1.2,1.5,2,2c2.4,1.6,4.6,3.4,6.7,5.3c2,1.6,4.1,3.1,6.3,4.5
	c3.2,2,6.6,3.9,9.9,5.8c0.6,0.4,1.4,0.7,2.1,0.8C564.8,243.8,567.2,243.8,568.5,245.9z"/>
<path class="st39" d="M522.9,7.2c1.6-1.3,3.6-2,5.6-2.1c4.4-0.2,8.8,0.2,13,1.3c3.8,0.9,7.2,3.1,10.3,5.5c0.3,0.3,0.6,0.8,0.7,1.2
	c0.2,0.3-0.1,0.5-0.4,0.5c-0.3,0-0.6-0.1-0.8-0.2c-4.7-1.7-9.5-3-14.3-4c-3.1-0.6-6.2-1-9.3-1.5L522.9,7.2z"/>
<path class="st40" d="M360.1,648.6c-1.6,0.8-3.4,1.3-5.2,1.4c-3.7,0.6-7.4,1-11.1,1.5s-7.5,0.2-11.2,0.6c-7.2,0.8-14.3,0.4-21.5,0.6
	c-5,0.1-9.9-0.9-14.8-1.8c-0.3-0.1-0.7-0.3-1-0.6c0.4-0.4,0.6-1,1.2-1.2l0.6,0.6c10.3,1.7,20.7,2.1,31.1,1.2h3.5
	c2.6-0.8,5.4,0.2,8.1-0.6h5.2c2.4-0.9,5-0.6,7.5-1.1h1.1c0.5-0.5,1.3,0,1.8-0.5l0,0C357,648.1,358.6,647.3,360.1,648.6z"/>
<path class="st18" d="M635.3,193c-0.5,0-0.9,0.2-1.2,0.6c-1.9-0.8-3.8-1.7-5.5-2.9c-3.8-2.3-7.4-5-11-7.7c-0.8-0.5-1.5-1.2-1.9-2.1
	l0,0c1.5,0,2.3,1.3,3.3,2.1c4.5,3.4,9.3,6.3,14.4,8.8C634.2,192,634.8,192.4,635.3,193z"/>
<path class="st41" d="M600.1,186.7c-0.3-0.8-0.4-1.7-0.3-2.5c-0.1-2-0.1-4-0.2-6c0.1-0.7-0.1-1.3-0.5-1.9c-0.2-0.8-0.2-1.7,0.2-2.5
	c0.6,0.4,0.9,1,0.8,1.7C600.3,179.3,600.3,183,600.1,186.7z"/>
<path class="st42" d="M593.9,63.3c-0.2,0.2-0.4,0.4-0.6,0.6c-1.4-1.5-2.2-3.5-3.4-5.3c0.4,0,0.7,0,0.7,0
	C591.8,60.1,593,61.6,593.9,63.3z"/>
<path class="st43" d="M367.4,129.1c-0.4,0.3-0.6,0.8-0.5,1.2c0,0.6,0,1.1-0.1,1.7c-0.4-0.5-0.6-1.2-0.5-1.9c0-1.9,0-3.8,0-5.7
	c0.2-0.3,0.3-0.3,0.5,0C366.8,126,367.7,127.4,367.4,129.1z"/>
<path class="st44" d="M518.4,425.6l-0.7,0.7l-3.4-2.9c0.2-0.1,0.5-0.4,0.6-0.4C516.3,423.7,517.6,424.3,518.4,425.6z"/>
<path class="st45" d="M500,411.3l0.6-0.6c1,1.2,2,2.4,3,3.6c0,0.1-0.1,0.3-0.2,0.5l-2.3-1.7C500.7,412.4,499.5,412.4,500,411.3z"/>
<path class="st46" d="M612.3,178c1.5,0.2,2.3,1.5,3.4,2.3c-0.2,0.2-0.3,0.4-0.5,0.5C614,180.1,613,179.2,612.3,178z"/>
<path class="st47" d="M387.1,180.8c0.4,0.3,0.6,0.7,0.7,1.1c0,0.2,0,0.3-0.1,0.4c-0.2,0.1-0.4,0-0.5-0.1c-0.3-0.2-0.5-0.5-0.8-0.8
	L387.1,180.8z"/>
<path class="st48" d="M395.2,147.5v1c-0.3-0.1-0.7-0.2-1-0.3c-0.2-0.1-0.3-0.2-0.3-0.4c0-0.4,0.3-0.4,0.5-0.4
	C394.7,147.4,394.9,147.5,395.2,147.5z"/>
<path class="st49" d="M508.1,217.1l-0.7,0.6c-0.6-0.4-1.2-1-1.5-1.6c0.3-0.2,0.7-0.2,1,0C507.4,216.2,507.9,216.6,508.1,217.1z"/>
<path class="st50" d="M506.9,216h-1c-0.2-0.2-0.4-0.4-0.5-0.6c-0.1-0.1,0-0.3,0.1-0.4c0.1-0.1,0.2-0.1,0.2,0
	C506.2,215.1,506.7,215.5,506.9,216z"/>
<path class="st38" d="M531.1,224.6c-0.8,0-1.6,0.3-2.2-0.3C529.6,224.1,530.4,224.2,531.1,224.6z"/>
<path class="st36" d="M604.8,220c-0.7-0.4-0.6-1.1-0.6-1.7C604.7,218.8,604.9,219.4,604.8,220z"/>
<path class="st51" d="M366.9,124.4h-0.2h-0.3c0-0.3,0-0.6,0-0.9c0.1-0.2,0.1-0.3,0.3-0.5c0.1,0.1,0.2,0.3,0.3,0.5
	C366.9,123.9,366.9,124.1,366.9,124.4z"/>
<path class="st35" d="M566.2,253.5c0.5,0,1,0.1,1.1,0.6C566.8,254.2,566.4,253.9,566.2,253.5z"/>
<path class="st42" d="M593.8,65.1c0.4,0.2,0.7,0.7,0.6,1.1C594,66,593.8,65.6,593.8,65.1z"/>
<path class="st36" d="M606,222.9c-0.6-0.3-0.6-0.8-0.6-1.3C605.8,221.9,606,222.4,606,222.9z"/>
<path class="st36" d="M605.3,221.2c-0.4-0.3-0.6-0.7-0.5-1.2C605.2,220.3,605.4,220.7,605.3,221.2z"/>
<path class="st36" d="M604.2,218.3c-0.5-0.3-0.7-0.9-0.5-1.4C604.1,217.2,604.3,217.8,604.2,218.3z"/>
<path class="st35" d="M568,254.6c0.5-0.1,0.9,0.2,1.1,0.6C568.6,255.2,568.2,255,568,254.6z"/>
<path class="st35" d="M569,255.2c0.5,0,1,0.1,1.1,0.7C569.7,255.9,569.3,255.6,569,255.2z"/>
<path class="st35" d="M565.1,252.9c0.5-0.1,0.9,0.2,1.1,0.6C565.7,253.5,565.3,253.3,565.1,252.9z"/>
<path class="st18" d="M615.2,180.8l0.5-0.5c0,0.2,0,0.4,0,0.6h-0.2L615.2,180.8z"/>
<path class="st46" d="M612.3,178c-0.1,0-0.2-0.1-0.2-0.1C612.1,177.7,612.2,177.7,612.3,178z"/>
<path class="st34" d="M591,199.9h-0.2h-0.3c-0.1-0.3,0.1-0.5,0.4-0.6c0,0,0,0,0,0C590.9,199.5,591,199.7,591,199.9z"/>
<path class="st35" d="M564.4,252.4c0.3,0,0.6,0.2,0.7,0.5C564.7,252.9,564.4,252.7,564.4,252.4z"/>
<path class="st42" d="M593.3,64.5l0.5,0.6L593.3,64.5z"/>
<path class="st42" d="M594.9,64.5l-0.5-0.6L594.9,64.5z"/>
<path class="st42" d="M594.4,63.9l-0.5-0.6L594.4,63.9z"/>
<path class="st35" d="M567.2,254.1c0.3,0,0.6,0.2,0.7,0.5C567.6,254.6,567.3,254.4,567.2,254.1z"/>
<path class="st31" d="M1168.2,492.4c1.5-0.6,2.6-1,3.6-1.5c5.3-2.4,11-4,16.8-4.6c4.3-0.3,8.7,0.1,12.8,1.2
	c8.6,2.2,16.2,7.4,21.4,14.7c4.9,6.7,8.2,14.4,9.9,22.5c0.9,4.5,1.5,9.1,1.6,13.7c0,0.5,0,1,0,1.4c0,1.4-0.2,1.6-1.5,2.1
	c-3.6,1.2-7.3,2.5-10.9,3.6c-4.3,1.3-8.6,2.6-13,3.8c-3.2,0.9-3.3,0.8-3.3-2.4c0-5-0.6-10-1.9-14.8c-0.9-3.5-2.6-6.8-5-9.7
	c-3.8-4.5-8.8-5.9-14.5-4.9c-4,0.8-7.7,2.4-11.1,4.7c-1.3,0.8-2.5,1.7-3.8,2.6c-0.9,0.6-1.4,1.6-1.4,2.7c-0.1,4.4-0.4,8.8-0.4,13.2
	c0,5.8,0.2,11.7,0.5,17.5s0.7,11.5,1.1,17.2c0.4,5.5,1,11.1,1.5,16.6c0.3,3,0.4,5.9,0.8,8.9c0.4,4.3,1,8.6,1.5,12.8
	c0.4,3.6,0.8,7.2,1.3,10.8c0.7,4.9,1.3,9.9,2,14.8c0.3,2.4,0.7,4.7,1,7.1c0.1,0.9-0.1,1.2-1,1.3c-3.6,0.4-7.2,0.8-10.8,1.3
	c-4,0.5-8,1-12,1.6c-3.2,0.4-6.5,0.8-9.7,1.2c-0.3,0-0.6,0-0.9,0c-0.4,0-0.7-0.3-0.8-0.7c0-0.9-0.1-1.7-0.1-2.6
	c0.1-20.2,0.1-40.5-0.2-60.8c-0.1-7.4-0.2-14.8-0.6-22.2c-0.2-4.7-0.1-9.4-0.6-14.1c-0.5-5.2-0.1-10.4-0.9-15.5c0-0.2,0-0.4,0-0.6
	c-0.2-5.2-0.4-10.3-0.8-15.5c-0.3-5.9-0.8-11.9-1.2-17.8c-0.3-4.6-0.7-9.2-1.1-13.8c-0.1-1.6-0.3-3.2-0.5-4.9
	c-0.1-0.7,0.4-1.4,1.1-1.5l7.8-2l19.4-5.1c0.5-0.1,0.9-0.3,1.4-0.4c1-0.2,1.4,0.1,1.4,1.2c0.2,3.7,0.3,7.5,0.4,11.2
	C1168.1,488.7,1168.1,490.3,1168.2,492.4z"/>
<path class="st31" d="M997.9,603.4c0.9,0.2,1.1,0.9,1.5,1.4c4.8,7.6,9.7,15.2,14.5,22.8c2.2,3.5,2.4,2.7-0.7,5.6
	c-8.1,7.9-18.4,13.2-29.5,15.1c-4.1,0.6-8.3,0.5-12.3-0.4c-5.8-1.1-11.2-3.4-16-6.8c-5.2-3.8-9.5-8.8-12.4-14.5
	c-3.1-6.3-5.5-12.9-6.9-19.8c-1.2-5.1-2-10.3-2.7-15.6c-0.3-2.2-0.5-4.4-0.6-6.6c-0.7-11-0.9-22-0.5-33.1c0.2-4.3,0.1-8.7,0.5-12.9
	c0.5-4.5,0.3-9,0.8-13.5c0.4-3.5,0.5-7.1,0.7-10.6c0.3-4.4,0.7-8.8,1-13.2c0-0.3,0-0.6,0-0.9c0-0.9-0.2-1.3-1.1-1.3s-1.5,0-2.3,0.1
	c-2,0.2-4,0.4-6,0.7l-10.3,1.2c-0.9,0.1-1.3-0.2-1.4-1c-0.2-2-0.3-4-0.6-6c-0.4-2.8-0.5-5.7-0.8-8.6s-0.6-5.7-0.9-8.6
	c-0.1-1-0.2-2.1-0.2-3.2c0-0.7,0.4-1,1.1-1.1l8.3-0.6c5.2-0.4,10.3-0.8,15.5-1.1c0.7,0,1.3-0.5,1.3-1.2c0.1-0.4,0.1-0.8,0.2-1.1
	c0.1-3.3,0.3-6.5,0.7-9.8c0.3-3,0.6-6.1,1-9.1c0.3-2.5,0.3-5,0.7-7.4c0.4-3.2,0.5-6.5,0.8-9.8s0.4-3.3,3.4-2.8
	c2.1,0.4,4.2,0.4,6.3,0.7c4.3,0.6,8.6,0.9,12.9,1.4c2,0.2,4,0.4,6,0.7c1,0.1,1.3,0.5,1.3,1.5c0,0.9,0,1.7-0.1,2.6
	c-0.5,4.8-1,9.5-1.5,14.3c-0.3,2.8-0.5,5.5-0.8,8.3c-0.2,2.5-0.4,5-0.5,7.5c0,0.6,0,1.1,0.1,1.7c0.1,0.4,0.4,0.7,0.8,0.7
	c0.3,0,0.6,0,0.9,0c5.3-0.5,10.7-0.7,16-1.2c3.4-0.3,6.9-0.2,10.3-0.8c0.9-0.1,1.2,0.2,1.2,1.1c0.1,1.3,0,2.7-0.1,4
	c-0.3,2.4-0.4,4.8-0.4,7.2c-0.2,4.9-0.4,9.8-0.6,14.7c-0.1,1.5-0.2,1.6-1.7,1.6s-3.1,0-4.6,0l-21.6,0.5c-1.8,0-1.8,0.1-1.9,1.7
	c-0.2,4.3-0.4,8.6-0.7,12.9c-0.6,7.6-0.9,15.3-1.2,23c-0.6,13-0.7,26.1-0.2,39.1c0.3,9.5,1.2,18.9,3.8,28.1c0.8,3.1,1.9,6,3.3,8.9
	c1,2,2.5,3.7,4.4,4.8c2.3,1.3,5,1.6,7.5,0.9c3-0.9,5.8-2.6,8.1-4.8c1.8-1.8,3.5-3.8,5-5.9L997.9,603.4z"/>
<path class="st31" d="M836.6,605.3c7.3,7.4,16.5,12.7,26.6,15.3c2.8,0.9,5.9,1.1,8.8,0.5c5.2-1.2,7.4-4.2,8-8.9
	c0.8-4.9-0.3-9.9-2.9-14.1c-2.3-3.6-5-7-8-10.2c-4.1-4.3-8.5-8.3-13-12.2c-7.8-6.8-15.2-14.1-21.1-22.8c-3.6-4.9-6.3-10.3-8.2-16.1
	c-1-3.5-1.7-7.1-2.1-10.7c-0.3-2.6-0.5-5.2-0.4-7.8c0.1-5.9,1.5-11.6,4.1-16.9c5.6-10.9,14.6-17,26.6-18.8c1.9-0.3,3.8-0.5,5.7-0.5
	c9.3-0.1,18.4,2.5,26.3,7.3c7.8,4.5,14.2,11,18.7,18.7c2,3.4,2.3,2.9-0.5,6.1c-3.7,4.3-7.3,8.7-10.9,13c-1.3,1.6-2.7,3.2-4.1,4.7
	c-0.9-0.2-1.1-0.9-1.5-1.5c-1.8-2.7-3.8-5.3-5.9-7.8c-3.1-3.6-6.8-6.5-11-8.7c-2.3-1.1-4.9-1.7-7.5-1.6c-3.3,0-8.2,3-9.6,7.6
	c-0.6,2.2-0.4,4.6,0.5,6.7c1.4,3.6,3.3,6.9,5.6,10c4.4,5.8,9.1,11.4,14.2,16.6c6,6.5,12.2,12.7,18.5,18.9c4.4,4.3,8.3,9.1,11.4,14.4
	c2.6,4.4,4.9,8.9,5.9,14c2.2,11.5,1.1,22.6-5.4,32.6c-4.9,7.8-12.5,13.6-21.2,16.3c-5.8,1.9-11.8,2.6-17.9,2.2
	c-12.7-0.8-24.4-4.7-34.6-12.5c-3.1-2.4-6-5.1-8.5-8.1c-0.6-0.6-0.7-1.6-0.2-2.3c0.7-1.2,1.3-2.4,1.9-3.5c3.3-5.9,6.6-11.7,9.9-17.6
	C835.3,606.9,835.8,606,836.6,605.3z"/>
<path class="st52" d="M978.8,695.6c1.1-1,2-1.9,2.9-2.7c2.4-2.2,5.4-3.7,8.7-4.3c4.2-0.9,8.6,0.4,11.6,3.5c0.8,0.8,1.6,1.7,2.4,2.6
	c1.4-1,2.7-2,4-3c4.8-3.4,10.8-4.4,16.4-2.6c4.8,1.3,8.3,5.3,9.1,10.2c0.4,2.1,0.6,4.2,0.6,6.3c0,4.6,0,9.2,0,13.8
	c-0.1,1.2,0,2.3,0.4,3.4c0.2,0.8,1,1.3,1.8,1.1c0.7-0.1,1.3-0.3,2-0.4c1.9-0.2,3.7,1.1,3.9,3c0,0.1,0,0.2,0,0.3
	c0.1,1,0.1,2.1-0.1,3.2c-0.4,2.6-2.7,4.4-5.3,4.2c-0.6,0-1.1-0.1-1.7-0.2c-4.2-0.6-8.4-0.6-12.6,0c-0.8,0.1-1.5,0.2-2.3,0.2
	c-2,0.1-3.8-1-4.6-2.9c-0.7-1.6-0.8-3.4-0.3-5.1c0.3-1.1,1.2-2,2.3-2.3c0.5-0.2,1.1-0.3,1.6-0.5c0.6-0.2,1-0.7,1-1.3
	c0.1-0.5,0.1-1,0.1-1.4c0-4.7,0-9.4-0.1-14.1c0-1.3-0.2-2.5-0.7-3.7c-0.4-1.2-1.4-2.1-2.6-2.5c-3.5-1.3-7.4,0.5-8.7,4
	c-0.4,1.1-0.7,2.2-0.8,3.3c-0.2,4.5-0.2,9-0.1,13.5c-0.1,1.1,0.5,2.1,1.6,2.4c2,0.6,2.6,2.1,2.6,4c0,0.9,0,1.7-0.2,2.6
	c-0.2,2.2-2.1,3.9-4.3,3.8c-1.1,0-2.1-0.1-3.1-0.3c-2.6-0.5-5.2-0.5-7.7,0c-0.8,0.2-1.7,0.3-2.6,0.2c-1.9,0.1-3.6-1.3-3.9-3.2
	c-0.3-1.4-0.3-2.9,0-4.3c0.2-1.3,1.1-2.3,2.3-2.7c1.2-0.3,1.9-1.4,1.7-2.6c0.1-5.2,0.2-10.4-0.1-15.5c-0.1-1.1-0.3-2.1-0.7-3.1
	c-0.4-1.2-1.4-2.1-2.7-2.4c-3.3-0.7-6.9-0.1-8.7,4.3c-0.5,1.2-0.8,2.6-0.8,3.9c0,4.3-0.1,8.6-0.1,13c0,1.5,0.2,1.8,1.7,2.2
	c0.9,0.2,1.8,0.6,2.6,1.2c1.9,1.9,1.4,6.8-0.7,8.4c-0.8,0.6-1.7,0.9-2.7,0.8c-1.2,0-2.5-0.1-3.7-0.3c-3.8-0.5-7.7-0.5-11.5,0
	c-0.9,0.2-1.9,0.2-2.9,0.2c-2.2,0-4.1-1.4-4.8-3.5c-0.5-1.5-0.5-3.1-0.1-4.5c0.4-1.8,2.1-3,3.9-2.8c0.8,0.1,1.5,0.2,2.2,0.4
	c1,0.2,1.5-0.1,1.8-1c0.3-0.8,0.4-1.7,0.4-2.5c0-5.6,0-11.1,0-16.7c0-0.7-0.1-1.3-0.3-2c-0.4-1.6-0.8-1.9-2.4-1.5
	c-3.5,1-6.1-0.6-5.9-5c0.2-4,2.8-6.1,6.8-5.4c2.6,0.5,5.4,0.5,8,0c0.7-0.2,1.5-0.2,2.3-0.3c1.2-0.1,2.2,0.8,2.3,2c0,0,0,0,0,0.1
	c0.1,0.6,0.1,1.2,0,1.8c0,0.6,0.1,1.1,0.1,1.7C978.6,695.2,978.6,695.3,978.8,695.6z"/>
<path class="st52" d="M1111.7,695.8c1.5-1.3,2.5-2.4,3.7-3.2c4.4-3.7,10.3-5.1,15.9-3.7c5.2,1.2,8.3,4.5,9.7,9.5
	c0.5,1.9,0.7,3.8,0.7,5.7c0,4.9,0,9.8,0,14.7c0,1.2,0.1,2.5,0.4,3.7c0.4,1.3,0.9,1.6,2.3,1.4c0.1,0,0.2-0.1,0.3-0.1
	c3.5-0.6,5.3,0.9,5.3,4.4c0,0.6-0.1,1.1-0.2,1.7c-0.6,3-2.1,4.3-5.1,4.4c-1.2,0-2.3-0.1-3.4-0.3c-3.5-0.5-7.1-0.5-10.6,0
	c-1.2,0.2-2.5,0.3-3.7,0.2c-2.9-0.2-4.4-1.7-4.6-4.5c-0.1-0.9,0-1.7,0.1-2.6c0.1-1.6,1.3-2.9,2.9-3.2c0.3-0.1,0.6,0,0.8-0.1
	c1.5-0.4,2-0.9,2-2.4c0-4.8,0-9.6-0.1-14.4c-0.1-1.2-0.3-2.5-0.7-3.7c-0.5-1.8-2.1-3.1-4-3.2c-4.3-0.7-8.3,2.3-9,6.6
	c0,0.3-0.1,0.6-0.1,0.9c-0.2,4.6-0.2,9.2,0,13.8c-0.1,1.1,0.7,2.1,1.8,2.3c0.4,0.1,0.8,0.1,1.1,0.3c0.9,0.3,1.7,1,2,1.9
	c0.7,1.9,0.6,4-0.1,5.9c-0.6,1.4-1.9,2.3-3.4,2.3c-1.1,0.1-2.3,0-3.4-0.2c-3.7-0.5-7.5-0.6-11.2,0c-1.4,0.2-2.9,0.3-4.3,0.2
	c-2.9-0.2-4.6-1.9-4.8-4.8c-0.1-0.9-0.1-1.7,0-2.6c0.2-2.1,2-3.7,4.1-3.5c0.1,0,0.2,0,0.4,0c0.5,0.1,0.9,0.2,1.4,0.3
	c1.6,0.3,2,0.1,2.4-1.5c0.1-0.6,0.2-1.1,0.2-1.7c0-5.8,0-11.5,0-17.3c0-0.8-0.2-1.5-0.4-2.2c-0.3-1-0.8-1.2-1.7-1
	c-0.7,0.2-1.5,0.3-2.2,0.4c-1.9,0.2-3.7-1.1-4-3c-0.4-1.5-0.3-3.1,0.3-4.5c0.8-2.3,3.1-3.6,5.5-3.3c0.2,0,0.4,0.1,0.6,0.1
	c2.9,0.6,5.9,0.6,8.8,0.1c0.4-0.1,0.8-0.2,1.1-0.2c1.8-0.1,2.7,0.6,2.9,2.4C1111.6,693.1,1111.6,694.3,1111.7,695.8z"/>
<path class="st52" d="M919.3,695.8c1.3-1.2,2.3-2.1,3.3-3c4.4-3.8,10.3-5.2,15.9-3.9c5.4,1.2,8.7,4.6,10.1,9.9
	c0.5,1.8,0.7,3.6,0.7,5.4c0,5,0,10,0,15c-0.1,1.2,0.1,2.5,0.5,3.7c0.2,0.9,1,1.4,1.8,1.3c0.1,0,0.1,0,0.2,0c0.6-0.1,1.1-0.3,1.7-0.4
	c1.9-0.3,3.7,1,4,2.9c0.4,1.6,0.3,3.3-0.3,4.8c-0.6,1.7-2.1,2.9-3.9,2.9c-1.2,0.1-2.5,0.1-3.7-0.1c-3.9-0.6-7.9-0.6-11.8,0
	c-1.1,0.2-2.3,0.2-3.4,0.1c-2.2,0-4.1-1.7-4.2-3.9c-0.2-0.8-0.2-1.7-0.1-2.6c0.4-2.5,1-3.2,3.6-3.8c2-0.5,2.3-0.9,2.4-3
	c0-4.2,0-8.4,0-12.7c0-1.4-0.2-2.9-0.6-4.3c-0.6-2.5-2.2-3.7-4.8-3.8c-4.3-0.4-8.2,2.9-8.5,7.2c0,0.1,0,0.2,0,0.3
	c-0.1,1.3-0.1,2.7-0.1,4c0,2.8,0,5.6,0,8.3c0,0.7,0.1,1.3,0.2,2c0,0.7,0.5,1.3,1.2,1.5c0.4,0.1,0.7,0.3,1.1,0.3c2,0.4,2.8,1.8,3,3.7
	c0.1,1.1,0.1,2.3-0.2,3.4c-0.4,1.8-1.9,3-3.7,3.1c-1.1,0.1-2.3,0-3.4-0.2c-3.7-0.5-7.5-0.6-11.2,0c-1.3,0.2-2.7,0.3-4,0.2
	c-3.2-0.1-5-1.9-5.1-5c-0.1-0.9,0-1.7,0.1-2.6c0.2-2,2-3.5,4.1-3.2c0,0,0,0,0,0c0.7,0.1,1.3,0.2,2,0.4c1.3,0.2,1.8,0,2.1-1.3
	c0.2-0.9,0.4-1.9,0.4-2.8c0-5.2,0-10.4,0-15.5c0-1.1-0.1-2.1-0.5-3.1c-0.3-0.9-0.8-1.3-1.7-1c-0.9,0.3-1.9,0.4-2.8,0.4
	c-1.6,0-3-1.1-3.3-2.7c-0.5-1.7-0.4-3.5,0.3-5.1c0.9-2.1,3.1-3.3,5.3-3c0.2,0,0.4,0.1,0.6,0.1c2.9,0.6,5.9,0.6,8.9,0.1
	c0.3,0,0.6-0.1,0.8-0.2c2.2-0.2,3.1,0.5,3.2,2.6C919.1,693.5,919.2,694.6,919.3,695.8z"/>
<path class="st52" d="M847.1,729.9c-1,0.8-1.8,1.4-2.7,2c-5.1,3.5-11.4,4.5-17.3,2.8c-7.8-2.1-10.7-8.6-9.5-15.8
	c0.6-4.2,3.6-7.7,7.7-8.9c2.9-0.9,5.9-1.7,8.9-2.2c1.7-0.3,3.4-0.7,5-1.2c0.8-0.2,1.6-0.6,2.4-1c2.2-1.2,3-4,1.8-6.3
	c-0.5-0.9-1.3-1.6-2.2-2c-1.3-0.6-2.8-0.8-4.2-0.5c-1,0-1.8,0.9-1.7,1.9c0,0,0,0,0,0c0,0.4,0,0.8,0,1.2c0,2.7-1.4,4.3-3.7,5.3
	c-2.4,1.1-5.2,1-7.5-0.2c-3.7-1.8-5.2-6.2-3.4-9.9c0.4-0.8,0.9-1.6,1.6-2.2c1.5-1.4,3.2-2.4,5.2-3c2.2-0.8,4.4-1.2,6.7-1.4
	c4.8-0.6,9.6-0.3,14.3,0.8c0.6,0.1,1.1,0.3,1.7,0.5c4.5,1.4,6.9,4.6,7.6,9.2c0.3,1.7,0.4,3.4,0.4,5.2c0,5.3,0,10.5,0,15.8
	c0,0.9,0,1.7,0.1,2.6c0,0.8,0.6,1.4,1.4,1.4c0,0,0.1,0,0.1,0c0.6,0,1.2,0,1.7,0c2.8-0.2,5.7,3,4.5,6.5c-0.5,1.5-1.5,2.7-2.9,3.5
	c-3.8,2.1-8.3,2.2-12.1,0.1c-1-0.6-1.9-1.3-2.5-2.3C848,731.2,847.7,730.7,847.1,729.9z"/>
<path class="st52" d="M1072.8,714.3h-9.2c-0.7,0-1.3,0-2,0c-1.5,0.1-1.9,0.5-1.9,1.9c-0.2,3.1,1.4,5.9,4.1,7.4
	c2.5,1.5,5.7,1.5,8.2-0.1c1.2-0.7,2.2-1.5,3.2-2.5c0.7-0.7,1.4-1.3,2.2-1.9c1.7-1.2,3.8-1.5,5.8-1c2.8,0.6,4.6,3.2,4.1,6
	c-0.3,2.3-1.4,4.5-3.2,6c-2.1,1.9-4.7,3.4-7.5,4.2c-5,1.6-10.3,1.7-15.3,0.4c-8.8-2.3-13.9-8.1-15.7-16.9c-0.8-4.3-0.7-8.6,0.4-12.8
	c2.1-9.3,10.2-16.1,19.7-16.5c2.7-0.2,5.4,0,8,0.6c7.8,1.9,13.5,7.7,14.3,16.7c0.2,1.7,0.2,3.5-0.1,5.2c-0.4,2.4-1.4,3.3-3.9,3.4
	s-5.2,0-7.8,0H1072.8z"/>
<path class="st52" d="M711.5,714.3h-9.8c-0.7,0-1.3,0-2,0.1c-0.8,0-1.5,0.7-1.5,1.5c0,0,0,0,0,0c-0.1,1.7,0.3,3.5,1.2,4.9
	c2.1,3.6,6.8,5,10.5,3.1c1.6-0.9,3.1-2,4.3-3.3c1.2-1.3,2.7-2.1,4.4-2.5c1.4-0.3,2.9-0.1,4.2,0.5c1.7,0.7,2.9,2.4,2.9,4.3
	c0.1,2.5-0.8,5-2.7,6.8c-1.6,1.6-3.4,2.8-5.4,3.7c-4.6,2-9.7,2.7-14.6,2c-1.1-0.1-2.3-0.3-3.4-0.6c-8-2.1-13.1-7.3-15.2-15.3
	c-1.3-4.9-1.3-10,0.1-14.8c2.2-9.2,10.2-15.8,19.7-16.1c3.2-0.3,6.3,0.1,9.4,1c7.3,2.4,11.6,7.4,12.8,15.1c0.3,1.9,0.4,3.8,0.2,5.7
	c-0.5,3.2-1.3,4-4.5,4c-2.9,0-5.8,0-8.6,0L711.5,714.3z"/>
<path class="st52" d="M784,711.3c0-2.9,0-5.8,0-8.6c0-0.7,0-1.3-0.1-2c0-0.8-0.7-1.4-1.5-1.4c0,0,0,0,0,0c-0.6-0.1-1.2,0-1.7,0
	c-1.9,0.1-3.6-1.3-3.9-3.2c-0.4-1.4-0.2-2.9,0.5-4.2c0.6-1.4,1.9-2.3,3.4-2.3c0.4,0,0.8,0,1.2,0c2.3-0.1,2.8-0.5,2.8-3
	c0-1.4,0-2.9,0-4.3c0-1,0.1-1.9,0.4-2.8c0.3-1.1,1.1-2.1,2.2-2.4c2.5-0.8,5.1-1,7.7-0.4c1.3,0.2,2.3,1.2,2.5,2.5
	c0.1,0.8,0.2,1.5,0.2,2.3c0,1.5,0,3.1,0,4.6c0.1,3.4,0.2,3.6,3.6,3.6c1.7,0,3.5,0,5.2,0c1,0,1.9,0.1,2.8,0.4c1.4,0.4,2.5,1.6,2.8,3
	c0.2,0.8,0.2,1.7,0.1,2.6c-0.1,1.8-1.5,3.3-3.3,3.5c-0.9,0.1-1.7,0.2-2.6,0.2c-2.2,0-4.4,0-6.6,0c-1.3,0-1.7,0.5-1.9,1.7
	c0,0.4,0,0.8,0,1.2c-0.1,5.5-0.3,10.9-0.4,16.4c-0.1,1.2,0.1,2.5,0.5,3.7c0.4,1.4,1.7,2.2,3.1,2c1.3-0.1,2.4-1.1,2.5-2.4
	c0.1-0.9,0.2-1.9,0.2-2.8c0-1.1-0.1-2.1,0-3.2c-0.1-2.2,1.7-4,3.8-4c0.1,0,0.2,0,0.3,0c2.9-0.2,4.8,1,5.6,3.8
	c1.2,4,0.9,8.3-0.8,12.1c-1.6,3.5-4.8,6.1-8.6,7c-3.5,1-7.3,1-10.8,0.1c-5.4-1.4-8.2-5.1-9-10.4c-0.4-2.2-0.5-4.4-0.3-6.6
	C783.9,715.6,783.9,713.4,784,711.3L784,711.3z"/>
<path class="st52" d="M650.4,712c0-3,0-5.9,0-8.9c0-0.8,0-1.5-0.1-2.3c-0.1-1.1-0.5-1.5-1.7-1.6c-0.7-0.1-1.3,0-2-0.1
	c-1.5-0.1-2.8-1.1-3.2-2.5c-0.7-1.7-0.5-3.7,0.5-5.2c0.6-1.1,1.7-1.8,3-1.9c0.7,0,1.3,0,2-0.1c1.3-0.1,1.9-0.6,2-2
	c0.1-1.5,0.1-3.1,0.1-4.6c0-1,0.1-1.9,0.2-2.8c0.2-1.7,1.4-3.1,3.1-3.3c2.3-0.6,4.8-0.7,7.1-0.2c1.2,0.2,2.1,1.1,2.3,2.3
	c0.2,0.8,0.2,1.7,0.3,2.6c0,1.6,0,3.3,0,4.9c0.1,2.9,0.3,3.2,3.1,3.2c1.9,0,3.8,0,5.8,0c1,0,1.9,0.1,2.8,0.4c1.1,0.3,2,1.2,2.4,2.3
	c0.5,1.4,0.5,2.9,0,4.2c-0.4,1.1-1.3,2-2.4,2.3c-0.8,0.3-1.7,0.4-2.5,0.3h-5.7c-3.4,0-3.5,0.1-3.5,3.6c0,2.7,0,5.4-0.1,8
	s-0.2,5.2-0.3,7.8c-0.1,1.2,0.1,2.5,0.6,3.7c0.4,1.2,1.7,2,3,1.8c1.3,0,2.4-0.9,2.7-2.2c0.2-1,0.3-2.1,0.2-3.1
	c-0.1-1.1-0.1-2.1,0-3.2c0-2.1,1.8-3.8,3.9-3.8c3-0.2,4.9,0.9,5.7,3.7c1.3,4.2,1,8.7-0.9,12.6c-1.6,3.3-4.7,5.7-8.3,6.6
	c-3.6,1-7.4,1.1-11.1,0.1c-5.1-1.3-8.3-5.2-9-10.8c-0.3-1.9-0.3-3.8-0.3-5.7c0.1-2.1,0.2-4.2,0.2-6.3L650.4,712z"/>
<path class="st52" d="M750,698.1c0.7-0.7,1.2-1.6,1.4-2.6c3.3-7.4,13.1-8.7,18.2-5.6c4.5,2.4,6.6,7.7,5,12.6c-1,3.4-4.3,5.5-7.8,5
	c-2.9-0.1-5.2-2.6-5-5.6c0-0.4,0.1-0.8,0.2-1.2c0.1-0.6,0.3-1.1,0.5-1.6c-0.5-0.6-1.1-0.5-1.6-0.4c-2.6,0.4-4.8,2.2-5.8,4.6
	c-0.8,1.8-1.3,3.6-1.6,5.5c-0.7,4.1-0.9,8.2-0.6,12.3c0.2,3,0.8,3.3,3.6,2.8c0.6-0.1,1.1-0.3,1.7-0.3c2.6-0.4,5,1.4,5.4,3.9
	c0,0.3,0.1,0.6,0.1,0.9c0,3.1-2.5,5.7-5.6,5.8c-1.1,0-2.1,0-3.2-0.2c-5.2-0.6-10.5-0.6-15.8,0c-1.2,0.2-2.5,0.2-3.7,0.2
	c-2.8-0.2-4.3-1.8-4.6-4.6c-0.1-1-0.1-1.9,0-2.9c0.2-2,1.9-3.5,3.9-3.4c0,0,0.1,0,0.1,0c0.8,0,1.5,0.2,2.2,0.4
	c0.7,0.3,1.5-0.1,1.8-0.8c0.1-0.1,0.1-0.3,0.1-0.5c0.2-1.1,0.3-2.3,0.4-3.4c0-4.8,0-9.6,0-14.4c0-1.1-0.1-2.1-0.3-3.2
	c-0.3-1.6-0.8-1.9-2.3-1.5c-0.8,0.2-1.7,0.3-2.6,0.2c-1.6-0.1-2.9-1.3-3.2-2.8c-0.3-1.3-0.3-2.7,0-4c0.5-2.6,3-4.4,5.6-3.9
	c0.1,0,0.1,0,0.2,0c3,0.6,6.1,0.6,9.1,0c0.6-0.1,1.1-0.1,1.7-0.1c1.3,0,2.3,1,2.3,2.3c0,0,0,0.1,0,0.1c0.1,1.6,0,3.3,0,4.9
	C750,697.3,750,697.6,750,698.1z"/>
<path class="st52" d="M890,706.7v12.7c-0.1,1.1,0.1,2.3,0.4,3.4c0.1,0.8,0.9,1.4,1.8,1.3c0.1,0,0.1,0,0.2,0c0.7-0.1,1.3-0.3,2-0.4
	c1.8-0.2,3.5,1.1,3.7,2.9c0.2,1.2,0.2,2.5,0,3.7c-0.2,2.3-2.2,4.1-4.5,4.1c-1.1,0-2.1,0-3.2-0.2c-4.6-0.6-9.4-0.6-14,0
	c-1.1,0.2-2.3,0.2-3.4,0.2c-2.5,0-4.6-1.9-5-4.4c-0.2-1.1-0.2-2.3,0.1-3.4c0.3-2,2.2-3.3,4.1-3c0,0,0.1,0,0.1,0
	c0.7,0.1,1.3,0.3,2,0.4c0.7,0.2,1.5-0.2,1.8-0.9c0-0.1,0.1-0.2,0.1-0.4c0.3-1.1,0.4-2.3,0.5-3.4c0-4.9,0-9.8,0-14.7
	c-0.1-1.2-0.2-2.5-0.5-3.7c-0.1-0.6-0.7-1-1.3-0.9c-0.1,0-0.2,0-0.2,0.1c-1,0.3-2.1,0.5-3.1,0.4c-1.6-0.1-2.9-1.2-3.2-2.8
	c-0.2-0.8-0.3-1.7-0.2-2.6c0.2-3.7,2.6-5.8,6.3-5.5c0.6,0,1.1,0.2,1.7,0.3c3.4,0.5,6.9,0.5,10.3-0.1c0.4-0.1,0.8-0.1,1.1-0.2
	c1.3-0.1,2.5,0.8,2.6,2.1c0,0,0,0,0,0c0.1,0.8,0.1,1.5,0.1,2.3C890,698.2,890,702.4,890,706.7z"/>
<path class="st52" d="M882.6,670.3c4.4,0,8,3.7,7.9,8.1s-3.7,8-8.1,7.9c-4.4-0.1-8-3.7-8-8.1C874.5,673.8,878.1,670.2,882.6,670.3
	C882.6,670.3,882.6,670.3,882.6,670.3z"/>
<path class="st53" d="M928.9,722.4c-0.4-0.3-0.9-0.6-1.3-0.8c-1.8-0.6-2.4-1.7-2.3-3.7c0.2-2.8,0-5.6,0.1-8.3c0-0.9,0.1-1.7,0.3-2.6
	c0.4-1.6,1.7-2.9,3.3-3.2c2.2-0.5,3,0.1,3.4,2.3c0.1,0.5,0.2,0.9,0.2,1.4c0,4.3,0,8.6,0,12.9C931.2,721.1,929.8,721.3,928.9,722.4z"
	/>
<path class="st53" d="M729.3,722.1c-0.4-1.9-1.2-3.8-2.5-5.3c3.3-2.6,3.4-6.3,3.3-9.9c0-1.4-0.3-2.8-0.5-4.5c1.1,0.4,2,0.8,2.9,1
	s2,0.4,3,0.6c0.3,5.2,0.3,10.5,0,15.8C733.3,719.8,731.1,720.6,729.3,722.1z"/>
<path class="st54" d="M1124.9,720.4c-0.7,0.2-1.4,0.5-2.1,0.8c-1.1,0.9-2,0.7-3.2,0c-1.2-0.4-1.9-1.6-1.8-2.8c0.1-3.1,0-6.1,0-9.2
	c0-0.7,0-1.3,0.2-2c0.3-1.6,1.5-3,3.1-3.5c2.4-0.7,3.4,0,3.8,2.4c0.1,0.7,0.1,1.3,0.1,2C1124.9,712.3,1124.9,716.3,1124.9,720.4z"/>
<path class="st55" d="M1090.8,702.2c1.3,0.4,2.1,1,3.1,1.3s2.1,0.3,3.1,0.5c0.3,0.6,0.4,1.3,0.3,2c0,4.2,0,8.4,0,12.6
	c0,1.2,0,1.3-1.2,1.4c-1,0.1-1.9,0.3-2.8,0.6c-0.8,0.3-1.5,0.8-2.3,1.2c-0.8-0.3-0.5-1.1-0.8-1.7s-0.5-1-0.8-1.5s-0.8-1.1-1.2-1.7
	c2.8-2.1,3.3-5.2,3.3-8.4C1091.6,706.3,1091.4,704.3,1090.8,702.2z"/>
<path class="st0" d="M988.4,722.5c-1-0.6-1.9-1.1-2.8-1.5c-0.5-0.2-0.8-0.8-0.8-1.4c0-3.6,0-7.3,0.1-10.9c0-0.9,0.1-1.7,0.5-2.5
	c0.8-1.9,1.7-2.5,3.7-2.5c0.9,0,1.5,0.4,1.6,1.3c0.1,0.9,0.2,1.7,0.2,2.6c0,3.8,0,7.7,0.1,11.5c0.2,1.3-0.5,2.5-1.7,3
	C989,722.2,988.7,722.3,988.4,722.5z"/>
<path class="st0" d="M1013.9,722.3c-2.2-0.8-2.9-2.3-2.7-4.6c0.2-3,0.1-6.1,0.2-9.2c0-1.1,0.3-2.1,0.7-3c0.9-1.8,2.4-2,4.1-1.7
	c0.4,0.1,0.6,0.4,0.8,0.8c0.2,0.6,0.3,1.3,0.3,2c0.1,4.3,0.1,8.6,0.2,12.9c0.1,0.6-0.2,1.1-0.8,1.4
	C1015.7,721.3,1014.8,721.8,1013.9,722.3z"/>
<path class="st56" d="M711.5,718c-1.7,2.4-3.4,3.4-5.5,3.2c-1.7-0.1-3.1-1.2-3.8-2.7c-0.1-0.3,0-0.6,0.3-0.7c0.1,0,0.2-0.1,0.3-0.1
	c2.7,0,5.4,0,8,0C711,717.7,711.3,717.6,711.5,718z"/>
<path class="st57" d="M1063.3,717.7c3,0,5.6,0,8.2,0c0.4,0,0.9-0.2,1.3,0.2c-0.9,1.6-2.3,2.7-4,3.2
	C1066.6,721.7,1064.8,720.7,1063.3,717.7z"/>
<path class="st58" d="M838.6,703.2c-0.1-0.1-0.3-0.3-0.3-0.4c0.1-0.6,0.2-1.1,0.3-1.7s0.4-0.9,0.9-0.8c0.6,0.1,1,0.6,1,1.2
	C840.3,702.5,839.5,703.2,838.6,703.2z"/>
<path class="st31" d="M717.6,415.4c0.1,2.8,0,5.6-0.2,8.4c-0.1,0.6-0.2,1.1-0.2,1.7c-0.2,5.8-0.4,11.7-0.7,17.5
	c-0.8,18.3-0.8,36.6-0.7,55c0,5.8,0.1,11.5,0.2,17.3c0,0.6,0,1.1,0,1.7c0.6,4.4-0.2,4,3.8,2.6c6.4-2.3,13-4,19.7-5.1
	c5.5-1,11-1.4,16.6-1.2c9,0.4,17.7,2,25.8,6c5.9,2.9,11.1,6.8,15.5,11.7c8.2,9.1,12.7,19.9,14.7,31.9c1.2,7.2,1.5,14.5,0.9,21.8
	c-0.9,13.6-6.2,26.5-15.1,36.9c-7.6,9-17.6,15.6-28.9,19.1c-5.1,1.7-10.4,2.6-15.8,2.8c-1.6,0-3.2,0.4-4.9,0.3
	c-9.7-0.3-19-2.2-27.7-6.6c-0.9-0.5-1.9-0.9-2.9-1.3c-0.2,0-0.4,0-0.6,0c-0.3,0.9-0.3,1.9,0,2.8c0.2,1.7,0.4,3.4,0.4,5.2
	c0.2,2.7,0.4,5.3,0.5,8c0,0.7,0,1.3,0,2c0,0.7-0.4,1-1.1,0.9l-13.9-2.4c-5.1-0.9-10.2-1.8-15.3-2.6c-1.4-0.2-2.8-0.5-4.2-0.7
	c-0.7,0-1.2-0.6-1.2-1.3c0,0,0-0.1,0-0.1c0-3.8,0.1-7.7,0.2-11.5c0-1.2,0.2-2.3,0.2-3.4c0.1-4.6,0-9.2,0.2-13.8
	c0.4-8.2,0.3-16.3,0.6-24.5c0.8-23.3,0.5-46.6,0.5-69.9c0-11.6,0-23.2-0.2-34.8c-0.2-10.3-0.2-20.5-0.6-30.8
	c-0.2-6.4-0.1-12.9-0.5-19.3s-0.3-12.6-0.6-19c-0.1-1.5,0.1-1.7,1.5-1.8c4.8-0.4,9.5-0.9,14.3-1.3
	C704.6,416.8,711,416.1,717.6,415.4z"/>
<path class="st31" d="M577.4,513.9c-2.7-2.8-5.1-5.2-7.4-7.7s-5-5.3-7.5-8c-0.5-0.5-1-1-1.4-1.5c-0.6-0.7-0.6-0.9,0-1.7
	c2.6-3.6,5.7-6.8,9.1-9.5c8.7-7,18.6-12.3,29.3-15.5c7.5-2.4,15.4-3.3,23.3-2.8c8.5,0.7,16.4,3.2,23,8.7c3.9,3.3,7.2,7.2,9.8,11.6
	c3.3,5.7,5.7,11.9,7.2,18.4c1.1,4.6,2,9.2,2.5,13.8c0.7,5.7,0.9,11.5,1.2,17.2c0.6,10.4,0.6,20.7,0.2,31.1
	c-0.5,13.7-0.4,27.4-0.3,41.2c0,6.8,0.3,13.6,0.7,20.4c0.2,4.7,0.7,9.4,1.1,14c0.2,1.9,0.5,3.8,0.8,5.7c0.1,0.5,0.1,0.9,0.2,1.4
	c0,0.7-0.3,1.1-1,1.1c-2.5,0-5,0.1-7.5-0.1c-1.4-0.1-2.9-0.2-4.3-0.2l-14.7-0.1c-0.6,0-1.2,0-1.7,0c-0.9-0.1-1.2-0.3-1.3-1.2
	c0-0.7,0-1.3,0-2c0-2,0-4,0-6c0-0.5,0.2-1.2-0.4-1.5s-1.1,0.3-1.5,0.6c-5.7,3.8-11.9,6.7-18.4,8.6c-3.4,1-6.9,1.5-10.5,1.6
	c-4.7,0.2-9.4-0.2-14-1.2c-6.8-1.7-13.1-5.1-18.3-9.9c-8-7.4-12.8-16.6-15.7-27c-1.6-5.9-2.4-12.1-2.4-18.2c0-3.2-0.1-6.3,0.1-9.5
	c0.7-11.1,3.7-21.5,9.9-30.9c6-9.1,14.7-16.2,24.8-20.2c5.8-2.5,12-4,18.3-4.5c9-0.7,17.8,0,26.3,3.5c0.2,0.1,0.4,0.2,0.5,0.2
	c0.7,0.2,1.2,0,1.2-0.7c0-0.6,0-1.1,0-1.7c-0.3-4.8-1-9.5-2.2-14.2c-1.6-5.9-4-11.4-8.1-16.1c-3.3-4-8.1-6.3-13.3-6.4
	c-6.6-0.1-12.7,1.6-18.6,4.3c-5.1,2.3-9.8,5.4-13.8,9.2c-1,0.9-1.8,1.9-2.8,2.9C579.1,512,578.4,512.8,577.4,513.9z"/>
<path class="st1" d="M607.4,524.1c1.1-0.2,1.9-1.3,1.9-2.4c0.2-6.6,0.3-13.2,0.1-19.8c2.4-0.2,4.8-0.3,7.2-0.1
	c2.1,0.1,4.1,1.1,5.6,2.6c1,0.9,1.9,1.9,2.6,3c0.9,1.3,1.8,2.7,2.5,4.1c0.4,3.3,0.8,6.6,0.3,9.9c-0.2,0.9,0,1.9-0.6,2.7
	c-0.6,0.1-1.1,0.1-1.7,0c-3.4-0.9-6.8-0.5-10.2-0.5c-2.3-0.2-4.6,0-6.8,0.6C607.9,524.2,607.7,524.2,607.4,524.1z"/>
<path class="st59" d="M626.9,524.1v-11.7c0-0.4,0.1-0.7,0.3-1c2.2,4.2,3.5,8.7,4.1,13.4C629.7,525,628.3,524.4,626.9,524.1z"/>
<path class="st31" d="M1101.6,589.5c0.7,0,1.3,0.3,1.8,0.8l22.4,14.6c0.4,0.3,0.8,0.5,1.2,0.8c0.4,0.3,0.6,0.8,0.4,1.2
	c-0.5,2-1.1,3.9-2,5.7c-2.3,5.1-5.4,9.7-9.2,13.9c-7.2,8.1-16.2,14.3-26.3,18.1c-3.4,1.3-7,2.1-10.6,2.4
	c-14.2,1.2-26.9-2.7-38.3-11.2c-9.2-7-16.4-16.3-20.9-27c-2.9-6.8-5-13.9-6.2-21.2c-0.4-2.5-0.6-5.1-0.8-7.7
	c-0.5-4.7-0.6-9.4-0.5-14.1c0.3-9,1.3-18,4.1-26.6s7-16.8,13.5-23.5c6.5-6.6,14.6-11.4,23.6-13.8c6-1.7,12.2-2.7,18.4-3.1
	c3.2-0.2,6.5-0.1,9.8,0.2c5.7,0.5,11.1,2.5,15.7,5.9c6.6,4.8,12.1,11.1,15.8,18.4c4.3,8.3,7.2,17.2,8.7,26.4
	c0.9,4.9,1.4,9.9,2.1,14.8c0,0.4,0.1,0.8,0.1,1.2c0,1.6,0.1,2-1.8,2.1c-1.2,0.1-2.5,0.3-3.7,0.4c-4.6,0.2-9.2,0.6-13.8,1.1
	c-3,0.3-5.9,0.5-8.9,0.8c-3.2,0.3-6.5,0.7-9.7,1c-2.6,0.2-5.2,0.3-7.7,0.6c-3.4,0.4-6.9,0.5-10.3,0.8s-6.9,0.6-10.3,1
	c-0.4,0-0.8,0.1-1.2,0.1l-13.2,0.7c-0.4,0-0.8,0-1.2,0.1c-0.6,0-1,0.4-1.1,0.9c0,0.1,0,0.1,0,0.2c0,0.8,0,1.7,0,2.5
	c1,8,3.1,15.8,6.3,23.2c2.1,5,5.2,9.4,9.1,13.2c4,3.7,9.5,5.4,14.9,4.5c5.7-0.7,11-2.9,15.5-6.4c6-4.6,10.4-10.9,12.9-18
	C1100.7,592.5,1101.1,591,1101.6,589.5z"/>
<path class="st52" d="M530.6,704.5c0-4.2,0-8.5,0-12.7c0.1-1.2-0.1-2.5-0.5-3.7c-0.5-1.3-1.1-1.7-2.4-1.5c-0.8,0.1-1.5,0.3-2.2,0.4
	c-2.7,0.5-5.3-1.2-5.9-3.9c0-0.2-0.1-0.3-0.1-0.5c0-0.1,0-0.2,0-0.3c-0.4-4.8,1.5-7.6,6.7-7.4c2,0.1,4,0.1,6,0.3
	c7.5,0.6,15,0.7,22.4,0.3c5.7-0.2,11.3-0.4,17-0.6c1,0,1.9,0,2.9,0.1c2,0,3.7,1.7,3.7,3.7c0.1,0.8,0.1,1.5,0,2.3
	c-0.7,4.1-0.6,8.2,0.1,12.3c0.1,0.6,0.1,1.1,0.1,1.7c0.1,2.9-1.8,5.5-4.6,6.2c-1.9,0.5-3.9,0.4-5.6-0.5c-1.7-0.8-2.8-2.5-2.9-4.3
	c-0.2-1.4-0.1-2.9,0.1-4.3c0.2-1.1,0.4-2.3,0.4-3.4c0.2-1.2-0.7-2.4-1.9-2.5c-0.1,0-0.2,0-0.2,0c-0.6-0.1-1.1-0.1-1.7-0.1
	c-3.7,0-7.5,0-11.2,0c-3.5,0-4.3,0.9-4.4,4.5c0,1.6-0.1,3.3,0,4.9c0.1,2,1.1,2.7,3.1,2.5c0.6-0.1,1.1-0.2,1.7-0.4
	c0.8-0.3,1.4-1.1,1.4-2c0-1,0-1.9,0-2.9c0.1-2.2,1.2-3.4,3.3-3.6c0.8-0.1,1.5-0.1,2.3,0c1.7,0.2,3,1.6,3.1,3.3
	c0.1,1.1,0.1,2.3,0,3.4c-0.4,4.7-0.3,9.4,0.2,14.1c0.2,1.5,0.2,3.1-0.2,4.6c-0.8,3.5-5.6,3.8-7.5,2.1c-0.8-0.7-1.3-1.7-1.3-2.8
	c0-1.1,0-2.1,0-3.2c0.1-0.7-0.3-1.4-0.9-1.7c-1.2-0.6-2.6-0.7-3.9-0.3c-0.3,0.2-0.6,0.4-0.9,0.7c-0.2,0.3-0.4,0.7-0.4,1.1
	c-0.3,3.2-0.2,6.5,0.2,9.8c0.2,1.4,1.3,2.4,2.7,2.6c0.7,0.1,1.3,0.2,2,0.2c2.9,0,5.8,0,8.6-0.1c1.1,0,2.3-0.2,3.4-0.5
	c2.7-0.7,3.6-2.1,3.3-4.9c0-0.5-0.2-1-0.2-1.4c-0.1-1.1-0.2-2.3-0.2-3.5c0-4.4,3-7.2,7.4-6.8c3.5,0.3,5.4,2.1,5.8,5.6
	c0.2,2,0.1,4-0.2,6c-0.5,3.3-0.5,6.7,0.1,10c0.2,1,0.2,2.1,0.1,3.2c0,1.6-1.1,3-2.6,3.4c-0.7,0.3-1.4,0.4-2.2,0.5
	c-1.7,0-3.5,0-5.2-0.2c-10.8-0.7-21.7-0.8-32.5-0.6c-2.7,0-5.3,0.2-8,0.6c-1.2,0.2-2.5,0.2-3.7,0.2c-2.8-0.1-5.1-2.2-5.5-4.9
	c-0.1-1-0.1-1.9,0-2.9c0.1-2.6,2.3-4.6,4.9-4.4c0.1,0,0.3,0,0.4,0c0.9,0.1,1.7,0.3,2.5,0.4c1.1,0.3,2.3-0.3,2.7-1.4c0,0,0-0.1,0-0.1
	c0.4-1.2,0.6-2.4,0.5-3.7C530.6,713.1,530.6,708.8,530.6,704.5z"/>
<path class="st52" d="M604.2,696c1.3-1.2,2-1.9,2.8-2.6c3.6-3.4,8.4-5.2,13.4-5c1.5,0,3.1,0.3,4.5,0.8c5.5,1.8,8.4,5.8,9.2,11.4
	c0.3,2.1,0.4,4.2,0.4,6.3c0.1,3.9,0,7.9,0,11.8c0,1.2,0.1,2.5,0.3,3.7c0.2,1.3,1,1.8,2.3,1.5c0.2,0,0.4-0.1,0.5-0.1
	c2.9-0.8,5.1,1,5.2,4.1c0,0.4,0,0.8,0,1.2c-0.2,3.6-2.1,5.4-5.7,5.3c-1,0-1.9-0.1-2.9-0.2c-3.6-0.5-7.3-0.5-10.9,0
	c-1.1,0.2-2.3,0.3-3.4,0.2c-3-0.2-4.5-1.7-4.7-4.7c-0.1-0.7-0.1-1.3,0-2c0-1.8,1.4-3.3,3.2-3.6c0.4-0.1,0.8-0.1,1.1-0.2
	c0.9-0.2,1.5-1,1.5-1.9c0-0.3,0-0.6,0-0.9c0-4.5,0-9,0-13.5c0-1.4-0.2-2.7-0.7-4c-0.5-1.9-2.3-3.2-4.3-3.3c-4.3-0.6-8.3,2.5-8.9,6.9
	c0,0.3-0.1,0.5-0.1,0.8c-0.2,4.4-0.1,8.8,0,13.2c0,1.9,0.2,2.2,2.3,2.7c1.7,0.4,3,1.9,3,3.7c0.1,1.1,0.1,2.1-0.1,3.2
	c-0.2,1.9-1.8,3.3-3.7,3.5c-1.1,0.1-2.3,0.1-3.4-0.1c-3.8-0.6-7.7-0.6-11.5,0c-1.3,0.2-2.7,0.3-4,0.2c-2.8-0.2-4.4-1.6-4.9-4.4
	c-0.2-1.2-0.2-2.5,0.2-3.7c0.4-1.8,2.1-2.9,3.9-2.8c0.8,0.1,1.5,0.2,2.2,0.4c0.7,0.2,1.5-0.2,1.8-0.9c0,0,0-0.1,0-0.1
	c0.3-0.8,0.4-1.7,0.4-2.5c0-5.6,0-11.1,0-16.7c0-0.7-0.1-1.3-0.2-2c-0.3-1.5-0.8-1.8-2.5-1.5l-0.3,0.1c-4.3,1-5.8-1.7-5.7-5
	c0.1-2.9,1.7-4.9,4.2-5.5c0.7-0.2,1.5-0.2,2.3,0c3,0.6,6.1,0.7,9.1,0.1c0.4-0.1,0.7-0.1,1.1-0.2c1.2-0.2,2.4,0.6,2.6,1.8
	c0,0.2,0,0.3,0,0.5C604.2,693.1,604.2,694.2,604.2,696z"/>
<path class="st54" d="M581.5,698.1c0.2,0.6,0.4,1,0.6,1.5c0.8,2.1,2.7,3.6,4.9,4c0.5,0.1,0.9,0.2,1.4,0.3c1.5,0.2,1.5,0.2,1.5,1.7
	c0,3.2,0,6.3,0,9.5v4.7c-2.8,0.2-5.4,0.7-7,3c-0.7-0.1-0.6-0.6-0.6-0.9c0.1-1.5,0.3-3,0.4-4.6c0.3-2.6,0.3-5.2-0.2-7.7
	c-0.4-2.4-1.8-4.5-3.8-5.8c-0.3-0.2-0.6-0.5-0.9-0.8C579.4,701.7,580.7,700,581.5,698.1z"/>
<path class="st54" d="M614,722.4c-0.6-0.5-1.2-0.9-1.9-1.2c-1.3-0.3-1.6-1.1-1.6-2.3c0.1-3.4,0-6.7,0-10.1c-0.1-1.3,0.3-2.5,1.1-3.5
	c1-1.3,2.7-2,4.3-1.6c0.5,0.1,0.9,0.4,1.1,0.8c0.3,0.6,0.5,1.2,0.5,1.9c0,4.4,0.1,8.8,0.1,13.2c0.1,0.5-0.3,0.9-0.7,1.1
	C615.8,721.1,614.8,721.6,614,722.4z"/>
<path class="st58" d="M566.8,704.1l-2,1.6c-0.5-1.3-0.5-1.3-0.2-3c0.3,0.1,0.5,0.2,0.8,0.3C565.8,703.3,566.2,703.6,566.8,704.1z"/>
<path class="st60" d="M551.3,719.2c-0.3,0.3-0.7,0.3-1.1,0.2c-0.5-0.2-0.6-0.7-0.6-1.2c0-0.2,0.1-0.4,0.2-0.4
	c0.4-0.1,0.7,0.3,0.9,0.6S551.1,718.9,551.3,719.2z"/>
<path class="st61" d="M563,718.4l0.2,0.2c-0.1,0.1-0.1,0.2-0.2,0.2s-0.1-0.1-0.2-0.2L563,718.4z"/>
<path class="st52" d="M1157.8,711.7c0-3,0-5.9,0-8.9c0-0.7,0-1.3-0.1-2c0-0.8-0.7-1.5-1.5-1.5c-0.7-0.1-1.3,0-2-0.1
	c-1.7,0-3.2-1.2-3.6-2.8c-0.5-1.6-0.4-3.3,0.5-4.7c0.6-1.2,1.8-2,3.2-2.1c0.7,0,1.3,0,2-0.1c1,0.1,1.9-0.7,2-1.8c0-0.1,0-0.2,0-0.2
	c0.1-1.4,0.1-2.9,0.1-4.3c0-1,0-1.9,0.1-2.9c0.2-1.8,1.5-3.2,3.2-3.6c2.3-0.6,4.8-0.6,7.1-0.1c1.2,0.2,2.1,1.1,2.2,2.3
	c0.2,1.1,0.2,2.3,0.3,3.4c0.1,1.7,0,3.5,0.2,5.2c0.1,1.5,0.5,1.9,2,1.9c2,0.1,4,0,6,0.1c1,0,1.9,0.1,2.8,0.2c2,0.2,3.5,2,3.5,4
	c0.2,2.8-0.8,5.3-4.4,5.4c-2,0.1-4,0-6,0c-0.7,0-1.3,0-2,0c-1.4,0.1-1.8,0.5-1.9,2c0,0.3,0,0.6-0.1,0.9c-0.1,5.7-0.2,11.3-0.3,17
	c-0.1,1.1,0.1,2.1,0.4,3.1c0.4,1.3,1.7,2.2,3.1,2c1.3,0,2.4-1,2.6-2.3c0.2-0.9,0.2-1.9,0.2-2.8c0-1.2-0.1-2.3,0-3.5
	c0-2,1.7-3.7,3.7-3.7c3.1-0.3,5.1,0.8,5.9,3.8c1.3,4.2,0.9,8.7-1,12.6c-1.6,3.2-4.6,5.6-8.1,6.5c-3.7,1.1-7.6,1.1-11.4,0.1
	c-5.1-1.4-7.8-4.9-8.8-10c-0.5-3.2-0.6-6.5-0.3-9.7C1157.6,714,1157.7,712.8,1157.8,711.7L1157.8,711.7z"/>
<path class="st1" d="M543.7,157.1c-0.6,12.7-3.6,24.2-10.8,34.4c-2.3,3.5-5.4,6.3-9.2,8.1c-1.3,0.6-2.7,0.9-4.2,0.9
	c-2.3,0.1-4.6-0.9-6.2-2.6c-1.6-1.6-2.8-3.5-3.5-5.6c-1-2.7-1.6-5.5-1.9-8.4c-1.1-11,1.4-21.3,5.9-31.2c1.8-4,4.3-7.8,7.3-11
	c1.8-2.1,4.1-3.7,6.7-4.8c3.5-1.3,7.6-0.9,10.3,2.1c0.8,0.8,1.4,1.8,2,2.8c1.4,2.6,2.4,5.5,2.8,8.4
	C543.4,152.7,543.5,155.1,543.7,157.1z"/>
<path class="st62" d="M410,632.9c-4.7,1.8-9.4,3.7-14.2,5.5c-1.1,0.6-2.3,0.9-3.6,1c-0.1-1.8,1.6-1.1,2.3-1.8
	c2.2-0.6,4.2-1.7,5.9-3.2c1.2-1.1,3-1.1,4.6-1.4c0.8-0.2,1.5-0.3,2.2-0.6c1.4-0.2,2.4-1.4,2.3-2.8c0-0.7-0.1-1.3,0.5-1.8
	C410.3,629.5,410.3,631.2,410,632.9z"/>
<path class="st13" d="M328.3,650.9c-0.6,0.7-1.4,0.5-2.1,0.6c-1.9,0-3.8,0.1-5.7,0.5c-1.5,0.3-3,0.3-4.5,0c-2.4-0.5-4.9-0.6-7.4-0.4
	c-3.8,0.2-7.3-0.7-11-1.4c-0.2,0-0.3-0.2-0.4-0.4c2.5,0.1,5-0.3,7.4,0.5c0.7,0.1,1.3,0.1,2,0c0.6-0.1,1.1,0,1.7,0.1
	c2.3,0.8,4.7,0.5,7.1,0.5C319.7,650.9,324,650.9,328.3,650.9z"/>
<path class="st63" d="M394.5,637.6c-0.3,0.5-0.8,0.7-1.3,0.9s-0.8,0.4-1,0.9c-3.5,1.5-7.2,2.7-10.9,3.4c-0.5,0.5-1.3,0-1.8,0.5
	l-0.2,0.1h-0.2c-0.6,0.3-1.3,0.3-1.9-0.1c0.6-0.5,1.2-0.9,1.8-1.4c0.8-0.6,1.9-1,2.9-0.9c2.2,0.2,4.4-0.5,6.2-1.8
	C390,638,392.3,637.4,394.5,637.6z"/>
<path class="st64" d="M377.2,643.4l1.9,0.1c-2.6,1.1-5.2,1.9-8,2.3c-1.5-0.2-2.7,1.4-4.2,0.5c1.9-1.6,4.3-2.4,6.8-2.3
	C374.9,644.1,376,643.3,377.2,643.4z"/>
<path class="st13" d="M360.1,648.6l-4.8-0.1c1.9-1.5,4.3-2.3,6.7-2.3c1.2,0,2.4,0,3.6,0c-0.4,2-2.5,0.8-3.4,1.8l0,0
	c-0.5,0.4-1.3,0-1.8,0.5l-0.2,0.1L360.1,648.6z"/>
<path class="st13" d="M352.5,649.1c-1,0.8-2.3,1.2-3.6,1.1H345c1-0.5,2-1,3-1.5c0.8-0.3,1.7-0.3,2.5,0
	C351.2,649.1,351.8,649.2,352.5,649.1z"/>
<path class="st40" d="M362.3,648.1c0.2-0.5,0.7-0.5,1.1-0.8c0.7-0.4,1.8-0.2,2.3-1.1h1.1c0.5,0,1.1-0.1,1.6-0.2
	c0.9-0.3,1.8-0.4,2.7-0.3C368.3,647.1,365.4,647.8,362.3,648.1z"/>
<path class="st13" d="M339.8,650.3c-0.5,0.6-1.1,0.6-1.8,0.6h-6.3c0.5-0.5,1.2-0.7,1.8-0.6H339.8z"/>
<path class="st13" d="M355.4,648.6c-0.4,0.7-1.1,0.6-1.8,0.5C354.1,648.5,354.8,648.6,355.4,648.6z"/>
<path class="st31" d="M446,399.2c-0.1,1.9-0.3,3.8-0.6,5.7c-0.1,0.7,0.2,1.1,1,1.1c0.7,0,1.3,0,2,0c4.6-0.1,9.2,0.1,13.8,0.7
	c16,1.8,30.5,7.3,43.2,17.2c8.4,6.6,15.4,14.8,20.8,24c5.9,10.2,10.3,21.3,13,32.8c1.4,5.7,2.5,11.4,3.3,17.2
	c0.7,4.9,1.1,9.9,1.5,14.9c0.6,8.2,0.5,16.3,0.4,24.5c-0.1,5.2-0.5,10.3-0.9,15.5c-0.3,4.3-0.8,8.6-1.4,12.8
	c-0.6,4.5-1.4,8.9-2.3,13.3c-1.3,6.9-3.2,13.6-5.5,20.2c-2.5,7.4-5.9,14.4-10,21c-10.7,17.5-28.5,29.4-48.7,32.6
	c-6.2,1.1-12.6,1.6-18.9,1.5c-1.4,0-2.9-0.2-4.3-0.3c-0.9,0-1.2,0.3-1.1,1.2c0.2,1.4,0.4,2.8,0.6,4.3c0.1,0.5-0.1,0.9-0.6,1.1
	c-0.1,0-0.2,0-0.4,0c-1.4,0.1-2.9,0.1-4.3,0.2c-6.8,0.2-13.6,0.4-20.4,0.8c-2.7,0.1-5.4,0.4-8,0.4c-1.6,0-1.8-0.2-1.7-1.6
	c0.2-7.5,0-15,0.5-22.5c0.2-3.4,0.1-6.9,0.1-10.4c0-11.4,0.2-22.8-0.1-34.3s-0.1-22.8-0.5-34.2c-0.3-7.8-0.1-15.5-0.6-23.3
	c-0.4-6.7-0.1-13.4-0.6-20.1c-0.4-6.2-0.2-12.5-0.6-18.7c-0.4-6-0.2-11.9-0.6-17.8c-0.4-5.6-0.2-11.1-0.6-16.7
	c-0.4-5.2-0.2-10.4-0.6-15.5c-0.4-4.9-0.2-9.8-0.6-14.7c-0.4-4.5-0.2-9-0.6-13.5s-0.4-8.8-0.5-13.2c-0.1-1.5-0.3-3.1-0.4-4.6
	c0-0.7,0.4-1,1-1.1h0.6l31.9-0.5C444.8,399.2,445.3,399.2,446,399.2z"/>
<path class="st1" d="M500,411.3l1.1,1.8c-1.1,0-1.7-0.9-2.5-1.3c-5-2.7-10.3-5-15.8-6.9c-4.6-1.4-9.2-2.5-13.9-3.4
	c-1.8-0.3-3.5-0.7-5.3-1c-0.6-0.1-1.1-0.1-1.7-0.1c-1.3,0-2.7-0.1-4-0.4c-1.1-0.2-2.3-0.3-3.4-0.1c-0.9,0.1-1.8-0.5-2-1.4
	c0,0,0-0.1,0-0.1c-0.1-0.5-0.3-0.9-0.4-1.4c-0.5-1.7-1.9-3-3.6-3.4c-1.2-0.4-2.4-0.6-3.6-0.6c-5.6,0-11.3,0-17,0
	c2.5-1.3,5.3-2.3,8.1-2.8c2.9-0.7,5.8-1.1,8.7-1.7c0.7-0.1,1.3-0.1,2-0.1c1.9,0,3.8,0,5.8,0c6.8,0.1,13.5,1.5,19.8,4
	c6,2.4,11.6,5.5,16.8,9.3c1.8,1.3,3.4,2.8,5.1,4.2c0.3,0.4,0.7,0.7,1,1C497,408,498.6,409.5,500,411.3z"/>
<path class="st40" d="M360.6,648.6c0.5-0.7,1.1-0.6,1.8-0.5C361.9,648.5,361.2,648.7,360.6,648.6z"/>
<path class="st64" d="M379.6,643.3c0.4-0.7,1.1-0.5,1.8-0.5C380.9,643.3,380.2,643.5,379.6,643.3z"/>
<path class="st65" d="M568.5,245.9c-1-0.4-1.9-0.8-2.9-1.2c-1.1-0.3-2.1-0.9-2.9-1.6c0.3-0.1,0.5-0.4,0.8-0.4
	c1.7-0.2,3.3-0.8,4.7-1.8c1.7-1,3.5-1.9,5.4-2.5c1.4-0.5,2.6-1.2,3.7-2.1c1.6-1.4,3.3-2.5,5-3.8c2.9-2.1,5.1-4.9,6.4-8.2
	c0.8-2.1,2.1-4,3.8-5.6c0.5-0.5,0.9-1,1.3-1.5c0.9,2.2,1.6,4.4,2.1,6.7c0.1,0.4-0.1,0.8-0.4,1c-0.8,0.7-1.2,1.7-1.2,2.8
	c0,1.2-0.4,2.3-1.3,3.1c-0.7,0.8-1.4,1.5-2.3,2.2c-0.7,0.4-1.4,1-1.8,1.8c-0.3,0.5-0.8,0.8-1.3,1c-1.1,0.5-2.1,1.3-2.9,2.2
	c-1.8,1.8-3.9,3.1-6.2,3.9c-2.5,0.8-4.9,2-7,3.6C570.6,246.2,569.5,245.9,568.5,245.9z"/>
<path class="st65" d="M592.7,213.1c0.4,0.2,0.6,0.7,0.6,1.1C592.9,214,592.6,213.6,592.7,213.1z"/>
<path class="st65" d="M593.3,215.4l0.6,0.6L593.3,215.4z"/>
<path class="st13" d="M571.4,247.7c0-0.2,0-0.4,0-0.6c1.2,0,2.5,0,3.7,0c1.3,0.1,2.5-0.3,3.4-1.2c0.9-0.8,2-1.4,3.2-1.8
	c1.4-0.4,2.6-1.1,3.7-2.1c0.5-0.4,1.1-0.8,1.7-1.1c0.6-0.3,1.1-0.7,1.6-1.1c1.8-1.7,3.5-3.5,5.5-5c1.3-1.2,2.4-2.5,3.3-3.9
	c0.6-0.8,0.3-1.9,0.3-2.8c0.2,0.2,0.5,0.5,0.5,0.7c0.1,1.1,0.3,2.3,0.7,3.4c0.9,2.6-0.4,4.4-2.1,6.1c-1,0.7-1.9,1.7-2.5,2.7
	c-1.7,3.3-4,5.9-7.9,6.4c-0.8,0.2-1.6,0.7-2.2,1.4c-2.2,2-4.6,2.1-7.2,0.7C575.1,249.1,573.3,248.2,571.4,247.7z"/>
<path class="st38" d="M577.1,249.4c0.4,0,0.8,0,1.1,0.1c2.2,1.1,4,0.2,5.4-1.3c1.1-1.2,2.6-1.9,4.2-2.1c1.8-0.2,2.9-1.3,3.9-2.6
	c0.5-0.6,0.9-1.2,1.3-1.9c0.9-1.7,2.1-3.1,3.7-4.2c1.6-1.3,2.4-3.2,2.3-5.3c0.7,1.3,1.2,2.7,1.6,4.2c0.4,0.9,0.1,2-0.6,2.6
	c-1.1,1-2.3,2-3.3,3.2s-1.5,2.5-2.5,3.7c-1.2,1.5-2.9,2.4-4.4,3.6c-0.2,0.2-0.4,0.4-0.6,0.6c-0.7,0.5-1.5,0.9-2.2,1.4
	c-0.5,0.3-1.1,0.4-1.7,0.3c-2.3-0.6-4.6-0.9-7-1.2C577.8,250.4,577.3,250,577.1,249.4z"/>
<path class="st66" d="M844,714.9c0.4,2,0.1,4.1-0.7,6c-0.6,1.4-1.8,2.5-3.2,3.1c-1.7,0.7-3.5,0.8-5.3,0.5c-1.8-0.2-3.1-1.7-3.1-3.5
	c-0.1-1,0.4-1.9,1.2-2.5c0.5-0.4,0.9-0.6,1.5-0.9C837.5,716.6,840.7,715.7,844,714.9z"/>
<path class="st66" d="M1066.9,704.9c-1.8,0-3.6,0-5.4,0c-0.7,0.1-1.3-0.5-1.4-1.2c0-0.2,0-0.4,0.1-0.6c0.5-2,1.9-3.6,3.7-4.5
	c2.8-1.4,6.2-0.8,8.5,1.3c0.7,0.7,1.2,1.5,1.4,2.4c0.4,1.8-0.1,2.6-2,2.5C1070.1,705,1068.5,705,1066.9,704.9L1066.9,704.9z"/>
<path class="st66" d="M705.7,705c-1.7,0-3.4,0-5.2,0c-1.6,0-2.2-0.9-1.6-2.2c1.4-3.8,5.6-5.8,9.4-4.4c1,0.4,1.8,0.9,2.6,1.6
	c0.6,0.6,1.1,1.3,1.4,2.1c0.7,2.2,0,3-2,2.9C708.8,705,707.2,705,705.7,705L705.7,705z"/>
<path d="M717.1,579.8c0-6.6,0-13.2,0-19.9c-0.1-1.4,0.5-2.8,1.7-3.7c5.7-4.5,12.3-7.9,19.3-9.8c5-1.4,10.2-1.9,15.4-1.5
	c10.2,1,18.4,5.5,24,14.4c1.9,3.1,3.2,6.6,3.7,10.2c1.1,7.1,0.3,14.4-2.2,21.2c-2.1,5.5-5.8,10.3-10.5,13.9
	c-5.2,4.2-11.6,6.9-18.2,7.8c-10.4,1.6-20.9-1.1-29.4-7.3c-3.9-2.8-3.9-2.8-3.9-7.8c0-5.8,0-11.7,0-17.6L717.1,579.8z"/>
<path d="M607.2,624.4c-7.7,0-13.3-3.3-17.1-9.4c-3.3-5.3-5.2-11.4-5.5-17.7c-0.1-1-0.2-2.1-0.3-3.2c-0.1-0.6-0.1-1.1-0.1-1.7
	c0.3-5.4,0.7-10.7,2.8-15.8c2.5-6.4,7.1-11.8,13-15.2c2.9-1.7,6.1-2.8,9.4-3.4c9.7-1.7,18.8,0.1,27.8,3.6c1,0.3,1.6,1.2,1.4,2.2
	c-0.2,1.9-0.3,3.8-0.3,5.7c-0.1,4.3,0,8.6-0.2,13c-0.5,8.4-0.4,16.9-0.3,25.3c0.1,1-0.3,1.9-1,2.5c-5.2,4.1-10.5,8.1-16.6,10.8
	C616,623.2,611.6,624.3,607.2,624.4z"/>
<path d="M1047.2,550.8c-1.3,0-2.7,0-4,0c-0.6,0-1-0.4-1-1c0,0,0-0.1,0-0.1c0.3-8.9,4.6-15.5,12-20c6.1-3.7,13.4-5.2,20.5-4.2
	c10.8,1,18.8,10.4,18,21.2c0.1,0.5-0.3,1-0.9,1.1c0,0-0.1,0-0.1,0c-0.2,0-0.4,0-0.6,0c-5.1-0.2-10.2,0.4-15.2,0.6
	c-3.6,0.2-7.3,0.6-10.9,0.9c-2.3,0.2-4.6,0.4-6.9,0.6C1054.5,550.2,1050.9,550.8,1047.2,550.8z"/>
<path d="M441.9,489.2c0-5.7-0.1-11.3,0-17c0.1-8.5,0.3-17.1,0.6-25.6c0.1-3.4,0.4-6.7,0.4-10.1c0-0.3,0-0.6,0-0.9c0-0.6,0.4-1,1-1
	c0.1,0,0.1,0,0.1,0c1.8,0.1,3.6,0.1,5.5,0.3c12.8,1.2,24.6,5,34.8,13c7.5,5.9,13.7,13.3,18.3,21.6c5.6,10.2,9.4,21.3,11.2,32.8
	c0.7,4.4,1.3,8.9,1.8,13.4c0.9,8.5,1.2,17,0.9,25.6c-0.2,5.8-0.6,11.5-1.4,17.2c-0.8,5.9-2,11.7-3.6,17.4c-2.3,8.8-6,17.2-11,24.9
	c-6,9-13.7,16.2-23.7,20.8c-4.9,2.3-10.1,3.7-15.5,4c-1.4,0.1-2.9,0.4-4.3,0.3c-2.7-0.1-5.3-0.3-8-0.5c-1-0.1-1.3-0.5-1.4-1.5
	c-0.2-2.6-0.4-5.2-0.6-7.7c-0.3-4-0.7-8-1-12c0-0.3,0-0.6-0.1-0.9c-0.2-4.3-0.3-8.6-0.8-12.9s-0.2-8.8-0.9-13.2c0-0.2,0-0.4,0-0.6
	c-0.2-6.2-0.4-12.5-0.8-18.7c-0.4-6-0.3-12.1-0.6-18.1c-0.5-7.2-0.2-14.4-0.5-21.6C441.9,508.5,441.8,498.9,441.9,489.2z"/>
<path class="st14" d="M839.3,720.5c-1,0.7-2.3,0.9-3.5,0.6c0.7-0.8,0.7-0.8,2.2-1.2C838.6,719.7,839.2,719.5,839.3,720.5z"/>
<path class="st67" d="M839.3,720.5c-0.3-0.6-0.9-0.5-1.4-0.6c0.4-0.2,0.8-0.4,1.2-0.5c0.3-0.1,0.8-0.2,0.8,0.4
	C840,720.2,839.7,720.5,839.3,720.5z"/>
<path class="st68" d="M1067.9,701.3c-0.2,0.3-1,0.3-1.3,0s0-0.3,0.2-0.3c0.3,0,0.5,0,0.8,0C1067.8,701.1,1067.9,701.2,1067.9,701.3z
	"/>
<path class="st69" d="M706.3,701.2c0,0.1-0.1,0.2-0.1,0.2c-0.3,0-0.7,0.1-1,0.1c-0.1,0-0.1-0.1-0.2-0.2c0.1-0.1,0.2-0.3,0.3-0.3
	C705.8,700.9,706.3,701,706.3,701.2z"/>
<path class="st0" d="M723.7,579.9c0-5.7,0-11.3,0-17c-0.1-1.3,0.6-2.6,1.8-3.3c3.9-2.6,8.1-4.7,12.5-6.2c5.8-2,11.9-2.4,17.9-1.3
	c9.3,1.7,15.6,7.4,18.5,16.5c0.5,1.8,0.7,3.6,0.7,5.4c0.3,4.7-0.4,9.4-1.9,13.9c-2.1,5.6-6,10.4-11.2,13.5
	c-4.3,2.9-9.4,4.5-14.5,4.8c-7.2,0.6-14.4-1.1-20.6-4.9l-0.7-0.5c-2.6-1.7-2.6-1.7-2.6-4.8v-16.1H723.7z"/>
<path class="st1" d="M598.5,570.7c2.1-1.7,4.4-3.1,6.8-4.2c2.7-1.3,5.6-2,8.6-2c2.5-0.1,5,0,7.5,0.1c0.6,1,0.2,2.1-0.1,3.1
	c-4.2,16.9-10.3,33.3-18.1,48.9c-0.2,0.3-0.4,0.6-0.7,0.9c-3.8-1.5-6.2-4.2-8.1-7.7c-2.4-4.7-3.7-9.9-3.6-15.1c0-1.6,0-3.2,0-4.9
	c0.4-0.7,0.6-1.5,0.6-2.2c1.8-4.6,4-9,5.7-13.6C597.6,572.8,598.7,572,598.5,570.7z"/>
<path class="st0" d="M602.6,617.4c-0.1-0.3-0.3-0.7-0.2-1.1s0.4-0.9,0.6-1.3c5.6-11.1,10.2-22.7,13.9-34.5c1.7-5.3,3-10.7,4.4-16
	c3.3,0.1,6.5,0.8,9.5,1.9c0.7,0.2,1.1,0.8,1,1.5c-0.1,2.2-0.1,4.4-0.2,6.6c-0.5,10-0.5,19.9-0.5,29.9c0.1,1.3-0.5,2.6-1.7,3.3
	c-3,2.3-6.3,4.4-9.6,6.3C614.8,617.2,608.6,618.4,602.6,617.4z"/>
<path class="st70" d="M597.9,573.7c-1.7,4.9-3.7,9.6-5.9,14.3c-1.4-0.5-0.5-1.5-0.6-2.3c0.5-4.9,2.6-9.5,5.8-13.2
	C598.3,572.4,598.2,573,597.9,573.7z"/>
<path class="st71" d="M591.4,585.7c0.4,0.7-0.2,1.7,0.6,2.3c0,0.7-0.4,1.3-1,1.7C590.9,588.3,590.7,587,591.4,585.7z"/>
<path class="st72" d="M597.9,573.7c-0.1-0.5-0.1-1-0.7-1.3l1.3-1.8c0.3,0.1,0.5,0.4,0.4,0.8c0,0,0,0.1,0,0.1
	C598.6,572.3,598.6,573.2,597.9,573.7z"/>
<path class="st0" d="M1050.1,543.6c0.4-1.1,0.9-2.1,1.6-2.9c3.6-4.7,8.9-7.8,14.8-8.5c2.8-0.5,5.7-0.5,8.6,0.1
	c4.3,0.8,8,3.6,9.9,7.5c0.1,0.3,0.2,0.5,0.3,0.8c0.1,0.4,0,0.8-0.5,0.8c-0.3,0-0.6,0.1-0.9,0.1c-9.3,0.3-18.5,1.2-27.8,2.1
	c-1.8,0.2-3.6,0.2-5.4,0.3C1050.6,543.9,1050.4,543.7,1050.1,543.6z"/>
<path class="st14" d="M452.7,602.5c-0.2-1-0.4-2.1-0.4-3.1c-0.5-8-1-15.9-1.4-23.8c-0.5-10.3-1.1-20.7-1.5-31
	c-0.4-13.1-0.8-26.3-0.8-39.4c-0.1-14.3-0.1-28.6,0.1-42.9c0.1-6.2,0.4-12.5,0.5-18.7c0-0.2,0-0.4,0-0.6c0.1-1,0.3-1.2,1.2-1.1
	c3.3,0.2,6.5,0.7,9.6,1.6c11,2.8,20.1,8.8,27.8,17.1c4.9,5.5,9,11.8,11.9,18.5c2.4,5.3,4.4,10.8,5.9,16.5c1.2,13.2-1,26.2-3.7,39
	c-0.4,0.7-0.8,1.5-1,2.4c-0.1,0.3-0.1,0.5-0.2,0.8c-0.2,0.6-0.3,1.3-0.5,1.9c-0.1,0.3-0.2,0.5-0.3,0.7c-2.3,2.7-3.7,6.1-4.3,9.6
	c-0.1,0.4-0.3,0.8-0.5,1.1c-0.1,0.2-0.3,0.5-0.4,0.7c-1.7,2.6-4.5,4.6-4.8,8c0,0.3-0.1,0.5-0.2,0.8c-0.1,0.4-0.3,0.8-0.5,1.1
	c-0.6,1.4-1.4,2.7-2.5,3.8c-2.2,2-3.9,4.5-4.9,7.3c-0.9,2.6-3.2,4.3-5.2,6c-1.6,1.3-2.9,3.1-3.6,5c-0.6,2.1-2.2,3.9-4.2,4.7
	c-2.2,1-3.9,2.8-4.9,5c-1.2,2.7-3.5,4.9-6.3,5.9c-1.5,0.5-2.7,1.4-3.6,2.7C453.8,602.4,453.4,602.8,452.7,602.5z"/>
<path class="st1" d="M501.1,535.1c0.8-2.5,1.4-5.2,1.7-7.8c1.8-10.2,2.8-20.6,3-31c0-0.3,0.1-0.6,0.1-0.9c0.9,1,0.5,2.2,0.7,3.3
	c0.6,3.2,1.2,6.4,1.6,9.6c0.2,2.2,0.7,4.3,1,6.5c0.1,0.7,0.1,1.3,0.1,2c-0.1,1.5,0.1,3.1,0.5,4.6c0.1,0.7,0.2,1.3,0.1,2
	c0,8,0,16,0,23.9c0.1,1.1,0,2.1-0.4,3.1c-0.1,0.4-0.2,0.7-0.2,1.1c0,4.2-1,8.3-1.6,12.5c-1.4,8-3.8,15.8-7.2,23.2
	c-2,4.7-4.5,9.1-7.6,13.1c-2.3,3-4.6,6.2-7.9,8.3c-1.1,0.7-1.9,1.8-3,2.6c-3.9,2.7-8.1,4.8-12.5,6.4c-3.5,1.3-7.3,1.8-11,1.5
	c-0.4-1.5,0.7-2.3,1.5-3.2c9.7-11,17.3-23.3,24.4-36.1c0.3-0.5,0.5-1,0.6-1.6c1-2.3,2.6-4.2,3.4-6.6c0.2-0.6,0.5-1.1,0.7-1.7
	l0.3-0.7c0.2-0.5,0.3-0.9,0.5-1.4c1-2.6,2.6-5,3.4-7.7c1.5-3.7,2.7-7.6,3.9-11.4c1-3,1.5-6.2,3-9l0,0c0.5-0.7-0.2-1.7,0.5-2.4l0,0
	C501.1,536.8,500.5,535.8,501.1,535.1z"/>
<path class="st32" d="M485.5,578.3c-0.1,0.9-0.4,1.7-0.9,2.4c-3.9,6.9-7.8,13.8-12.3,20.3c-2.9,4.2-5.8,8.2-9.1,12.1
	c-1,1.2-2,2.5-3.2,3.7c-0.7,0.7-1.2,1.5-1.6,2.4c-1.1,0-2.3,0.1-3.4,0c-0.6,0-1.1-0.4-1.1-1c0,0,0,0,0-0.1c-0.4-1.8-0.5-3.6-0.6-5.4
	c0.2-2.1-0.6-4.2-0.5-6.3c2.7-2.3,5.6-4.2,8.2-6.6c5-3.9,9.5-8.4,14.2-12.7c0.2-0.2,0.4-0.3,0.7-0.4s0.5-0.3,0.7-0.4
	c2.6-1.9,4.6-4.3,6.8-6.5C484,579.1,484.3,578,485.5,578.3z"/>
<path class="st70" d="M452.7,602.5l1.2-0.6c1.8-1,3.4-2.4,5.5-3c1.2,0.8,0.3,1.5-0.1,2.3c-0.2,0.2-0.3,0.4-0.5,0.5l-0.5,0.5
	l-0.3,0.3c-0.2,0.2-0.4,0.4-0.5,0.5c-1.5,0.6-2.5,3-4.6,1.2C452.6,603.7,452.6,603.1,452.7,602.5z"/>
<path class="st52" d="M452.8,604.2c0.4,0.2,0.9,0.4,1.3,0.2l3.2-1.9c0.2-0.2,0.4-0.4,0.6-0.6l0,0c0.2-0.2,0.4-0.4,0.6-0.6l0,0
	c1-0.3,1.4-2,2.9-1.1c-2.3,2.3-4.8,4.3-7.5,6.1c-0.3,0.2-0.7,0.1-1.1,0.2C452.8,605.7,452.8,605,452.8,604.2z"/>
<path class="st73" d="M459.6,599l-2.8,1.9c-0.8,0.7-1.9,1-2.9,1c0.5-1.5,1.7-2.6,3.2-2.9c2-0.6,3.8-1.8,5.1-3.5
	c0.5-0.5,0.8-1,1.1-1.7c0.8-2.7,3.1-4,4.8-5.9c0.4-0.3,0.8-0.5,1.3-0.5c1-0.1,1.8-0.7,2.2-1.7c0.5-0.9,0.8-1.9,1.3-2.9
	c0.6-1.8,1.8-3.4,3.3-4.5c1.8-1.4,3.3-3.1,4.7-4.9c0.5-0.6,0.8-1.3,1-2c0.4-2,1.4-3.7,3-5c1.7-1.5,3.1-3.4,4-5.5
	c0.2-0.2,0.4-0.4,0.6-0.6V560c2.6-2.3,3.5-5.7,5.2-8.6v-0.6l0.4-0.2c0.3,0.1,0.5,0.3,0.6,0.6c0.4,4.3-1.8,7.6-4.4,10.6
	c-1.2,1.2-2,2.7-2.3,4.4c-0.1,0.3-0.1,0.5-0.2,0.8c-0.2,0.4-0.3,0.8-0.5,1.1c-1.5,2.4-1.7,5.4-4,7.4c-2.6,1.9-4.6,4.4-6,7.3
	c-0.1,0.2-0.3,0.4-0.4,0.6s-0.3,0.4-0.4,0.6c-0.4,0.6-0.9,1.2-1.4,1.7c-0.2,0.2-0.4,0.4-0.5,0.5c-0.2,0.2-0.4,0.3-0.6,0.5
	c-2.1,1.2-3.9,3-5.2,5.1c-0.1,0.2-0.3,0.4-0.4,0.6c-0.1,0.2-0.3,0.4-0.4,0.5l-0.2,0.2c-0.1,0.2-0.3,0.3-0.5,0.5l-0.2,0.2
	c-0.1,0.2-0.3,0.3-0.4,0.4l-0.2,0.2l-0.4,0.4l-0.2,0.2c-0.1,0.2-0.3,0.3-0.5,0.5l-0.2,0.2c-0.3,0.2-0.5,0.5-0.8,0.7
	c-1.4,0.9-2.8,1.7-4.3,2.6c-0.2,0.1-0.5,0.2-0.8,0.2L459.6,599z"/>
<path class="st74" d="M500.1,539.8c-0.4,3.1-1.2,6.2-2.4,9.2c-0.7,0.7-0.8,2.2-2.3,1.7l0,0c-0.1-0.1-0.2-0.2-0.1-0.4
	c0-0.1,0.1-0.2,0.1-0.2C495.7,546.1,496.9,542.4,500.1,539.8z"/>
<path class="st73" d="M494.8,551.2c0,0.8,0.2,1.7-0.6,2.4c-0.3,0.3-0.5,0.8-0.5,1.3c-0.1,1.7-1.1,3.3-2.7,4c-0.5,0.3-1,0.6-1.4,1
	c-0.2-1.5,0.3-3.1,1.4-4.1c0.9-1,1.6-2.1,2.3-3.2C493.7,552,494.2,551.5,494.8,551.2z"/>
<path class="st74" d="M501.1,535.1c0.2,0.8,0,1.7-0.5,2.4C500.6,536.6,500.3,535.7,501.1,535.1z"/>
<path class="st74" d="M500.6,537.4c0.1,0.8-0.1,1.7-0.5,2.4C500,539,499.6,538,500.6,537.4z"/>
<path class="st73" d="M489.6,560.4L489,561L489.6,560.4z"/>
<path class="st73" d="M495.3,550.1v0.6h-0.6L495.3,550.1z"/>
<path class="st6" d="M495.4,550.6l2.3-1.7c0,0.8-0.2,1.5-0.5,2.2c-0.9,3.2-2.1,6.3-3.5,9.3c-0.8,1.4-1.4,3-2.3,4.4
	c-0.7,1.1-1.4,2.3-3,1.8c-0.2-2,0.6-4,2.1-5.3c1.2-1.1,2.2-2.4,3-3.8C495,555.6,495.6,553.1,495.4,550.6z"/>
<path class="st75" d="M488.5,566.8c1.6-0.6,2.9-1.9,3.5-3.5c0.5-1,0.7-2.2,1.8-2.8c-0.9,2.8-2.1,5.5-3.5,8c-0.4,0.3-0.3,0.8-0.6,1.2
	l0,0c-0.3,0.4-0.5,0.7-0.7,1.1c-0.1,0.2-0.2,0.4-0.2,0.6c-0.1,0.2-0.2,0.4-0.3,0.5l-0.2,0.2c-0.2,0.2-0.3,0.5-0.5,0.7
	c-0.1,0.2-0.2,0.3-0.3,0.5c-0.1,0.2-0.2,0.3-0.4,0.4l-0.2,0.2l-0.4,0.4c0,0-0.2,0.2-0.2,0.2l-0.3,0.5c-0.1,0.2-0.2,0.3-0.3,0.5
	c-0.1,0.2-0.2,0.3-0.4,0.4c0,0-0.2,0.2-0.2,0.2l-0.4,0.4c0,0-0.2,0.2-0.2,0.2c-0.2,0.3-0.3,0.5-0.4,0.8c-0.1,0.2-0.3,0.4-0.4,0.5
	c-0.2,0.1-0.4,0.2-0.6,0.3l-0.3-0.1c-0.2-0.2-0.3-0.4-0.4-0.6c0-1.2,1-2,1.5-3c1.3-0.7,1.7-2,2.1-3.2c0.5-1.5,1.3-2.9,2-4.3
	C488.2,567.1,488.4,566.9,488.5,566.8L488.5,566.8z"/>
<path class="st76" d="M485.5,578.3c-1.1,0.4-1.3,1.6-2,2.3c-1.9,1.8-3.7,3.6-5.5,5.5c-0.4,0.5-1.1,0.8-1.8,0.8
	c-0.6-2.3,1.9-2.8,2.5-4.5c0.7-0.8,1.4-1.6,2.2-2.4c0.2-0.2,0.3-0.3,0.5-0.5l0.2-0.2c0.2-0.1,0.3-0.3,0.5-0.4l0.3-0.2
	c0.3-0.1,0.6-0.3,0.8-0.5l0,0c0.2-0.1,0.4-0.4,0.6-0.6l0,0c0.4-0.2,0.3-0.8,0.6-1.1l0,0c0.2-0.2,0.4-0.4,0.5-0.6l0,0
	c0.2-0.2,0.4-0.4,0.6-0.6l0,0c0.4-0.3,0.3-0.8,0.6-1.1l0,0c0.2-0.2,0.4-0.4,0.5-0.6l0,0c0.2-0.2,0.4-0.4,0.6-0.6l0,0
	c0.4-0.3,0.3-0.8,0.6-1.1l0,0c0.2-0.2,0.4-0.4,0.5-0.6l0,0c0.2-0.2,0.4-0.2,0.6,0C488.3,573.9,486.8,576,485.5,578.3z"/>
<path class="st61" d="M489,571.4l-0.6,0c0-0.8,0.5-1.4,1.2-1.7C489.7,570.3,489.4,571,489,571.4z"/>
<path class="st61" d="M489.6,569.7c-0.1-0.5,0.1-1,0.6-1.2C490.3,569,490.1,569.5,489.6,569.7z"/>
<path class="st77" d="M479.3,582.3c-0.2,1.1-1.1,1.7-1.7,2.5s-1.3,1.1-1.3,2.1l0,0c-0.1,0.2-0.3,0.4-0.6,0.6
	c-1.9,1.8-3.8,3.5-5.6,5.3c-2.7,2.7-5.6,5.1-8.7,7.4c-0.5,0-1.1,0.2-1.5,0.6c-0.4,0.4-0.9,0.6-1.5,0.6c0.3-0.8,1.3-1.3,1.2-2.3l0,0
	c0.2-0.2,0.4-0.4,0.6-0.6c1.6-1.1,3.3-2.1,5.2-2.9c0.2-0.2,0.4-0.4,0.6-0.6l0,0c0.2-0.2,0.4-0.4,0.6-0.6l0,0
	c0.2-0.2,0.4-0.4,0.6-0.6l0,0c0.2-0.2,0.4-0.4,0.6-0.6l0,0c0.2-0.2,0.4-0.4,0.6-0.6l0,0c0.2-0.2,0.4-0.4,0.6-0.6
	c1.5-1.5,3-3.1,4.6-4.6c0.2-0.3,0.5-0.5,0.7-0.8c0.3-0.4,0.6-0.7,1-0.9l0,0c0.2-0.2,0.4-0.4,0.6-0.6l1.2-1.7
	c0.2-0.2,0.4-0.4,0.6-0.6l0,0C478.1,582.6,478.5,581.9,479.3,582.3z"/>
<path class="st76" d="M475.7,587.4c0.1-0.3,0.3-0.5,0.6-0.6C476.3,587.2,476,587.4,475.7,587.4z"/>
<path class="st77" d="M458.5,601.3l-0.6,0.6L458.5,601.3z"/>
<path class="st77" d="M457.9,601.9l-0.6,0.6L457.9,601.9z"/>
<path class="st37" d="M479.3,582.3l-1.8,0.6c0.2-0.4,0.4-0.8,0.6-1.3c1.2-2.8,3.2-5.1,5.7-6.8l-1.2,3.4c0.2,0.1,0.2,0.3,0.2,0.4
	c-0.1,0.1-0.1,0.2-0.2,0.2l0,0c-0.2,0.2-0.4,0.4-0.5,0.6l0,0c-0.2,0.2-0.4,0.3-0.5,0.5C481,580.9,480.2,581.7,479.3,582.3z"/>
<path class="st63" d="M475.2,585.8l-0.6,1.2c-0.2,0.2-0.4,0.4-0.6,0.6c-1.2,1.5-2.5,2.9-3.9,4.1c-0.4,0.3-0.8,0.5-1.3,0.5
	c0-1.1,0.8-1.7,1.3-2.5C471.4,587.9,473.2,586.5,475.2,585.8z"/>
<path class="st37" d="M477.5,582.9l-0.6,0.6L477.5,582.9z"/>
<path class="st37" d="M475.8,585.2l-0.6,0.6L475.8,585.2z"/>
<path class="st63" d="M468.9,592.1l-0.6,0.6L468.9,592.1z"/>
<path class="st6" d="M488.5,566.8l-0.6,0.6L488.5,566.8z"/>
<path class="st63" d="M468.3,592.7l-0.6,0.6L468.3,592.7z"/>
<path class="st63" d="M467.7,593.3l-0.6,0.6L467.7,593.3z"/>
<path class="st63" d="M467.1,593.8l-0.6,0.6L467.1,593.8z"/>
<path class="st63" d="M466.5,594.4L466,595L466.5,594.4z"/>
<path class="st63" d="M466,595l-0.6,0.6L466,595z"/>
<path class="st70" d="M460.2,598.4l-0.6,0.6L460.2,598.4z"/>
<path class="st61" d="M487.9,572c0.1,0.5-0.2,0.9-0.6,1.1C487.2,572.6,487.5,572.2,487.9,572z"/>
<path class="st61" d="M486.1,574.3c0.1,0.5-0.2,1-0.7,1.1C485.4,574.9,485.7,574.5,486.1,574.3z"/>
<path class="st61" d="M484.4,576.6c0.1,0.5-0.2,0.9-0.6,1.1C483.7,577.2,484,576.8,484.4,576.6z"/>
<path class="st61" d="M482.6,578.9v-0.6h0.6L482.6,578.9z"/>
<path class="st61" d="M483.8,577.7l-0.6,0.6L483.8,577.7z"/>
<path class="st61" d="M485,576l-0.5,0.6L485,576z"/>
<path class="st61" d="M485.5,575.4L485,576L485.5,575.4z"/>
<path class="st61" d="M486.7,573.7l-0.5,0.6L486.7,573.7z"/>
<path class="st61" d="M487.3,573.1c-0.2,0.2-0.4,0.4-0.6,0.6C486.9,573.5,487.1,573.3,487.3,573.1z"/>
<path class="st61" d="M488.4,571.3l-0.5,0.6L488.4,571.3z"/>
<path class="st61" d="M481.6,580l0.5-0.5L481.6,580z"/>
<path class="st61" d="M482.1,579.4l0.5-0.6L482.1,579.4z"/>
<path class="st37" d="M474,587.5l0.6-0.6L474,587.5z"/>
</svg>
