<?xml version="1.0" encoding="utf-8"?>
<!-- Generator: Adobe Illustrator 18.0.0, SVG Export Plug-In . SVG Version: 6.00 Build 0)  -->
<!DOCTYPE svg PUBLIC "-//W3C//DTD SVG 1.1//EN" "http://www.w3.org/Graphics/SVG/1.1/DTD/svg11.dtd">
<svg version="1.1" id="Arrow_1_" xmlns="http://www.w3.org/2000/svg" xmlns:xlink="http://www.w3.org/1999/xlink" x="0px" y="0px"
	 width="500px" height="500px" viewBox="0 0 500 500" enable-background="new 0 0 500 500" xml:space="preserve">
  <metadata>
    <?xpacket begin="﻿" id="W5M0MpCehiHzreSzNTczkc9d"?>
    <x:xmpmeta xmlns:x="adobe:ns:meta/" x:xmptk="Adobe XMP Core 5.6-c011 79.156380, 2014/06/19-23:40:37        ">
     <rdf:RDF xmlns:rdf="http://www.w3.org/1999/02/22-rdf-syntax-ns#">
      <rdf:Description rdf:about=""
        xmlns:xmpMM="http://ns.adobe.com/xap/1.0/mm/"
        xmlns:stEvt="http://ns.adobe.com/xap/1.0/sType/ResourceEvent#"
        xmlns:xmp="http://ns.adobe.com/xap/1.0/"
        xmlns:xmpRights="http://ns.adobe.com/xap/1.0/rights/"
        xmlns:dc="http://purl.org/dc/elements/1.1/"
       xmpMM:DocumentID="xmp.did:1ed0bb04843e2f707f9a46d9eb47da08"
       xmpMM:OriginalDocumentID="xmp.did:1ed0bb04843e2f707f9a46d9eb47da08"
       xmpMM:InstanceID="xmp.iid:1ed0bb04843e2f707f9a46d9eb47da08"
       xmp:ModifyDate="2015-04-22T15:55:27+02:00"
       xmp:MetadataDate="2015-04-22T15:55:27+02:00"
       xmpRights:Marked="True"
       xmpRights:WebStatement="http://www.adobe.com/legal/general-terms.html">
       <xmpMM:History>
        <rdf:Seq>
         <rdf:li
          stEvt:action="saved"
          stEvt:instanceID="xmp.iid:1ed0bb04843e2f707f9a46d9eb47da08"
          stEvt:when="2015-04-22T15:55:27+02:00"/>
        </rdf:Seq>
       </xmpMM:History>
       <xmpRights:UsageTerms>
        <rdf:Alt>
         <rdf:li xml:lang="x-default">This work is licensed under the Adobe General Terms of Use http://www.adobe.com/legal/general-terms.html.</rdf:li>
        </rdf:Alt>
       </xmpRights:UsageTerms>
       <dc:publisher>
        <rdf:Bag>
         <rdf:li>Adobe Systems Incorporated</rdf:li>
        </rdf:Bag>
       </dc:publisher>
      </rdf:Description>
     </rdf:RDF>
    </x:xmpmeta>
    <?xpacket end="r"?>
  </metadata>
<g id="_x39_73-user-toolbar-selected_x40_2x.png">
	<g>
		<path d="M333.5,324.9c-15.1-6.6-24.1-15.4-26.7-26c-4.6-19.2,12.1-40.2,12-40.2h0c1.3-1.3,22.3-41.8,22.3-107.7
			c0-50.2-20.1-105.6-91.1-105.6s-91.1,55.4-91.1,105.6c0,65.9,21.1,106.5,21.8,107.1c0.2,0.2,17.2,21.5,12.6,40.7
			c-2.5,10.6-11.5,19.4-26.7,26C63.8,356.8,0,371.8,0,400.6v31.2c0,11.4,11.4,22.7,22.7,22.7h454.5c11.4,0,22.7-11.4,22.7-22.7
			v-31.2C500,371.8,436.2,356.8,333.5,324.9z"/>
	</g>
</g>
</svg>
